<mxfile host="Electron" agent="Mozilla/5.0 (Macintosh; Intel Mac OS X 10_15_7) AppleWebKit/537.36 (KHTML, like Gecko) draw.io/26.0.9 Chrome/128.0.6613.186 Electron/32.2.5 Safari/537.36" version="26.0.9" pages="2">
  <diagram name="concept" id="uP2VtJeilBSQQl1bGuM7">
    <mxGraphModel dx="1528" dy="837" grid="1" gridSize="10" guides="1" tooltips="1" connect="1" arrows="1" fold="1" page="1" pageScale="1" pageWidth="1169" pageHeight="827" math="0" shadow="0">
      <root>
        <mxCell id="0" />
        <mxCell id="1" parent="0" />
        <mxCell id="l3MHENS7_ctVRRqXySGe-1" value="Autonomous Data Warehouse" style="shape=cylinder3;whiteSpace=wrap;html=1;boundedLbl=1;backgroundOutline=1;size=18.729729729729712;fontFamily=Oracle Sans;fontSize=14;fontStyle=1;verticalAlign=top;" parent="1" vertex="1">
          <mxGeometry x="500" y="40" width="390" height="320" as="geometry" />
        </mxCell>
        <mxCell id="b59NEv9_kruJAz5aYfJX-26" value="Views | Materialized Views | Tables | Snapshots" style="text;html=1;align=center;verticalAlign=middle;whiteSpace=wrap;rounded=0;fontFamily=Oracle Sans;fontSize=14;" parent="1" vertex="1">
          <mxGeometry x="530" y="120" width="330" height="30" as="geometry" />
        </mxCell>
        <mxCell id="LbItfmBYyUvVAQTM5q1b-3" value="Data Sources" style="rounded=0;whiteSpace=wrap;html=1;strokeColor=default;align=center;verticalAlign=top;fontFamily=Oracle Sans;fontSize=14;fontColor=default;fontStyle=1;fillColor=default;" vertex="1" parent="1">
          <mxGeometry x="40" y="50" width="160" height="300" as="geometry" />
        </mxCell>
        <mxCell id="LbItfmBYyUvVAQTM5q1b-1" value="" style="shape=cylinder3;whiteSpace=wrap;html=1;boundedLbl=1;backgroundOutline=1;size=15;" vertex="1" parent="1">
          <mxGeometry x="65" y="90" width="110" height="70" as="geometry" />
        </mxCell>
        <mxCell id="LbItfmBYyUvVAQTM5q1b-4" value="" style="shape=cylinder3;whiteSpace=wrap;html=1;boundedLbl=1;backgroundOutline=1;size=15;" vertex="1" parent="1">
          <mxGeometry x="65" y="175" width="110" height="70" as="geometry" />
        </mxCell>
        <mxCell id="LbItfmBYyUvVAQTM5q1b-5" value="" style="shape=cylinder3;whiteSpace=wrap;html=1;boundedLbl=1;backgroundOutline=1;size=15;" vertex="1" parent="1">
          <mxGeometry x="65" y="260" width="110" height="70" as="geometry" />
        </mxCell>
        <mxCell id="LbItfmBYyUvVAQTM5q1b-6" value="Data Extraction&lt;div&gt;and Load&lt;/div&gt;" style="rounded=0;whiteSpace=wrap;html=1;strokeColor=default;align=center;verticalAlign=top;fontFamily=Oracle Sans;fontSize=14;fontColor=default;fontStyle=1;fillColor=default;" vertex="1" parent="1">
          <mxGeometry x="280" y="50" width="160" height="300" as="geometry" />
        </mxCell>
        <mxCell id="LbItfmBYyUvVAQTM5q1b-23" style="rounded=0;orthogonalLoop=1;jettySize=auto;html=1;exitX=1;exitY=0.5;exitDx=0;exitDy=0;entryX=0;entryY=0.25;entryDx=0;entryDy=0;" edge="1" parent="1" source="LbItfmBYyUvVAQTM5q1b-9" target="LbItfmBYyUvVAQTM5q1b-13">
          <mxGeometry relative="1" as="geometry" />
        </mxCell>
        <mxCell id="LbItfmBYyUvVAQTM5q1b-9" value="" style="shape=image;verticalLabelPosition=bottom;labelBackgroundColor=default;verticalAlign=top;aspect=fixed;imageAspect=0;editableCssRules=.*;image=data:image/svg+xml,PHN2ZyB4bWxucz0iaHR0cDovL3d3dy53My5vcmcvMjAwMC9zdmciIHZpZXdCb3g9IjAgMCA0MiAzMS45OSIgZGF0YS1uYW1lPSJMYXllciAxIiBpZD0iTGF5ZXJfMSI+PHRpdGxlPk90aGVyIC0gT3JhY2xlLUNsb3VkLUluZnJhc3RydWN0dXJlLUdvbGRlbkdhdGU8L3RpdGxlPjxtZXRhZGF0YT4mI3hhOyYjeGE7ICAgJiN4YTsgICAgICAmI3hhOyAgICAgICAgICYjeGE7ICAgICAgICAgICAgJiN4YTsgICAgICAgICAgICAgICBPdGhlciAtIE9yYWNsZS1DbG91ZC1JbmZyYXN0cnVjdHVyZS1Hb2xkZW5HYXRlJiN4YTsgICAgICAgICAgICAmI3hhOyAgICAgICAgICYjeGE7ICAgICAgICAgJiN4YTsgICAgICAgICAgICAmI3hhOyAgICAgICAgICAgICAgIGljb24mI3hhOyAgICAgICAgICAgICAgIEdvbGRlbiBHYXRlJiN4YTsgICAgICAgICAgICAgICBkYXRhYmFzZSYjeGE7ICAgICAgICAgICAgICAgcmVwbGljYXRlJiN4YTsgICAgICAgICAgICAgICBmaWx0ZXImI3hhOyAgICAgICAgICAgICAgIGRhdGEmI3hhOyAgICAgICAgICAgICAgIGhldGVyb2dlbmVvdXMmI3hhOyAgICAgICAgICAgICAgIERCJiN4YTsgICAgICAgICAgICAmI3hhOyAgICAgICAgICYjeGE7ICAgICAgICAgJiN4YTsgICAgICAgICAgICAmI3hhOyAgICAgICAgICAgICAgIE9yYWNsZSBBbGwgUmlnaHRzIFJlc2VydmVkJiN4YTsgICAgICAgICAgICAmI3hhOyAgICAgICAgICYjeGE7ICAgICAgICAgJiN4YTsgICAgICAgICAgICAmI3hhOyAgICAgICAgICAgICAgIGljb24mI3hhOyAgICAgICAgICAgICYjeGE7ICAgICAgICAgJiN4YTsgICAgICAgICAyMDIyLTAzLTA0VDE2OjMwOjQzLTA2OjAwJiN4YTsgICAgICAgICB4bXAuaWlkOjUwN2VhMDIxLWE4NjYtNDA2MS05NzVlLWMxMGE0YzQ2MDcxNiYjeGE7ICAgICAgICAgeG1wLmRpZDowNzdhNjk0My0xMDc4LTM2NDAtYjNhNy0yNmQ4ODk4ZTkyYTAmI3hhOyAgICAgICAgIHhtcC5kaWQ6MDc3YTY5NDMtMTA3OC0zNjQwLWIzYTctMjZkODg5OGU5MmEwJiN4YTsgICAgICAgICAmI3hhOyAgICAgICAgICAgICYjeGE7ICAgICAgICAgICAgICAgJiN4YTsgICAgICAgICAgICAgICAgICAmI3hhOyAgICAgICAgICAgICAgICAgICAgIHNhdmVkJiN4YTsgICAgICAgICAgICAgICAgICAgICB4bXAuaWlkOjA3N2E2OTQzLTEwNzgtMzY0MC1iM2E3LTI2ZDg4OThlOTJhMCYjeGE7ICAgICAgICAgICAgICAgICAgICAgMjAyMS0xMS0yMlQxNTo0NDo1OC0wNjowMCYjeGE7ICAgICAgICAgICAgICAgICAgICAgQWRvYmUgQnJpZGdlIDIwMjAgKFdpbmRvd3MpJiN4YTsgICAgICAgICAgICAgICAgICAgICAvbWV0YWRhdGEmI3hhOyAgICAgICAgICAgICAgICAgICYjeGE7ICAgICAgICAgICAgICAgJiN4YTsgICAgICAgICAgICAgICAmI3hhOyAgICAgICAgICAgICAgICAgICYjeGE7ICAgICAgICAgICAgICAgICAgICAgc2F2ZWQmI3hhOyAgICAgICAgICAgICAgICAgICAgIHhtcC5paWQ6NTA3ZWEwMjEtYTg2Ni00MDYxLTk3NWUtYzEwYTRjNDYwNzE2JiN4YTsgICAgICAgICAgICAgICAgICAgICAyMDIyLTAzLTA0VDE2OjMwOjQzLTA2OjAwJiN4YTsgICAgICAgICAgICAgICAgICAgICBBZG9iZSBCcmlkZ2UgMjAyMSAoTWFjaW50b3NoKSYjeGE7ICAgICAgICAgICAgICAgICAgICAgL21ldGFkYXRhJiN4YTsgICAgICAgICAgICAgICAgICAmI3hhOyAgICAgICAgICAgICAgICYjeGE7ICAgICAgICAgICAgJiN4YTsgICAgICAgICAmI3hhOyAgICAgICAgIFRydWUmI3hhOyAgICAgICYjeGE7ICAgJiN4YTsmI3hhOyAgICAgICAgICAgICAgICAgICAgICAgICAgICAgICAgICAgICAgICAgICAgICAgICAgICAgICAgICAgICAgICAgICAgICAgICAgICAgICAgICAgICAgICAgICAgICAgICAgICAmI3hhOyAgICAgICAgICAgICAgICAgICAgICAgICAgICAgICAgICAgICAgICAgICAgICAgICAgICAgICAgICAgICAgICAgICAgICAgICAgICAgICAgICAgICAgICAgICAgICAgICAgICAmI3hhOyAgICAgICAgICAgICAgICAgICAgICAgICAgICAgICAgICAgICAgICAgICAgICAgICAgICAgICAgICAgICAgICAgICAgICAgICAgICAgICAgICAgICAgICAgICAgICAgICAgICAmI3hhOyAgICAgICAgICAgICAgICAgICAgICAgICAgICAgICAgICAgICAgICAgICAgICAgICAgICAgICAgICAgICAgICAgICAgICAgICAgICAgICAgICAgICAgICAgICAgICAgICAgICAmI3hhOyAgICAgICAgICAgICAgICAgICAgICAgICAgICAgICAgICAgICAgICAgICAgICAgICAgICAgICAgICAgICAgICAgICAgICAgICAgICAgICAgICAgICAgICAgICAgICAgICAgICAmI3hhOyAgICAgICAgICAgICAgICAgICAgICAgICAgICAgICAgICAgICAgICAgICAgICAgICAgICAgICAgICAgICAgICAgICAgICAgICAgICAgICAgICAgICAgICAgICAgICAgICAgICAmI3hhOyAgICAgICAgICAgICAgICAgICAgICAgICAgICAgICAgICAgICAgICAgICAgICAgICAgICAgICAgICAgICAgICAgICAgICAgICAgICAgICAgICAgICAgICAgICAgICAgICAgICAmI3hhOyAgICAgICAgICAgICAgICAgICAgICAgICAgICAgICAgICAgICAgICAgICAgICAgICAgICAgICAgICAgICAgICAgICAgICAgICAgICAgICAgICAgICAgICAgICAgICAgICAgICAmI3hhOyAgICAgICAgICAgICAgICAgICAgICAgICAgICAgICAgICAgICAgICAgICAgICAgICAgICAgICAgICAgICAgICAgICAgICAgICAgICAgICAgICAgICAgICAgICAgICAgICAgICAmI3hhOyAgICAgICAgICAgICAgICAgICAgICAgICAgICAgICAgICAgICAgICAgICAgICAgICAgICAgICAgICAgICYjeGE7PC9tZXRhZGF0YT4mI3hhOzxwYXRoIGZpbGw9IiNmZmYiIGQ9Ik00MSwzMS40OWEzLjEyLDMuMTIsMCwwLDEtMi0uNzNjLS4yOC0uMjEtLjM2LS4yNy0uNjQtLjI3cy0uMzUuMDYtLjYzLjI3YTMuMTksMy4xOSwwLDAsMS00LjA2LDBjLS4yOS0uMjEtLjM2LS4yNy0uNjQtLjI3cy0uMzUuMDYtLjYzLjI3YTMuMTUsMy4xNSwwLDAsMS0yLC43MywzLjEyLDMuMTIsMCwwLDEtMi0uNzNjLS4yOC0uMjEtLjM2LS4yNy0uNjMtLjI3cy0uMzUuMDYtLjYzLjI3YTMuMTgsMy4xOCwwLDAsMS0yLC43MywzLjEyLDMuMTIsMCwwLDEtMi0uNzNjLS4yOC0uMjEtLjM2LS4yNy0uNjMtLjI3cy0uMzYuMDYtLjYzLjI3YTMuMTgsMy4xOCwwLDAsMS0yLC43MywzLjEyLDMuMTIsMCwwLDEtMi0uNzNjLS4yOC0uMjEtLjM2LS4yNy0uNjQtLjI3cy0uMzUuMDYtLjYzLjI3YTMuMTksMy4xOSwwLDAsMS00LjA2LDBjLS4yOS0uMjEtLjM2LS4yNy0uNjQtLjI3cy0uMzUuMDYtLjYzLjI3YTMuMTksMy4xOSwwLDAsMS00LjA2LDBjLS4yOS0uMjEtLjM2LS4yNy0uNjQtLjI3cy0uMzUuMDYtLjYzLjI3YTMuMTIsMy4xMiwwLDAsMS0yLC43MywzLjEzLDMuMTMsMCwwLDEtMi0uNzNjLS4yOC0uMjEtLjM1LS4yNy0uNjMtLjI3SC41di01SDFhMy4xLDMuMSwwLDAsMSwyLC43NC44NS44NSwwLDAsMCwuNjQuMjYuODQuODQsMCwwLDAsLjYzLS4yNiwzLjEyLDMuMTIsMCwwLDEsMi0uNzQsMy4wNywzLjA3LDAsMCwxLDIsLjc0LjkxLjkxLDAsMCwwLDEuMjcsMEwxMCwyNlYyMy44M0guNXYtNUgxLjg0YzYuMzUsMCw4LjA1LTcuMTUsOC4xNi05LjA3VjguMzNsLjUxLDBoMS44M1Y5LjQ2QTExLDExLDAsMCwwLDE0LDE1LjA1YTgsOCwwLDAsMCw3LjE1LDMuNTcsNy43Niw3Ljc2LDAsMCwwLDctMy43NEE5Ljc3LDkuNzcsMCwwLDAsMjksMTMuMzNIMTMuMTlsLjA4LTEuMThhNi4xLDYuMSwwLDAsMSwzLjIzLTVBMSwxLDAsMCwwLDE3LDYuNDIsNC43Nyw0Ljc3LDAsMCwxLDE5Ljc2LDNhNC44NCw0Ljg0LDAsMCwxLDEuOTEtLjRsLjQ0LDBoLjFhLjg4Ljg4LDAsMCwwLC42Ny0uMjlBNS43Myw1LjczLDAsMCwxLDI3LjA2LjVhNS42Niw1LjY2LDAsMCwxLDUuMTEsMy4xNywxLDEsMCwwLDAsLjY5LjU0QTUuNjUsNS42NSwwLDAsMSwzNC43MSw1YTUuODgsNS44OCwwLDAsMSwyLDcuNzFsLS4zMi42NUgzMy4wOWMuODYsMi4wNSwyLjk0LDUuNDYsNy4yNCw1LjQ2SDQxLjV2NUgzMi4xNlYyNS42YTMuMiwzLjIsMCwwLDEsLjgzLS4xMSwzLjEsMy4xLDAsMCwxLDIsLjc0LjkxLjkxLDAsMCwwLDEuMjcsMCwzLjE3LDMuMTcsMCwwLDEsNC4wNywwYy4yOC4yMS4zNS4yNi42My4yNmguNXY1WiIvPjxwYXRoIGZpbGw9IiNmZmYiIGQ9Ik0yNy4wNiwxYTUuMTcsNS4xNywwLDAsMSw0LjY2LDIuODksMS41MiwxLjUyLDAsMCwwLDEsLjgsNS41LDUuNSwwLDAsMSwxLjY4LjcsNS4zNiw1LjM2LDAsMCwxLDEuODYsNy4wNWwtLjE5LjM5SDMyLjM2Yy4wOC4yMi4xNi40NC4yNS42NywxLjE4LDIuODEsMy41NSw1Ljc5LDcuNzIsNS43OUg0MXY0SDMxLjY2djNBMi40OCwyLjQ4LDAsMCwxLDMzLDI2YTIuNTksMi41OSwwLDAsMSwxLjczLjY0LDEuMzIsMS4zMiwwLDAsMCwuOTQuMzYsMS4zLDEuMywwLDAsMCwuOTMtLjM2LDIuNjcsMi42NywwLDAsMSwzLjQ3LDBBMS4zLDEuMywwLDAsMCw0MSwyN3Y0YTIuNTksMi41OSwwLDAsMS0xLjczLS42MywxLjM3LDEuMzcsMCwwLDAtMS44NywwLDIuNjEsMi42MSwwLDAsMS0xLjczLjYzLDIuNjQsMi42NCwwLDAsMS0xLjc0LS42MywxLjM1LDEuMzUsMCwwLDAtMS44NiwwLDIuNywyLjcsMCwwLDEtMy40NywwLDEuMzEsMS4zMSwwLDAsMC0uOTMtLjM3LDEuMzMsMS4zMywwLDAsMC0uOTQuMzcsMi42OSwyLjY5LDAsMCwxLTMuNDYsMCwxLjM3LDEuMzcsMCwwLDAtMS44NywwLDIuNjksMi42OSwwLDAsMS0zLjQ2LDAsMS4zNywxLjM3LDAsMCwwLTEuODcsMCwyLjYxLDIuNjEsMCwwLDEtMS43My42MywyLjY0LDIuNjQsMCwwLDEtMS43NC0uNjMsMS4yOSwxLjI5LDAsMCwwLS45My0uMzcsMS4zMSwxLjMxLDAsMCwwLS45My4zN0EyLjYxLDIuNjEsMCwwLDEsOSwzMWEyLjY0LDIuNjQsMCwwLDEtMS43NC0uNjNBMS4yOSwxLjI5LDAsMCwwLDYuMzMsMzBhMS4zMSwxLjMxLDAsMCwwLS45My4zN0EyLjYzLDIuNjMsMCwwLDEsMy42NywzMWEyLjY0LDIuNjQsMCwwLDEtMS43NC0uNjNBMS4zMSwxLjMxLDAsMCwwLDEsMzBWMjZhMi41OSwyLjU5LDAsMCwxLDEuNzMuNjQsMS4zMiwxLjMyLDAsMCwwLC45NC4zNiwxLjMyLDEuMzIsMCwwLDAsLjkzLS4zNiwyLjY2LDIuNjYsMCwwLDEsMy40NiwwLDEuMzksMS4zOSwwLDAsMCwxLjg3LDAsNCw0LDAsMCwxLC41Ny0uMzdWMjMuMzNIMXYtNGguODRjNi4yOSwwLDguNS02Ljc5LDguNjYtOS41NFY4LjgzaDB2MGgxLjMzdi42N2ExMS40MiwxMS40MiwwLDAsMCwxLjc3LDUuODYsOC40NSw4LjQ1LDAsMCwwLDcuNTYsMy44LDguMjMsOC4yMywwLDAsMCw3LjQ3LTQsMTAuNjIsMTAuNjIsMCwwLDAsLjgzLTEuNjVjLjA5LS4yMy4xNi0uNDUuMjQtLjY3aC0xNmwwLS42NWE1LjU5LDUuNTksMCwwLDEsMi45NS00LjYyLDEuNSwxLjUsMCwwLDAsLjgtMUE0LjI0LDQuMjQsMCwwLDEsMjAsMy40NWE0LjE1LDQuMTUsMCwwLDEsMS43LS4zNmwuMzksMGguMTVhMS40MSwxLjQxLDAsMCwwLDEtLjQ1QTUuMjEsNS4yMSwwLDAsMSwyNy4wNiwxbTAtMWE2LjI0LDYuMjQsMCwwLDAtNC41NSwyLC40LjQsMCwwLDEtLjMuMTNoLS4wNWwtLjQ5LDBhNS4xMyw1LjEzLDAsMCwwLTIuMTEuNDUsNS4yMiw1LjIyLDAsMCwwLTMsMy43OC41LjUsMCwwLDEtLjI3LjM1QTYuNDksNi40OSwwLDAsMCwxMywxMC45YTguOTEsOC45MSwwLDAsMS0uMTMtMS40NFY3Ljc5SDkuNTFWOS43MmMtLjExLDEuNzUtMS43OSw4LjU3LTcuNjYsOC41N0gwdjZIOS41VjI1LjdsLS4xNy4xM0M5LjExLDI2LDkuMTEsMjYsOSwyNnMtLjExLDAtLjM0LS4xNmEzLjY1LDMuNjUsMCwwLDAtNC42NiwwYy0uMjIuMTYtLjIyLjE2LS4zMy4xNnMtLjEyLDAtLjM0LS4xNkEzLjU4LDMuNTgsMCwwLDAsMSwyNUgwdjZIMWMuMTEsMCwuMTEsMCwuMzMuMTdBMy42MiwzLjYyLDAsMCwwLDMuNjcsMzIsMy42MSwzLjYxLDAsMCwwLDYsMzEuMTZjLjIyLS4xNy4yMi0uMTcuMzMtLjE3cy4xMSwwLC4zMy4xN2EzLjcsMy43LDAsMCwwLDQuNjcsMGMuMjItLjE3LjIyLS4xNy4zMy0uMTdzLjExLDAsLjMzLjE3YTMuNywzLjcsMCwwLDAsNC42NywwYy4yMi0uMTcuMjItLjE3LjMzLS4xN3MuMTEsMCwuMzQuMTdhMy42OSwzLjY5LDAsMCwwLDQuNjYsMGMuMjItLjE3LjIyLS4xNy4zNC0uMTdzLjExLDAsLjMzLjE3YTMuNjksMy42OSwwLDAsMCw0LjY2LDBjLjIzLS4xNy4yMy0uMTcuMzQtLjE3cy4xMSwwLC4zMy4xN2EzLjcsMy43LDAsMCwwLDQuNjcsMGMuMjItLjE3LjIyLS4xNy4zMy0uMTdzLjExLDAsLjMzLjE3YTMuNywzLjcsMCwwLDAsNC42NywwYy4yMi0uMTcuMjItLjE3LjMzLS4xN3MuMTIsMCwuMzQuMTdBMy41OSwzLjU5LDAsMCwwLDQxLDMyaDFWMjZINDFjLS4xMSwwLS4xMSwwLS4zMy0uMTZhMy42NywzLjY3LDAsMCwwLTQuNjcsMGMtLjIyLjE2LS4yMi4xNi0uMzMuMTZzLS4xMSwwLS4zNC0uMTZBMy41OCwzLjU4LDAsMCwwLDMzLDI1bC0uMzMsMHYtLjY4SDQydi02SDQwLjMzYy0zLjU2LDAtNS41LTIuNTQtNi40Ny00LjQ2aDIuODdsLjI3LS41Ni4xOS0uMzlBNi4zMiw2LjMyLDAsMCwwLDMzLDMuNzJhLjUyLjUyLDAsMCwxLS4zNS0uMjhBNi4xOCw2LjE4LDAsMCwwLDI3LjA2LDBaTTEzLjkxLDEzLjgzSDI4LjIzYTguNSw4LjUsMCwwLDEtLjQ0Ljc5LDcuMTcsNy4xNywwLDAsMS02LjYyLDMuNSw3LjUzLDcuNTMsMCwwLDEtNi43My0zLjM1LDguNyw4LjcsMCwwLDEtLjUzLS45NFoiLz48cGF0aCBmaWxsPSIjMmM1OTY3IiBkPSJNMjkuMDcsMTEuNUgyNS43NGEyLjIsMi4yLDAsMCwxLTIuMTUtMi4ySDIyLjI2YTMuNTEsMy41MSwwLDAsMCwzLjQ2LDMuNTNoM0EzLjcsMy43LDAsMCwwLDI5LjA3LDExLjVaIi8+PHBhdGggZmlsbD0iIzJjNTk2NyIgZD0iTTIxLjkxLDExLjVIMTUuMjVhNC4yMiw0LjIyLDAsMCwxLDIuMS0yLjc3LDIuODUsMi44NSwwLDAsMCwxLjQ3LTIsMi45MSwyLjkxLDAsMCwxLDEuNjctMi4xLDIuODUsMi44NSwwLDAsMSwxLjQ0LS4yMywyLjc1LDIuNzUsMCwwLDAsMi4zLS44NywzLjg3LDMuODcsMCwwLDEsNi4zMS45MSwyLjg2LDIuODYsMCwwLDAsMiwxLjUyLDQuMiw0LjIsMCwwLDEsMS4yNi41Miw0LjA4LDQuMDgsMCwwLDEsMS41Niw1SDMzYTQuNzYsNC43NiwwLDAsMCwuNTEsMS4zM2gyLjYxbC4xOS0uMzlhNS4zNiw1LjM2LDAsMCwwLTEuODYtNyw1LjUsNS41LDAsMCwwLTEuNjgtLjcsMS41MiwxLjUyLDAsMCwxLTEtLjgsNS4xOSw1LjE5LDAsMCwwLTguNDctMS4yMiwxLjQ0LDEuNDQsMCwwLDEtMS4xOS40NEE0LjE4LDQuMTgsMCwwLDAsMjAsMy40NWE0LjI0LDQuMjQsMCwwLDAtMi40NSwzLjA2LDEuNSwxLjUsMCwwLDEtLjgsMSw1LjU5LDUuNTksMCwwLDAtMi45NSw0LjYybDAsLjY1SDIzQTQuNjIsNC42MiwwLDAsMSwyMS45MSwxMS41WiIvPjxwYXRoIGZpbGw9IiMyYzU5NjciIGQ9Ik0xLDIzLjMzaDkuNXYyLjkzYTQsNCwwLDAsMC0uNTcuMzcsMS4zOSwxLjM5LDAsMCwxLTEuODcsMCwyLjY2LDIuNjYsMCwwLDAtMy40NiwwLDEuMzIsMS4zMiwwLDAsMS0uOTMuMzYsMS4zMiwxLjMyLDAsMCwxLS45NC0uMzZBMi41OSwyLjU5LDAsMCwwLDEsMjZ2MS4zNGExLjM0LDEuMzQsMCwwLDEsLjkzLjM2LDIuNjcsMi42NywwLDAsMCwzLjQ3LDAsMS4zNCwxLjM0LDAsMCwxLC45My0uMzYsMS4zMiwxLjMyLDAsMCwxLC45My4zNkEyLjY0LDIuNjQsMCwwLDAsOSwyOC4zM2EyLjYxLDIuNjEsMCwwLDAsMS43My0uNjQsMS4zNCwxLjM0LDAsMCwxLC45My0uMzYsMS4zMiwxLjMyLDAsMCwxLC45My4zNiwyLjY0LDIuNjQsMCwwLDAsMS43NC42NCwyLjYxLDIuNjEsMCwwLDAsMS43My0uNjQsMS4zOSwxLjM5LDAsMCwxLDEuODcsMCwyLjY2LDIuNjYsMCwwLDAsMy40NiwwLDEuMzksMS4zOSwwLDAsMSwxLjg3LDAsMi42NiwyLjY2LDAsMCwwLDMuNDYsMCwxLjM3LDEuMzcsMCwwLDEsLjk0LS4zNiwxLjM0LDEuMzQsMCwwLDEsLjkzLjM2LDIuNjEsMi42MSwwLDAsMCwxLjczLjY0LDIuNjQsMi42NCwwLDAsMCwxLjc0LS42NCwxLjM4LDEuMzgsMCwwLDEsMS44NiwwLDIuNjQsMi42NCwwLDAsMCwxLjc0LjY0LDIuNjEsMi42MSwwLDAsMCwxLjczLS42NCwxLjM5LDEuMzksMCwwLDEsMS44NywwLDIuNTksMi41OSwwLDAsMCwxLjczLjY0VjI3YTEuMywxLjMsMCwwLDEtLjkzLS4zNiwyLjY3LDIuNjcsMCwwLDAtMy40NywwLDEuMywxLjMsMCwwLDEtLjkzLjM2LDEuMzIsMS4zMiwwLDAsMS0uOTQtLjM2QTIuNTksMi41OSwwLDAsMCwzMywyNmEyLjQ4LDIuNDgsMCwwLDAtMS4zMy4zNnYtM0g0MVYyMkgxWk0zMC4zMywyN2gwYTEuMzIsMS4zMiwwLDAsMS0uOTMtLjM2QTIuNjEsMi42MSwwLDAsMCwyNy42NiwyNmEyLjY0LDIuNjQsMCwwLDAtMS43NC42NEExLjI4LDEuMjgsMCwwLDEsMjUsMjdhMS4zLDEuMywwLDAsMS0uOTMtLjM2LDIuNjcsMi42NywwLDAsMC0zLjQ3LDAsMS4zOCwxLjM4LDAsMCwxLTEuODYsMCwyLjY3LDIuNjcsMCwwLDAtMy40NywwLDEuMywxLjMsMCwwLDEtLjkzLjM2LDEuMzIsMS4zMiwwLDAsMS0uOTQtLjM2QTIuNjcsMi42NywwLDAsMCwxMS44MywyNlYyMy4zM2gxOC41WiIvPjxwYXRoIGZpbGw9IiMyYzU5NjciIGQ9Ik00MC4zMywxOS4yOWMtNC4xNywwLTYuNTQtMy03LjcyLTUuNzlhMTEuNTgsMTEuNTgsMCwwLDEtLjk0LTRWOC43OUgzMC4zNHYwaDB2Ljk0YTEyLjI1LDEyLjI1LDAsMCwxLS44NiwzLjczLDEwLjIsMTAuMiwwLDAsMS0uODMsMS42NSw4LjIzLDguMjMsMCwwLDEtNy40Nyw0LDguNDUsOC40NSwwLDAsMS03LjU2LTMuOCwxMS40MiwxMS40MiwwLDAsMS0xLjc3LTUuODZWOC43OUgxMC41MXYwaDB2LjkyYy0uMTYsMi43NS0yLjM3LDkuNTQtOC42Niw5LjU0SDF2MS4zN0g0MVYxOS4yOVptLTQuNjgsMGgtNFYxNC42NGExNC41OSwxNC41OSwwLDAsMCwuODIsMS40OUExMC4zNSwxMC4zNSwwLDAsMCwzNS42NSwxOS4zM1ptLTUuODctMy40OGMuMi0uMzMuMzgtLjY3LjU1LTF2NC40OEgyNi4wOUE5LjUzLDkuNTMsMCwwLDAsMjkuNzgsMTUuODVabS0xNy4yOS4yYTkuMzcsOS4zNywwLDAsMCwzLjYyLDMuMjhIMTEuODNWMTQuODlBMTIuMjcsMTIuMjcsMCwwLDAsMTIuNDksMTYuMDVabS0yLjguMDhhMTMsMTMsMCwwLDAsLjgxLTEuNDV2NC42NWgtNEExMC4xMywxMC4xMywwLDAsMCw5LjY5LDE2LjEzWiIvPjxwYXRoIGZpbGw9IiMyYzU5NjciIGQ9Ik0zOC4zMiwyOC42NmEyLjY5LDIuNjksMCwwLDAtMS43My42MywxLjMxLDEuMzEsMCwwLDEtLjkzLjM3LDEuMzMsMS4zMywwLDAsMS0uOTQtLjM3LDIuNjksMi42OSwwLDAsMC0zLjQ2LDAsMS4zNywxLjM3LDAsMCwxLTEuODcsMCwyLjY3LDIuNjcsMCwwLDAtMS43My0uNjMsMi43LDIuNywwLDAsMC0xLjc0LjYzLDEuMjksMS4yOSwwLDAsMS0uOTMuMzcsMS4zMSwxLjMxLDAsMCwxLS45My0uMzcsMi43LDIuNywwLDAsMC0zLjQ3LDAsMS4zNSwxLjM1LDAsMCwxLTEuODYsMCwyLjcsMi43LDAsMCwwLTMuNDcsMCwxLjMxLDEuMzEsMCwwLDEtLjkzLjM3LDEuMzMsMS4zMywwLDAsMS0uOTQtLjM3LDIuNjksMi42OSwwLDAsMC0zLjQ2LDAsMS4zNywxLjM3LDAsMCwxLTEuODcsMCwyLjY5LDIuNjksMCwwLDAtMy40NiwwLDEuMzcsMS4zNywwLDAsMS0xLjg3LDBBMi42NCwyLjY0LDAsMCwwLDEsMjguNjZWMzBhMS4zMSwxLjMxLDAsMCwxLC45My4zN0EyLjY0LDIuNjQsMCwwLDAsMy42NywzMWEyLjYzLDIuNjMsMCwwLDAsMS43My0uNjNBMS4zMSwxLjMxLDAsMCwxLDYuMzMsMzBhMS4yOSwxLjI5LDAsMCwxLC45My4zN0EyLjY0LDIuNjQsMCwwLDAsOSwzMWEyLjYxLDIuNjEsMCwwLDAsMS43My0uNjMsMS4zMSwxLjMxLDAsMCwxLC45My0uMzcsMS4yOSwxLjI5LDAsMCwxLC45My4zNywyLjY0LDIuNjQsMCwwLDAsMS43NC42MywyLjYxLDIuNjEsMCwwLDAsMS43My0uNjMsMS4zNywxLjM3LDAsMCwxLDEuODcsMCwyLjY5LDIuNjksMCwwLDAsMy40NiwwLDEuMzcsMS4zNywwLDAsMSwxLjg3LDAsMi42OSwyLjY5LDAsMCwwLDMuNDYsMCwxLjMzLDEuMzMsMCwwLDEsLjk0LS4zNywxLjMxLDEuMzEsMCwwLDEsLjkzLjM3LDIuNjEsMi42MSwwLDAsMCwxLjczLjYzLDIuNjQsMi42NCwwLDAsMCwxLjc0LS42MywxLjM1LDEuMzUsMCwwLDEsMS44NiwwLDIuNjQsMi42NCwwLDAsMCwxLjc0LjYzLDIuNjEsMi42MSwwLDAsMCwxLjczLS42MywxLjM3LDEuMzcsMCwwLDEsMS44NywwQTIuNTksMi41OSwwLDAsMCw0MSwzMVYyOS42NmExLjMxLDEuMzEsMCwwLDEtLjkzLS4zN0EyLjcsMi43LDAsMCwwLDM4LjMyLDI4LjY2WiIvPjwvc3ZnPg==;" vertex="1" parent="1">
          <mxGeometry x="320.63" y="110" width="78.75" height="60" as="geometry" />
        </mxCell>
        <mxCell id="LbItfmBYyUvVAQTM5q1b-24" style="rounded=0;orthogonalLoop=1;jettySize=auto;html=1;exitX=1;exitY=0.5;exitDx=0;exitDy=0;entryX=0;entryY=0.75;entryDx=0;entryDy=0;" edge="1" parent="1" source="LbItfmBYyUvVAQTM5q1b-10" target="LbItfmBYyUvVAQTM5q1b-13">
          <mxGeometry relative="1" as="geometry" />
        </mxCell>
        <mxCell id="LbItfmBYyUvVAQTM5q1b-10" value="" style="shape=image;verticalLabelPosition=bottom;labelBackgroundColor=default;verticalAlign=top;aspect=fixed;imageAspect=0;editableCssRules=.*;image=data:image/svg+xml,PHN2ZyB4bWxuczp4bGluaz0iaHR0cDovL3d3dy53My5vcmcvMTk5OS94bGluayIgeG1sbnM9Imh0dHA6Ly93d3cudzMub3JnLzIwMDAvc3ZnIiB4bWw6c3BhY2U9InByZXNlcnZlIiBzdHlsZT0iZW5hYmxlLWJhY2tncm91bmQ6bmV3IDAgMCA0MiA0MjsiIHZpZXdCb3g9IjAgMCA0MiA0MiIgeT0iMHB4IiB4PSIwcHgiIGlkPSJMYXllcl8xIiB2ZXJzaW9uPSIxLjEiPiYjeGE7PG1ldGFkYXRhPiYjeGE7JiN4YTsgICAmI3hhOyAgICAgICYjeGE7ICAgICAgICAgMjAyMi0xMC0yMVQxMzo0NToyOC0wNTowMCYjeGE7ICAgICAgICAgeG1wLmlpZDoyM2M5ZmVlNC0xYzViLTQyMzAtOWRkZi05ZDUwM2RjODQ0MDUmI3hhOyAgICAgICAgIHhtcC5kaWQ6Mzc3MDJiNTMtZWFmMS00YWViLTk3NGYtNzM2ZmU3MzY1ZWY4JiN4YTsgICAgICAgICB4bXAuZGlkOjM3NzAyYjUzLWVhZjEtNGFlYi05NzRmLTczNmZlNzM2NWVmOCYjeGE7ICAgICAgICAgJiN4YTsgICAgICAgICAgICAmI3hhOyAgICAgICAgICAgICAgICYjeGE7ICAgICAgICAgICAgICAgICAgJiN4YTsgICAgICAgICAgICAgICAgICAgICBzYXZlZCYjeGE7ICAgICAgICAgICAgICAgICAgICAgeG1wLmlpZDozNzcwMmI1My1lYWYxLTRhZWItOTc0Zi03MzZmZTczNjVlZjgmI3hhOyAgICAgICAgICAgICAgICAgICAgIDIwMjEtMDQtMjdUMTM6NDE6MjktMDU6MDAmI3hhOyAgICAgICAgICAgICAgICAgICAgIEFkb2JlIEJyaWRnZSAyMDIxIChNYWNpbnRvc2gpJiN4YTsgICAgICAgICAgICAgICAgICAgICAvbWV0YWRhdGEmI3hhOyAgICAgICAgICAgICAgICAgICYjeGE7ICAgICAgICAgICAgICAgJiN4YTsgICAgICAgICAgICAgICAmI3hhOyAgICAgICAgICAgICAgICAgICYjeGE7ICAgICAgICAgICAgICAgICAgICAgc2F2ZWQmI3hhOyAgICAgICAgICAgICAgICAgICAgIHhtcC5paWQ6MjNjOWZlZTQtMWM1Yi00MjMwLTlkZGYtOWQ1MDNkYzg0NDA1JiN4YTsgICAgICAgICAgICAgICAgICAgICAyMDIyLTEwLTIxVDEzOjQ1OjI4LTA1OjAwJiN4YTsgICAgICAgICAgICAgICAgICAgICBBZG9iZSBCcmlkZ2UgMjAyMSAoTWFjaW50b3NoKSYjeGE7ICAgICAgICAgICAgICAgICAgICAgL21ldGFkYXRhJiN4YTsgICAgICAgICAgICAgICAgICAmI3hhOyAgICAgICAgICAgICAgICYjeGE7ICAgICAgICAgICAgJiN4YTsgICAgICAgICAmI3hhOyAgICAgICAgIFRydWUmI3hhOyAgICAgICAgICYjeGE7ICAgICAgICAgICAgJiN4YTsgICAgICAgICAgICAgICBEYXRhIE1hbmFnZW1lbnQmI3hhOyAgICAgICAgICAgICAgIERhdGEmI3hhOyAgICAgICAgICAgICAgIEludGVncmF0aW9uJiN4YTsgICAgICAgICAgICAgICBESVMmI3hhOyAgICAgICAgICAgICAgIGljb24mI3hhOyAgICAgICAgICAgICYjeGE7ICAgICAgICAgJiN4YTsgICAgICAgICAmI3hhOyAgICAgICAgICAgICYjeGE7ICAgICAgICAgICAgICAgT3JhY2xlIEFsbCBSaWdodHMgUmVzZXJ2ZWQmI3hhOyAgICAgICAgICAgICYjeGE7ICAgICAgICAgJiN4YTsgICAgICAgICAmI3hhOyAgICAgICAgICAgICYjeGE7ICAgICAgICAgICAgICAgRGF0YSBNYW5hZ2VtZW50JiN4YTsgICAgICAgICAgICAgICBEYXRhJiN4YTsgICAgICAgICAgICAgICBJbnRlZ3JhdGlvbiYjeGE7ICAgICAgICAgICAgICAgU3lzdGVtJiN4YTsgICAgICAgICAgICAgICBpY29uJiN4YTsgICAgICAgICAgICAmI3hhOyAgICAgICAgICYjeGE7ICAgICAgJiN4YTsgICAmI3hhOyYjeGE7ICAgICAgICAgICAgICAgICAgICAgICAgICAgICAgICAgICAgICAgICAgICAgICAgICAgICAgICAgICAgICAgICAgICAgICAgICAgICAgICAgICAgICAgICAgICAgICAgICAgICYjeGE7ICAgICAgICAgICAgICAgICAgICAgICAgICAgICAgICAgICAgICAgICAgICAgICAgICAgICAgICAgICAgICAgICAgICAgICAgICAgICAgICAgICAgICAgICAgICAgICAgICAgICYjeGE7ICAgICAgICAgICAgICAgICAgICAgICAgICAgICAgICAgICAgICAgICAgICAgICAgICAgICAgICAgICAgICAgICAgICAgICAgICAgICAgICAgICAgICAgICAgICAgICAgICAgICYjeGE7ICAgICAgICAgICAgICAgICAgICAgICAgICAgICAgICAgICAgICAgICAgICAgICAgICAgICAgICAgICAgICAgICAgICAgICAgICAgICAgICAgICAgICAgICAgICAgICAgICAgICYjeGE7ICAgICAgICAgICAgICAgICAgICAgICAgICAgICAgICAgICAgICAgICAgICAgICAgICAgICAgICAgICAgICAgICAgICAgICAgICAgICAgICAgICAgICAgICAgICAgICAgICAgICYjeGE7ICAgICAgICAgICAgICAgICAgICAgICAgICAgICAgICAgICAgICAgICAgICAgICAgICAgICAgICAgICAgICAgICAgICAgICAgICAgICAgICAgICAgICAgICAgICAgICAgICAgICYjeGE7ICAgICAgICAgICAgICAgICAgICAgICAgICAgICAgICAgICAgICAgICAgICAgICAgICAgICAgICAgICAgICAgICAgICAgICAgICAgICAgICAgICAgICAgICAgICAgICAgICAgICYjeGE7ICAgJiN4YTs8L21ldGFkYXRhPiYjeGE7PHN0eWxlIHR5cGU9InRleHQvY3NzIj4mI3hhOwkuc3Qwe2ZpbGw6I0ZGRkZGRjt9JiN4YTsJLnN0MXtmaWxsOiMyQzU5Njc7fSYjeGE7PC9zdHlsZT4mI3hhOzxnPiYjeGE7CTxnPiYjeGE7CQk8Zz4mI3hhOwkJCTxwYXRoIGQ9Ik0xNS43Niw0MS41bC0wLjU1LTQuOTdjLTAuMzctMC4xNC0wLjczLTAuMjktMS4wOS0wLjQ1bC0zLjksMy4xMkwyLjgsMzEuNzlsMy4xMi0zLjkxJiMxMDsmIzk7JiM5OyYjOTsmIzk7Yy0wLjE2LTAuMzYtMC4zMS0wLjcyLTAuNDUtMS4wOUwwLjUsMjYuMjRWMTUuNzZsNC45Ny0wLjU1YzAuMTQtMC4zNywwLjI5LTAuNzMsMC40NS0xLjA5TDIuOCwxMC4yMWw3LjQxLTcuNDFsMy45LDMuMTImIzEwOyYjOTsmIzk7JiM5OyYjOTtjMC4zNi0wLjE2LDAuNzItMC4zMiwxLjA5LTAuNDVsMC41NS00Ljk3aDEwLjQ4bDAuNTUsNC45N2MwLjM3LDAuMTQsMC43MywwLjI5LDEuMDksMC40NWwzLjktMy4xMmw3LjQxLDcuNDFsLTMuMTIsMy45MSYjMTA7JiM5OyYjOTsmIzk7JiM5O2MwLjE2LDAuMzYsMC4zMSwwLjcyLDAuNDUsMS4wOWw0Ljk3LDAuNTV2MTAuNDhsLTQuOTcsMC41NWMtMC4xNCwwLjM3LTAuMjksMC43My0wLjQ1LDEuMDlsMy4xMiwzLjkxbC03LjQxLDcuNDFsLTMuOS0zLjEyJiMxMDsmIzk7JiM5OyYjOTsmIzk7Yy0wLjM2LDAuMTYtMC43MiwwLjMyLTEuMDksMC40NWwtMC41NSw0Ljk3SDE1Ljc2eiIgY2xhc3M9InN0MCIvPiYjeGE7CQkJPHBhdGggZD0iTTI1Ljc5LDFsMC41NCw0LjgzYzAuNTUsMC4xOSwxLjEsMC40MiwxLjYyLDAuNjdsMy44LTMuMDRsNi43OCw2Ljc4bC0zLjA0LDMuOCYjMTA7JiM5OyYjOTsmIzk7JiM5O2MwLjI1LDAuNTMsMC40OCwxLjA3LDAuNjcsMS42Mkw0MSwxNi4yMXY5LjU5bC00LjgzLDAuNTRjLTAuMTksMC41NS0wLjQyLDEuMS0wLjY3LDEuNjJsMy4wNCwzLjhsLTYuNzgsNi43OGwtMy44LTMuMDQmIzEwOyYjOTsmIzk7JiM5OyYjOTtjLTAuNTMsMC4yNS0xLjA3LDAuNDgtMS42MiwwLjY3TDI1Ljc5LDQxaC05LjU5bC0wLjU0LTQuODNjLTAuNTUtMC4xOS0xLjEtMC40Mi0xLjYyLTAuNjdsLTMuOCwzLjA0bC02Ljc4LTYuNzhsMy4wNC0zLjgmIzEwOyYjOTsmIzk7JiM5OyYjOTtjLTAuMjUtMC41My0wLjQ4LTEuMDctMC42Ny0xLjYyTDEsMjUuNzl2LTkuNTlsNC44My0wLjU0YzAuMTktMC41NSwwLjQyLTEuMSwwLjY3LTEuNjJsLTMuMDQtMy44bDYuNzgtNi43OGwzLjgsMy4wNCYjMTA7JiM5OyYjOTsmIzk7JiM5O2MwLjUzLTAuMjUsMS4wNy0wLjQ4LDEuNjItMC42N0wxNi4yMSwxSDI1Ljc5IE0yNi42OSwwaC0wLjloLTkuNTloLTAuOWwtMC4xLDAuODlsLTAuNDcsNC4yMmMtMC4xOSwwLjA3LTAuMzcsMC4xNS0wLjU1LDAuMjMmIzEwOyYjOTsmIzk7JiM5OyYjOTtsLTMuMzItMi42NWwtMC43LTAuNTZMOS41NCwyLjc2TDIuNzYsOS41NGwtMC42MywwLjYzbDAuNTYsMC43bDIuNjUsMy4zMmMtMC4wOCwwLjE4LTAuMTYsMC4zNy0wLjIzLDAuNTVsLTQuMjIsMC40N0wwLDE1LjMxJiMxMDsmIzk7JiM5OyYjOTsmIzk7djAuOXY5LjU5djAuOWwwLjg5LDAuMWw0LjIyLDAuNDdjMC4wNywwLjE5LDAuMTUsMC4zNywwLjIzLDAuNTVsLTIuNjUsMy4zMmwtMC41NiwwLjdsMC42MywwLjYzbDYuNzgsNi43OGwwLjYzLDAuNjNsMC43LTAuNTYmIzEwOyYjOTsmIzk7JiM5OyYjOTtsMy4zMi0yLjY1YzAuMTgsMC4wOCwwLjM3LDAuMTYsMC41NSwwLjIzbDAuNDcsNC4yMmwwLjEsMC44OWgwLjloOS41OWgwLjlsMC4xLTAuODlsMC40Ny00LjIyYzAuMTktMC4wNywwLjM3LTAuMTUsMC41NS0wLjIzJiMxMDsmIzk7JiM5OyYjOTsmIzk7bDMuMzIsMi42NWwwLjcsMC41NmwwLjYzLTAuNjNsNi43OC02Ljc4bDAuNjMtMC42M2wtMC41Ni0wLjdsLTIuNjUtMy4zMmMwLjA4LTAuMTgsMC4xNi0wLjM3LDAuMjMtMC41NWw0LjIyLTAuNDdsMC44OS0wLjF2LTAuOSYjMTA7JiM5OyYjOTsmIzk7JiM5O3YtOS41OXYtMC45bC0wLjg5LTAuMWwtNC4yMi0wLjQ3Yy0wLjA3LTAuMTktMC4xNS0wLjM3LTAuMjMtMC41NWwyLjY1LTMuMzJsMC41Ni0wLjdsLTAuNjMtMC42M2wtNi43OC02Ljc4bC0wLjYzLTAuNjMmIzEwOyYjOTsmIzk7JiM5OyYjOTtsLTAuNywwLjU2bC0zLjMyLDIuNjVjLTAuMTgtMC4wOC0wLjM3LTAuMTYtMC41NS0wLjIzbC0wLjQ3LTQuMjJMMjYuNjksMEwyNi42OSwweiIgY2xhc3M9InN0MCIvPiYjeGE7CQk8L2c+JiN4YTsJCTxnPiYjeGE7CQkJPHBhdGggZD0iTTQxLDI1Ljc5di05LjU5bC00LjgzLTAuNTRjLTAuMTktMC41NS0wLjQyLTEuMS0wLjY3LTEuNjJsMy4wNC0zLjhsLTYuNzgtNi43OGwtMy44LDMuMDQmIzEwOyYjOTsmIzk7JiM5OyYjOTtjLTAuNTMtMC4yNS0xLjA3LTAuNDgtMS42Mi0wLjY3TDI1Ljc5LDFoLTkuNTlsLTAuNTQsNC44M2MtMC41NSwwLjE5LTEuMSwwLjQyLTEuNjIsMC42N2wtMy44LTMuMDRsLTYuNzgsNi43OGwzLjA0LDMuOCYjMTA7JiM5OyYjOTsmIzk7JiM5O2MtMC4yNSwwLjUzLTAuNDgsMS4wNy0wLjY3LDEuNjJMMSwxNi4yMXY5LjU5bDQuODMsMC41NGMwLjE5LDAuNTUsMC40MiwxLjEsMC42NywxLjYybC0zLjA0LDMuOGw2Ljc4LDYuNzhsMy44LTMuMDQmIzEwOyYjOTsmIzk7JiM5OyYjOTtjMC41MywwLjI1LDEuMDcsMC40OCwxLjYyLDAuNjdMMTYuMjEsNDFoOS41OWwwLjU0LTQuODNjMC41NS0wLjE5LDEuMS0wLjQyLDEuNjItMC42N2wzLjgsMy4wNGw2Ljc4LTYuNzhsLTMuMDQtMy44JiMxMDsmIzk7JiM5OyYjOTsmIzk7YzAuMjUtMC41MywwLjQ4LTEuMDcsMC42Ny0xLjYyTDQxLDI1Ljc5eiBNMzYuNTUsMzEuNjRsLTQuOSw0LjlsLTMuNTEtMi44MWwtMC40MywwLjIyYy0wLjczLDAuMzgtMS41LDAuNy0yLjI4LDAuOTVsLTAuNDYsMC4xNSYjMTA7JiM5OyYjOTsmIzk7JiM5O2wtMC41LDQuNDZoLTYuOTNsLTAuNS00LjQ2bC0wLjQ2LTAuMTVjLTAuNzktMC4yNS0xLjU1LTAuNTctMi4yOC0wLjk1bC0wLjQzLTAuMjJsLTMuNTEsMi44MWwtNC45LTQuOWwyLjgxLTMuNTFsLTAuMjItMC40MyYjMTA7JiM5OyYjOTsmIzk7JiM5O2MtMC4zOC0wLjczLTAuNy0xLjUtMC45NS0yLjI4bC0wLjE1LTAuNDZsLTQuNDYtMC41di02LjkzbDQuNDYtMC41bDAuMTUtMC40NmMwLjI1LTAuNzksMC41Ny0xLjU1LDAuOTUtMi4yOGwwLjIyLTAuNDMmIzEwOyYjOTsmIzk7JiM5OyYjOTtsLTIuODEtMy41MWw0LjktNC45bDMuNTEsMi44MWwwLjQzLTAuMjJjMC43My0wLjM4LDEuNS0wLjcsMi4yOC0wLjk1bDAuNDYtMC4xNWwwLjUtNC40Nmg2LjkzbDAuNSw0LjQ2bDAuNDYsMC4xNSYjMTA7JiM5OyYjOTsmIzk7JiM5O2MwLjc5LDAuMjUsMS41NSwwLjU3LDIuMjgsMC45NWwwLjQzLDAuMjJsMy41MS0yLjgxbDQuOSw0LjlsLTIuODEsMy41MWwwLjIyLDAuNDNjMC4zOCwwLjczLDAuNywxLjUsMC45NSwyLjI4bDAuMTUsMC40NiYjMTA7JiM5OyYjOTsmIzk7JiM5O2w0LjQ2LDAuNXY2LjkzbC00LjQ2LDAuNWwtMC4xNSwwLjQ2Yy0wLjI1LDAuNzktMC41NywxLjU1LTAuOTUsMi4yOGwtMC4yMiwwLjQzTDM2LjU1LDMxLjY0eiIgY2xhc3M9InN0MSIvPiYjeGE7CQkJPHJlY3QgaGVpZ2h0PSIzLjciIHdpZHRoPSIzLjciIGNsYXNzPSJzdDEiIHk9IjE2Ljc0IiB4PSIyNS4yNiIvPiYjeGE7CQkJPHJlY3QgaGVpZ2h0PSIzLjciIHdpZHRoPSIzLjciIGNsYXNzPSJzdDEiIHk9IjE2Ljc0IiB4PSIzMC4wNyIvPiYjeGE7CQkJPHJlY3QgaGVpZ2h0PSIzLjciIHdpZHRoPSIzLjciIGNsYXNzPSJzdDEiIHk9IjIxLjU2IiB4PSIyNS4yNiIvPiYjeGE7CQkJPHJlY3QgaGVpZ2h0PSIzLjciIHdpZHRoPSIzLjciIGNsYXNzPSJzdDEiIHk9IjIxLjU2IiB4PSIzMC4wNyIvPiYjeGE7CQkJPHBvbHlnb24gcG9pbnRzPSIxNi43NCwxNi43NCAyMSwyMSAxNi43NCwyNS4yNiAyMC4wNywyNS4yNiAyNC4zMywyMSAyMC4wOCwxNi43NCIgY2xhc3M9InN0MSIvPiYjeGE7CQkJPGNpcmNsZSByPSIxLjQ4IiBjeT0iMTguNTkiIGN4PSI4Ljk2IiBjbGFzcz0ic3QxIi8+JiN4YTsJCQk8Y2lyY2xlIHI9IjEuMiIgY3k9IjI0LjA2IiBjeD0iMTIuOTQiIGNsYXNzPSJzdDEiLz4mI3hhOwkJCTxjaXJjbGUgcj0iMS44NSIgY3k9IjIzLjA0IiBjeD0iOC43OCIgY2xhc3M9InN0MSIvPiYjeGE7CQkJPGNpcmNsZSByPSIyLjUiIGN5PSIxOS4yNCIgY3g9IjE0LjA2IiBjbGFzcz0ic3QxIi8+JiN4YTsJCTwvZz4mI3hhOwk8L2c+JiN4YTs8L2c+JiN4YTs8L3N2Zz4=;" vertex="1" parent="1">
          <mxGeometry x="330.01" y="240" width="60" height="60" as="geometry" />
        </mxCell>
        <mxCell id="LbItfmBYyUvVAQTM5q1b-11" value="&lt;b&gt;OCI GoldenGate&lt;/b&gt;&lt;div&gt;Near real-time replication&lt;/div&gt;" style="text;html=1;align=center;verticalAlign=middle;whiteSpace=wrap;rounded=0;" vertex="1" parent="1">
          <mxGeometry x="280" y="175" width="160" height="30" as="geometry" />
        </mxCell>
        <mxCell id="LbItfmBYyUvVAQTM5q1b-12" value="&lt;b&gt;Data Transforms&lt;/b&gt;&lt;div&gt;Batch data integration&lt;/div&gt;" style="text;html=1;align=center;verticalAlign=middle;whiteSpace=wrap;rounded=0;" vertex="1" parent="1">
          <mxGeometry x="280" y="310" width="160" height="30" as="geometry" />
        </mxCell>
        <mxCell id="LbItfmBYyUvVAQTM5q1b-25" style="edgeStyle=orthogonalEdgeStyle;rounded=0;orthogonalLoop=1;jettySize=auto;html=1;exitX=1;exitY=0.5;exitDx=0;exitDy=0;entryX=0;entryY=0.5;entryDx=0;entryDy=0;fontSize=14;" edge="1" parent="1" source="LbItfmBYyUvVAQTM5q1b-13" target="LbItfmBYyUvVAQTM5q1b-14">
          <mxGeometry relative="1" as="geometry" />
        </mxCell>
        <mxCell id="LbItfmBYyUvVAQTM5q1b-13" value="Bronze&lt;div&gt;Layer&lt;/div&gt;" style="rounded=0;whiteSpace=wrap;html=1;fontSize=14;" vertex="1" parent="1">
          <mxGeometry x="530" y="160" width="80" height="100" as="geometry" />
        </mxCell>
        <mxCell id="LbItfmBYyUvVAQTM5q1b-26" style="edgeStyle=orthogonalEdgeStyle;rounded=0;orthogonalLoop=1;jettySize=auto;html=1;exitX=1;exitY=0.5;exitDx=0;exitDy=0;entryX=0;entryY=0.5;entryDx=0;entryDy=0;fontSize=14;" edge="1" parent="1" source="LbItfmBYyUvVAQTM5q1b-14" target="LbItfmBYyUvVAQTM5q1b-15">
          <mxGeometry relative="1" as="geometry" />
        </mxCell>
        <mxCell id="LbItfmBYyUvVAQTM5q1b-14" value="Silver&lt;div&gt;Layer&lt;/div&gt;" style="rounded=0;whiteSpace=wrap;html=1;fontSize=14;" vertex="1" parent="1">
          <mxGeometry x="655" y="160" width="80" height="100" as="geometry" />
        </mxCell>
        <mxCell id="LbItfmBYyUvVAQTM5q1b-15" value="Gold&lt;div&gt;Layer&lt;/div&gt;" style="rounded=0;whiteSpace=wrap;html=1;fontSize=14;" vertex="1" parent="1">
          <mxGeometry x="780" y="160" width="80" height="100" as="geometry" />
        </mxCell>
        <mxCell id="LbItfmBYyUvVAQTM5q1b-16" value="" style="shape=image;verticalLabelPosition=bottom;labelBackgroundColor=default;verticalAlign=top;aspect=fixed;imageAspect=0;editableCssRules=.*;image=data:image/svg+xml,PHN2ZyB4bWxuczp4bGluaz0iaHR0cDovL3d3dy53My5vcmcvMTk5OS94bGluayIgeG1sbnM9Imh0dHA6Ly93d3cudzMub3JnLzIwMDAvc3ZnIiB4bWw6c3BhY2U9InByZXNlcnZlIiBzdHlsZT0iZW5hYmxlLWJhY2tncm91bmQ6bmV3IDAgMCA0OC40NyA0Mi4wMjsiIHZpZXdCb3g9IjAgMCA0OC40NyA0Mi4wMiIgeT0iMHB4IiB4PSIwcHgiIGlkPSJMYXllcl8xIiB2ZXJzaW9uPSIxLjEiPiYjeGE7PG1ldGFkYXRhPiYjeGE7JiN4YTsgICAmI3hhOyAgICAgICYjeGE7ICAgICAgICAgMjAyMi0wMy0wNFQxNjoxODowMi0wNjowMCYjeGE7ICAgICAgICAgeG1wLmlpZDphNmVlNzM0Ni03ZWNmLTQyNjItODczYy01MzIxYjBkYTAzZjMmI3hhOyAgICAgICAgIHhtcC5kaWQ6MmQ5YmYzNDgtODYzYy00ZDkzLWFjMzAtYTgxMDcyMDE0NDJhJiN4YTsgICAgICAgICB4bXAuZGlkOjJkOWJmMzQ4LTg2M2MtNGQ5My1hYzMwLWE4MTA3MjAxNDQyYSYjeGE7ICAgICAgICAgJiN4YTsgICAgICAgICAgICAmI3hhOyAgICAgICAgICAgICAgICYjeGE7ICAgICAgICAgICAgICAgICAgJiN4YTsgICAgICAgICAgICAgICAgICAgICBzYXZlZCYjeGE7ICAgICAgICAgICAgICAgICAgICAgeG1wLmlpZDoyZDliZjM0OC04NjNjLTRkOTMtYWMzMC1hODEwNzIwMTQ0MmEmI3hhOyAgICAgICAgICAgICAgICAgICAgIDIwMjEtMDQtMjdUMTM6NDE6MjgtMDU6MDAmI3hhOyAgICAgICAgICAgICAgICAgICAgIEFkb2JlIEJyaWRnZSAyMDIxIChNYWNpbnRvc2gpJiN4YTsgICAgICAgICAgICAgICAgICAgICAvbWV0YWRhdGEmI3hhOyAgICAgICAgICAgICAgICAgICYjeGE7ICAgICAgICAgICAgICAgJiN4YTsgICAgICAgICAgICAgICAmI3hhOyAgICAgICAgICAgICAgICAgICYjeGE7ICAgICAgICAgICAgICAgICAgICAgc2F2ZWQmI3hhOyAgICAgICAgICAgICAgICAgICAgIHhtcC5paWQ6YTZlZTczNDYtN2VjZi00MjYyLTg3M2MtNTMyMWIwZGEwM2YzJiN4YTsgICAgICAgICAgICAgICAgICAgICAyMDIyLTAzLTA0VDE2OjE4OjAyLTA2OjAwJiN4YTsgICAgICAgICAgICAgICAgICAgICBBZG9iZSBCcmlkZ2UgMjAyMSAoTWFjaW50b3NoKSYjeGE7ICAgICAgICAgICAgICAgICAgICAgL21ldGFkYXRhJiN4YTsgICAgICAgICAgICAgICAgICAmI3hhOyAgICAgICAgICAgICAgICYjeGE7ICAgICAgICAgICAgJiN4YTsgICAgICAgICAmI3hhOyAgICAgICAgIFRydWUmI3hhOyAgICAgICAgICYjeGE7ICAgICAgICAgICAgJiN4YTsgICAgICAgICAgICAgICBpY29uJiN4YTsgICAgICAgICAgICAgICBEYXRhJiN4YTsgICAgICAgICAgICAgICBhZ2dyZWdhdGlvbiYjeGE7ICAgICAgICAgICAgICAgbWFuYWdlbWVudCYjeGE7ICAgICAgICAgICAgICAgc3lzdGVtJiN4YTsgICAgICAgICAgICAgICBidXNpbmVzcyYjeGE7ICAgICAgICAgICAgICAgaW50ZWxsaWdlbmNlJiN4YTsgICAgICAgICAgICAgICBhbmFseXRpY3MmI3hhOyAgICAgICAgICAgICAgIHN0b3JlJiN4YTsgICAgICAgICAgICAgICBhbmFseXNpcyYjeGE7ICAgICAgICAgICAgICAgaWNvbiYjeGE7ICAgICAgICAgICAgICAgQnVzaW5lc3MmI3hhOyAgICAgICAgICAgICAgIERhdGEmI3hhOyAgICAgICAgICAgICAgIG1hY2hpbmUgbGVhcm5pbmcmI3hhOyAgICAgICAgICAgICAgIGFydGlmaWNpYWwgaW50ZWxsaWdlbmNlJiN4YTsgICAgICAgICAgICAgICBhdXRvbWF0ZSYjeGE7ICAgICAgICAgICAgICAgYXV0b21hdGl6YXRpb24mI3hhOyAgICAgICAgICAgICAgIHNlY3VyaXR5JiN4YTsgICAgICAgICAgICAgICBiYWNrdXAmI3hhOyAgICAgICAgICAgICAgIHVwZGF0ZSYjeGE7ICAgICAgICAgICAgICAgdGFzayYjeGE7ICAgICAgICAgICAgICAgQURDUyYjeGE7ICAgICAgICAgICAgICAgYXV0b25vbW91cyYjeGE7ICAgICAgICAgICAgICAgc2VydmljZSYjeGE7ICAgICAgICAgICAgJiN4YTsgICAgICAgICAmI3hhOyAgICAgICAgICYjeGE7ICAgICAgICAgICAgJiN4YTsgICAgICAgICAgICAgICBPcmFjbGUgQWxsIFJpZ2h0cyBSZXNlcnZlZCYjeGE7ICAgICAgICAgICAgJiN4YTsgICAgICAgICAmI3hhOyAgICAgICAgICYjeGE7ICAgICAgICAgICAgJiN4YTsgICAgICAgICAgICAgICBEYXRhIE1hbmFnZW1lbnQmI3hhOyAgICAgICAgICAgICAgIFNlcnZpY2UmI3hhOyAgICAgICAgICAgICAgIEF1dG9ub21vdXMmI3hhOyAgICAgICAgICAgICAgIERhdGFiYXNlJiN4YTsgICAgICAgICAgICAgICBDbG91ZCYjeGE7ICAgICAgICAgICAgICAgaWNvbiYjeGE7ICAgICAgICAgICAgJiN4YTsgICAgICAgICAmI3hhOyAgICAgICYjeGE7ICAgJiN4YTsmI3hhOyAgICAgICAgICAgICAgICAgICAgICAgICAgICAgICAgICAgICAgICAgICAgICAgICAgICAgICAgICAgICAgICAgICAgICAgICAgICAgICAgICAgICAgICAgICAgICAgICAgICAmI3hhOyAgICAgICAgICAgICAgICAgICAgICAgICAgICAgICAgICAgICAgICAgICAgICAgICAgICAgICAgICAgICAgICAgICAgICAgICAgICAgICAgICAgICAgICAgICAgICAgICAgICAmI3hhOyAgICAgICAgICAgICAgICAgICAgICAgICAgICAgICAgICAgICAgICAgICAgICAgICAgICAgICAgICAgICAgICAgICAgICAgICAgICAgICAgICAgICAgICAgICAgICAgICAgICAmI3hhOyAgICAgICAgICAgICAgICAgICAgICAgICAgICAgICAgICAgICAgICAgICAgICAgICAgICAgICAgICAgICAgICAgICAgICAgICAgICAgICAgICAgICAgICAgICAgICAgICAgICAmI3hhOyAgICAgICAgICAgICAgICAgICAgICAgICAgICAgICAgICAgICAgICAgICAgICAgICAgICAgICAgICAgICAgICAgICAgICAgICAgICAgICAgICAgICAgICAgICAgICAgICAgICAmI3hhOyAgICAgICAgICAgICAgICAgICAgICAgICAgICAgICAgICAgICAgICAgICAgICAgICAgICAgICAgICAgICAgICAgICAgICAgICAgICAgICAgICAgICAgICAgICAgICAgICAgICAmI3hhOyAgICAgICAgICAgICAgICAgICAgICAgICAgICAgICAgICAgICAgICAgICAgICAgICAgICAgICAgICAgICAgICAgICAgICAgICAgICAgICAgICAgICAgICAgICAgICAgICAgICAmI3hhOyAgICAgICAgICAgICAgICAgICAgICAgICAgICAgICAgICAgICAgICAgICAgICAgICAgICAgICAgICAgICAgICAgICAgICAgICAgICAgICAgICAgICAgICAgICAgICAgICAgICAmI3hhOyAgICAgICAgICAgICAgICAgICAgICAgICAgICAgICAgICAgICAgICAgICAgICAgICAgICAgICAgICAgICAgICAgICAgICAgICAgICAgICAgICAgICAgICAgICAgICAgICAgICAmI3hhOyAgICAgICAgICAgICAgICAgICAgICAgICAgICAgICAgICAgICAgICAgICAgICAgICAgICAgICAgICAgICAgICAgICAgICAgICAgICAgICAgICAgICAgICAgICAgICAgICAgICAmI3hhOyAgICAgICAgICAgICAgICAgICAgICAgICAgICAgICAgICAgICAgICAgICAgICAgICAgICAgICAgICAgICAgICAgICAgICAgICAgICAgICAgICAgICAgICAgICAgICAgICAgICAmI3hhOyAgICAgICAgICAgICAgICAgICAgICAgICAgICAgICAgICAgICAgICAgICAgICAgICAgICAgICAgICAgICAgICAgICAgICAgICAgICAgICAgICAgICAgICAgICAgICAgICAgICAmI3hhOyAgICAgICAgICAgICAgICAgICAgICAgICAgICAgICAgICAgICAgICAgICAgICAgICAgICAgICAgICAgICAgICAgICAgICAgICAgICAgICAgICAgICAgICAgICAgICAgICAgICAmI3hhOyAgICAgICAgICAgICAgICAgICAgICAgICAgICAgICAgICAgICAgICAgICAgICAgICAgICAgICAgICAgICAgICAgICAgICAgICAgICAgICAgICAgICAgICAgICAgICAgICAgICAmI3hhOyAgICAgICAgICAgICAgICAgICAgICAgICAgICAgICAgICAgICAgICAgICAgICAgICAgICAgICAgICAgICAgICAgICAgICAgICAgICAgICAgICAgICAgICAgICAgICAgICAgICAmI3hhOyAgICAgICAgICAgICAgICAgICAgICAgICAgICAgICAgICAgICAgICAgICAgICAgICAgICAgICAgICAgICAgICAgICAgICAgICAgICAgICAgICAgICAgICAgICAgICAgICAgICAmI3hhOyAgICAgICAgICAgICAgICAgICAgICAgICAgICAgICAgICAgICAgICAgICAgICAgICAgICAgICAgICAgICAgICAgICAgICAgICAgICAgICAgICAgICAgICAgICAgICAgICAgICAmI3hhOyAgICAgICAgICAgICAgICAgICAgICAgICAgICAgICAgICAgICAgICAgICAgICAgICAgICAgICAgICAgICAgICAgICAgICAgICAgICAgICAgICAgICAgICAgICAgICAgICAgICAmI3hhOyAgICAgICAgICAgICAgICAgICAgICAgICAgICAgICAgICAgICAgICAgICAgICAgICAgICAgICAgICAgICAgICAgICAgICAgICAgICAgICAgICAgICAgICAgICAgICAgICAgICAmI3hhOyAgICAgICAgICAgICAgICAgICAgICAgICAgICAgICAgICAgICAgICAgICAgICAgICAgICAgICAgICAgICAgICAgICAgICAgICAgICAgICAgICAgICAgICAgICAgICAgICAgICAmI3hhOyAgICAgICAgICAgICAgICAgICAgICAgICAgICYjeGE7PC9tZXRhZGF0YT4mI3hhOzxzdHlsZSB0eXBlPSJ0ZXh0L2NzcyI+JiN4YTsJLnN0MHtmaWxsOiNGRkZGRkY7fSYjeGE7CS5zdDF7ZmlsbDojMkM1OTY3O30mI3hhOzwvc3R5bGU+JiN4YTs8Zz4mI3hhOwk8Zz4mI3hhOwkJPHBhdGggZD0iTTIyLjUsNDEuNTJjLTMuMTIsMC02LjA3LTAuMjktOC4yOS0wLjgzYy0yLjk1LTAuNzEtNC4zOS0xLjc4LTQuMzktMy4yOVYyMi45SDAuNTRsMC4xMS0xLjUyJiMxMDsmIzk7JiM5OyYjOTtjMC4yNy0zLjY3LDIuMzktNi44OSw1LjY1LTguNjFjMC43MS0wLjM4LDEuMjEtMS4wNCwxLjM2LTEuODFjMC41MS0yLjYsMi4yNi00Ljc4LDQuNjgtNS44NWMxLjAyLTAuNDUsMi4xNS0wLjY4LDMuMjYtMC42OCYjMTA7JiM5OyYjOTsmIzk7YzAuMjUsMCwwLjUsMC4wMSwwLjc1LDAuMDNjMC4wOSwwLjAxLDAuMTcsMC4wMSwwLjI2LDAuMDFjMC43MSwwLDEuMzYtMC4yOCwxLjgyLTAuNzhjMS43Mi0xLjg1LDQuMDEtMi45Niw2LjUxLTMuMTVWMC41NGwxLTAuMDImIzEwOyYjOTsmIzk7JiM5O2wwLDAuMDFjMy42OSwwLjA4LDYuOTksMi4xNyw4LjY1LDUuNDljMC4xMiwwLjI0LDAuMjksMC40NywwLjQ4LDAuNjdjMC4yNCwwLjM1LDAuNTYsMC44LDAuODQsMS4yYzMsMC4xLDUuNzMsMS42Nyw3LjMzLDQuMjQmIzEwOyYjOTsmIzk7JiM5O2wwLjA0LDAuMDdsMC4zNSwxLjUzbDQuMTIsNC4xMmwtMi4wMSwyLjAxbC0xLjMtMS4zYy0wLjc5LDQuMTktNC40OSw3LjM0LTguODUsNy4zNGMtMC4xNCwwLTAuMjgsMC0wLjQyLTAuMDF2MTEuNTMmIzEwOyYjOTsmIzk7JiM5O2MwLDEuNS0xLjQ0LDIuNTgtNC4zOSwzLjI5QzI4LjU3LDQxLjIzLDI1LjYyLDQxLjUyLDIyLjUsNDEuNTJ6IiBjbGFzcz0ic3QwIi8+JiN4YTsJCTxwYXRoIGQ9Ik0yNS43MiwxLjAyYzMuNTksMCw2LjgzLDIsOC40Myw1LjIyYzAuMTUsMC4zLDAuMzUsMC41NywwLjU4LDAuOGMwLjIyLDAuMzQsMC42MiwwLjksMC45MywxLjM0JiMxMDsmIzk7JiM5OyYjOTtjMi45OCwwLjAyLDUuNjYsMS41OSw3LjE2LDQuMDFsMC4zNywxLjU4bDMuODcsMy44N2wtMS4zLDEuM2wtMS42Ny0xLjY3Yy0wLjMsNC40Mi0zLjk5LDcuOTItOC40OCw3LjkyJiMxMDsmIzk7JiM5OyYjOTtjLTAuMzEsMC0wLjYyLTAuMDMtMC45Mi0wLjA2djEyLjA4YzAsMS4yNC0xLjMxLDIuMTYtNCwyLjhjLTIuMiwwLjUzLTUuMSwwLjgxLTguMTgsMC44MXMtNS45OC0wLjI5LTguMTgtMC44MSYjMTA7JiM5OyYjOTsmIzk7Yy0yLjY5LTAuNjQtNC0xLjU2LTQtMi44VjIyLjRIMS4wOGwwLjA3LTAuOTljMC4yNi0zLjUsMi4yNy02LjU2LDUuMzktOC4yYzAuODUtMC40NSwxLjQ0LTEuMjMsMS42Mi0yLjE2JiMxMDsmIzk7JiM5OyYjOTtjMC40OC0yLjQ0LDIuMTItNC40OSw0LjM5LTUuNDljMC45Ny0wLjQyLDIuMDEtMC42NCwzLjA2LTAuNjRjMC4yNCwwLDAuNDcsMC4wMSwwLjcsMC4wM2MwLjEsMC4wMSwwLjIsMC4wMSwwLjMxLDAuMDEmIzEwOyYjOTsmIzk7JiM5O2MwLjg0LDAsMS42My0wLjMzLDIuMTktMC45NGMxLjc0LTEuODcsNC4xLTIuOTQsNi42NS0zLjAxbDAuMDIsMC45MmwtMC4wMi0wLjkyQzI1LjU1LDEuMDIsMjUuNjMsMS4wMiwyNS43MiwxLjAyIE0yNi40NCwwJiMxMDsmIzk7JiM5OyYjOTtsLTEsMC4wM2MtMC4wMSwwLTAuMDEsMC0wLjAyLDBsLTAuOTgsMC4wM2wwLDAuMDVDMjIsMC40LDE5Ljc3LDEuNTMsMTguMDgsMy4zNmMtMC4zNywwLjQtMC44OSwwLjYyLTEuNDYsMC42MiYjMTA7JiM5OyYjOTsmIzk7Yy0wLjA3LDAtMC4xNCwwLTAuMjEtMC4wMWMtMC4yNy0wLjAyLTAuNTMtMC4wNC0wLjgtMC4wNGMtMS4xOCwwLTIuMzgsMC4yNS0zLjQ2LDAuNzNjLTIuNTcsMS4xMy00LjQzLDMuNDUtNC45Nyw2LjIxJiMxMDsmIzk7JiM5OyYjOTtjLTAuMTIsMC42My0wLjUzLDEuMTYtMS4xMSwxLjQ2Yy0zLjQyLDEuOC01LjYzLDUuMTctNS45Miw5LjAxbC0wLjA3LDAuOTlMMCwyMy40aDEuMDhoOC4yNHYxNC4wMWMwLDIuNjMsMy41OSwzLjQ5LDQuNzcsMy43NyYjMTA7JiM5OyYjOTsmIzk7YzIuMjcsMC41NCw1LjI2LDAuODQsOC40MSwwLjg0YzMuMTYsMCw2LjE0LTAuMyw4LjQxLTAuODRjMS4xOC0wLjI4LDQuNzctMS4xNCw0Ljc3LTMuNzdWMjYuMzljNC4yNS0wLjA0LDcuOS0yLjkxLDkuMDUtNi44NiYjMTA7JiM5OyYjOTsmIzk7bDAuMzIsMC4zMmwwLjcxLDAuNzFsMC43MS0wLjcxbDEuMy0xLjNsMC43MS0wLjcxbC0wLjcxLTAuNzFsLTMuNjctMy42N2wtMC4zLTEuMzFMNDMuNzYsMTJsLTAuMDktMC4xNCYjMTA7JiM5OyYjOTsmIzk7Yy0xLjY0LTIuNjMtNC40MS00LjI3LTcuNDgtNC40NmMtMC4yMy0wLjMzLTAuNDctMC42OC0wLjYzLTAuOTFsLTAuMDUtMC4wOGwtMC4wNy0wLjA3Yy0wLjE2LTAuMTctMC4zLTAuMzUtMC4zOS0wLjU1JiMxMDsmIzk7JiM5OyYjOTtjLTEuNjctMy4zNC00LjkyLTUuNS04LjYxLTUuNzVMMjYuNDQsMEwyNi40NCwweiIgY2xhc3M9InN0MCIvPiYjeGE7CTwvZz4mI3hhOwk8cGF0aCBkPSJNMy4xMiwyMC41Nmg1LjgydjEuODRIMS4wOGwwLjA3LTAuOTljMC4yNi0zLjUsMi4yNy02LjU2LDUuMzktOC4yYzAuODUtMC40NSwxLjQ0LTEuMjMsMS42Mi0yLjE2JiMxMDsmIzk7JiM5O2MwLjQ4LTIuNDQsMi4xMi00LjQ5LDQuMzktNS40OWMxLjE4LTAuNTIsMi40OC0wLjczLDMuNzYtMC42MWMwLjk2LDAuMDksMS44Ny0wLjI1LDIuNS0wLjkzYzEuNzQtMS44Nyw0LjEtMi45NCw2LjY1LTMuMDFoMCYjMTA7JiM5OyYjOTtjMC4wOCwwLDAuMTcsMCwwLjI1LDBjMy41OSwwLDYuODMsMiw4LjQzLDUuMjJjMC4xNSwwLjMsMC4zNSwwLjU3LDAuNTgsMC44Yy0wLjY5LDAuMDYtMS4zNywwLjE5LTIuMDEsMC4zOSYjMTA7JiM5OyYjOTtjLTAuMDctMC4xMi0wLjE0LTAuMjQtMC4yMS0wLjM3Yy0xLjI5LTIuNTktMy45LTQuMi02Ljc5LTQuMmMtMC4wNywwLTAuMTQsMC0wLjIxLDBjLTIuMDUsMC4wNS0zLjk2LDAuOTItNS4zNiwyLjQyJiMxMDsmIzk7JiM5O2MtMS4wMiwxLjEtMi40OSwxLjY1LTQuMDIsMS41MWMtMC45Ny0wLjA5LTEuOTUsMC4wNy0yLjg1LDAuNDZjLTEuNzIsMC43Ni0yLjk2LDIuMzEtMy4zMyw0LjE2Yy0wLjI5LDEuNDctMS4yMywyLjcyLTIuNTcsMy40MyYjMTA7JiM5OyYjOTtDNS4xNCwxNi4wMiwzLjU5LDE4LjEyLDMuMTIsMjAuNTYgTTM0LjY5LDEyaDEuODJsMi41NSw4Ljg2aC0xLjk2TDM2LjY2LDE5aC0yLjIxbC0wLjQzLDEuODZoLTEuOUwzNC42OSwxMnogTTM0LjgsMTcuNDloMS41MiYjMTA7JiM5OyYjOTtsLTAuNzYtMy4zMUwzNC44LDE3LjQ5eiBNMjcuMTIsMTYuM2wtMS42Ny0xLjY3bC0xLjMsMS4zbDMuODcsMy44N2wzLjg3LTMuODdsLTEuMy0xLjNsLTEuNjIsMS42MmMwLjMyLTMuMzgsMy4xOC02LjAyLDYuNjMtNi4wMiYjMTA7JiM5OyYjOTtjMi41LDAsNC43NCwxLjQsNS44OCwzLjUybDEuMzQtMS4zNGMtMS41Mi0yLjQzLTQuMjItNC4wMS03LjIyLTQuMDFDMzEuMTEsOC4zOCwyNy40MiwxMS44OCwyNy4xMiwxNi4zIE00Ny4wNiwxNy44NGwtMy44Ny0zLjg3JiMxMDsmIzk7JiM5O2wtMy44NywzLjg3bDEuMywxLjNsMS42Mi0xLjYyYy0wLjMyLDMuMzgtMy4xOCw2LjAyLTYuNjMsNi4wMmMtMi41LDAtNC43NC0xLjQtNS44OC0zLjUybC0xLjM0LDEuMzQmIzEwOyYjOTsmIzk7YzEuNTIsMi40Myw0LjIyLDQuMDEsNy4yMiw0LjAxYzQuNDksMCw4LjE4LTMuNSw4LjQ4LTcuOTJsMS42NywxLjY3TDQ3LjA2LDE3Ljg0eiBNMzIuODUsMjYuNThjMC41OSwwLjE4LDEuMjEsMC4zLDEuODQsMC4zNiYjMTA7JiM5OyYjOTt2MTAuNDZjMCwxLjI0LTEuMzEsMi4xNi00LDIuOGMtMi4yLDAuNTMtNS4xLDAuODEtOC4xOCwwLjgxcy01Ljk4LTAuMjktOC4xOC0wLjgxYy0yLjY5LTAuNjQtNC0xLjU2LTQtMi44VjE3LjgmIzEwOyYjOTsmIzk7YzAtMS4yNSwxLjMyLTIuMTQsNC4wMi0yLjczYzIuMTMtMC40Niw1LjAzLTAuNzIsOC4xNi0wLjcyYzAuMTUsMCwwLjMxLDAsMC40NiwwdjEuODRjLTAuMTUsMC0wLjMsMC0wLjQ2LDAmIzEwOyYjOTsmIzk7Yy02LjU1LDAtOS45MywxLjA3LTEwLjM0LDEuNjd2MC4xMWMwLjQ0LDAuNjcsNC4xOSwxLjg0LDEwLjM0LDEuODRjMS4yNywwLDIuNDQtMC4wNSwzLjUtMC4xM2MwLjE4LDAuNjIsMC40MSwxLjIyLDAuNywxLjc4JiMxMDsmIzk7JiM5O2MtMS4zMiwwLjEyLTIuNzQsMC4xOS00LjIsMC4xOWMtMy4wOCwwLTUuOTgtMC4yOS04LjE4LTAuODFjLTAuODYtMC4yMS0xLjU4LTAuNDQtMi4xNy0wLjcxdjQuMjhjMC40NCwwLjY3LDQuMTksMS44NCwxMC4zNCwxLjg0JiMxMDsmIzk7JiM5O2MzLjQxLDAsNi4wNy0wLjM2LDcuODUtMC43OWMwLjc2LDAuNDgsMS41OSwwLjg2LDIuNDcsMS4xMmMtMC41OCwwLjI2LTEuMjksMC40OS0yLjE0LDAuNjljLTIuMiwwLjUzLTUuMSwwLjgxLTguMTgsMC44MSYjMTA7JiM5OyYjOTtzLTUuOTgtMC4yOS04LjE4LTAuODFjLTAuODYtMC4yMS0xLjU4LTAuNDQtMi4xNy0wLjcxdjQuMzNjMC40NCwwLjY3LDQuMTksMS44NCwxMC4zNCwxLjg0czkuOTEtMS4xNywxMC4zNC0xLjg0VjI2LjU4eiYjMTA7JiM5OyYjOTsgTTMyLjg1LDMzLjA2Yy0wLjU4LDAuMjYtMS4zLDAuNS0yLjE3LDAuNzFjLTIuMiwwLjUzLTUuMSwwLjgxLTguMTgsMC44MXMtNS45OC0wLjI5LTguMTgtMC44MWMtMC44Ni0wLjIxLTEuNTgtMC40NC0yLjE3LTAuNzEmIzEwOyYjOTsmIzk7djQuMjljMC4zOSwwLjU2LDMuNzksMS44NCwxMC4zNCwxLjg0czkuOTYtMS4yNywxMC4zNC0xLjg0VjMzLjA2eiIgY2xhc3M9InN0MSIvPiYjeGE7PC9nPiYjeGE7PC9zdmc+;" vertex="1" parent="1">
          <mxGeometry x="511.42999999999995" y="280" width="68.57" height="60" as="geometry" />
        </mxCell>
        <mxCell id="LbItfmBYyUvVAQTM5q1b-20" style="rounded=0;orthogonalLoop=1;jettySize=auto;html=1;exitX=1;exitY=0.5;exitDx=0;exitDy=0;exitPerimeter=0;entryX=0;entryY=0.25;entryDx=0;entryDy=0;" edge="1" parent="1" source="LbItfmBYyUvVAQTM5q1b-1" target="LbItfmBYyUvVAQTM5q1b-10">
          <mxGeometry relative="1" as="geometry" />
        </mxCell>
        <mxCell id="LbItfmBYyUvVAQTM5q1b-21" style="rounded=0;orthogonalLoop=1;jettySize=auto;html=1;exitX=1;exitY=0.5;exitDx=0;exitDy=0;exitPerimeter=0;entryX=0;entryY=0.5;entryDx=0;entryDy=0;" edge="1" parent="1" source="LbItfmBYyUvVAQTM5q1b-4" target="LbItfmBYyUvVAQTM5q1b-10">
          <mxGeometry relative="1" as="geometry" />
        </mxCell>
        <mxCell id="LbItfmBYyUvVAQTM5q1b-22" style="rounded=0;orthogonalLoop=1;jettySize=auto;html=1;exitX=1;exitY=0.5;exitDx=0;exitDy=0;exitPerimeter=0;entryX=0;entryY=0.75;entryDx=0;entryDy=0;" edge="1" parent="1" source="LbItfmBYyUvVAQTM5q1b-5" target="LbItfmBYyUvVAQTM5q1b-10">
          <mxGeometry relative="1" as="geometry" />
        </mxCell>
        <mxCell id="LbItfmBYyUvVAQTM5q1b-17" style="rounded=1;orthogonalLoop=1;jettySize=auto;html=1;exitX=1;exitY=0.5;exitDx=0;exitDy=0;exitPerimeter=0;entryX=0;entryY=0.25;entryDx=0;entryDy=0;" edge="1" parent="1" source="LbItfmBYyUvVAQTM5q1b-1" target="LbItfmBYyUvVAQTM5q1b-9">
          <mxGeometry relative="1" as="geometry" />
        </mxCell>
        <mxCell id="LbItfmBYyUvVAQTM5q1b-18" style="rounded=1;orthogonalLoop=1;jettySize=auto;html=1;exitX=1;exitY=0.5;exitDx=0;exitDy=0;exitPerimeter=0;entryX=0;entryY=0.5;entryDx=0;entryDy=0;" edge="1" parent="1" source="LbItfmBYyUvVAQTM5q1b-4" target="LbItfmBYyUvVAQTM5q1b-9">
          <mxGeometry relative="1" as="geometry" />
        </mxCell>
        <mxCell id="LbItfmBYyUvVAQTM5q1b-19" style="rounded=1;orthogonalLoop=1;jettySize=auto;html=1;exitX=1;exitY=0.5;exitDx=0;exitDy=0;exitPerimeter=0;entryX=0;entryY=0.75;entryDx=0;entryDy=0;" edge="1" parent="1" source="LbItfmBYyUvVAQTM5q1b-5" target="LbItfmBYyUvVAQTM5q1b-9">
          <mxGeometry relative="1" as="geometry" />
        </mxCell>
        <mxCell id="X9KXB7GfNf-0JmmdcP_K-5" style="rounded=0;orthogonalLoop=1;jettySize=auto;html=1;exitX=0.5;exitY=0;exitDx=0;exitDy=0;entryX=0.5;entryY=1;entryDx=0;entryDy=0;" edge="1" parent="1" source="X9KXB7GfNf-0JmmdcP_K-1" target="LbItfmBYyUvVAQTM5q1b-13">
          <mxGeometry relative="1" as="geometry" />
        </mxCell>
        <mxCell id="X9KXB7GfNf-0JmmdcP_K-6" style="rounded=0;orthogonalLoop=1;jettySize=auto;html=1;exitX=0.5;exitY=0;exitDx=0;exitDy=0;entryX=0.5;entryY=1;entryDx=0;entryDy=0;" edge="1" parent="1" source="X9KXB7GfNf-0JmmdcP_K-1" target="LbItfmBYyUvVAQTM5q1b-14">
          <mxGeometry relative="1" as="geometry" />
        </mxCell>
        <mxCell id="X9KXB7GfNf-0JmmdcP_K-7" style="rounded=0;orthogonalLoop=1;jettySize=auto;html=1;exitX=0.5;exitY=0;exitDx=0;exitDy=0;entryX=0.5;entryY=1;entryDx=0;entryDy=0;" edge="1" parent="1" source="X9KXB7GfNf-0JmmdcP_K-1" target="LbItfmBYyUvVAQTM5q1b-15">
          <mxGeometry relative="1" as="geometry" />
        </mxCell>
        <mxCell id="X9KXB7GfNf-0JmmdcP_K-1" value="Data Processing" style="rounded=0;whiteSpace=wrap;html=1;strokeColor=default;align=center;verticalAlign=bottom;fontFamily=Oracle Sans;fontSize=14;fontColor=default;fontStyle=1;fillColor=default;" vertex="1" parent="1">
          <mxGeometry x="500" y="400" width="390" height="150" as="geometry" />
        </mxCell>
        <mxCell id="X9KXB7GfNf-0JmmdcP_K-2" value="" style="shape=image;verticalLabelPosition=bottom;labelBackgroundColor=default;verticalAlign=top;aspect=fixed;imageAspect=0;editableCssRules=.*;image=data:image/svg+xml,PHN2ZyB4bWxucz0iaHR0cDovL3d3dy53My5vcmcvMjAwMC9zdmciIGZpbGw9Im5vbmUiIHZpZXdCb3g9IjAgMCAyMjMgODEiIGhlaWdodD0iODEiIHdpZHRoPSIyMjMiPiYjeGE7PHBhdGggZmlsbD0iIzI2MkEzOCIgZD0iTTEzOC43MSAxMi41MlY2Ny44MUgxMjcuNVY2Mi4xN0MxMjYuMzMgNjQuMTUgMTI0LjY0IDY1Ljc2IDEyMi41OSA2Ni43OEMxMjAuMzkgNjcuODggMTE3LjkgNjguNDYgMTE1LjQxIDY4LjQ2QzExMi4zMyA2OC41MyAxMDkuMjYgNjcuNjUgMTA2LjY5IDY1LjlDMTA0LjA1IDY0LjE0IDEwMiA2MS43MyAxMDAuNjggNTguODdDOTkuMjIwMSA1NS41NyA5OC40ODAxIDUyLjA2IDk4LjU2MDEgNDguNDdDOTguNDkwMSA0NC44OCA5OS4yMjAxIDQxLjM3IDEwMC42OCAzOC4xNEMxMDIgMzUuMzYgMTA0LjA1IDMyLjk0IDEwNi42MSAzMS4yNkMxMDkuMjUgMjkuNTggMTEyLjMyIDI4Ljc3IDExNS40IDI4Ljg0QzExNy44MiAyOC44NCAxMjAuMjMgMjkuMzUgMTIyLjM2IDMwLjQ1QzEyNC40MSAzMS40OCAxMjYuMSAzMy4wMSAxMjcuMjcgMzQuOTJWMTYuMjZMMTM4LjcgMTIuNTJIMTM4LjcxWk0xMjUuMjMgNTYuOUMxMjYuNjkgNTUgMTI3LjUgNTIuMjEgMTI3LjUgNDguNjJDMTI3LjUgNDUuMDMgMTI2Ljc3IDQyLjMyIDEyNS4yMyA0MC40MkMxMjMuNjkgMzguNTIgMTIxLjI3IDM3LjQyIDExOC43OSAzNy40OUMxMTYuMyAzNy4zNCAxMTMuODggMzguNDQgMTEyLjI3IDQwLjM1QzExMC43MyA0Mi4yNSAxMDkuOTMgNDQuOTYgMTA5LjkzIDQ4LjQ4QzEwOS45MyA1MiAxMTAuNzQgNTQuODUgMTEyLjI3IDU2LjgzQzExMy44MSA1OC44MSAxMTYuMyA1OS45MSAxMTguNzkgNTkuODNDMTIxLjU3IDU5LjgzIDEyMy43NyA1OC44IDEyNS4yMyA1Ni45Wk0xNzguNzcgMzEuMTlDMTgxLjQxIDMyLjg3IDE4My40NiAzNS4yOSAxODQuNyAzOC4wN0MxODYuMTYgNDEuMjkgMTg2LjkgNDQuODEgMTg2LjgyIDQ4LjRDMTg2Ljg5IDUxLjk5IDE4Ni4xNiA1NS41OCAxODQuNyA1OC44QzE4My4zOCA2MS42NiAxODEuMzMgNjQuMDcgMTc4LjY5IDY1LjgzQzE3Ni4xMyA2Ny41MSAxNzMuMDUgNjguMzkgMTY5Ljk4IDY4LjMyQzE2Ny40OSA2OC4zOSAxNjUgNjcuODEgMTYyLjggNjYuNjRDMTYwLjc1IDY1LjYxIDE1OS4wNiA2NCAxNTcuOTcgNjIuMDNWNjcuNzRIMTQ2LjY5VjE2LjI2TDE1OC4wNCAxMi41MlYzNS4wOEMxNTkuMTQgMzMuMSAxNjAuODIgMzEuNDkgMTYyLjg3IDMwLjQ3QzE2NS4wNyAyOS4zIDE2Ny40OCAyOC43MSAxNjkuOTcgMjguNzlDMTczLjA1IDI4LjcyIDE3Ni4xMiAyOS42IDE3OC43NiAzMS4yMUwxNzguNzcgMzEuMTlaTTE3My4yIDU2LjgyQzE3NC43NCA1NC44NCAxNzUuNDcgNTIuMDYgMTc1LjQ3IDQ4LjRDMTc1LjQ3IDQ0Ljc0IDE3NC43NCA0Mi4xNyAxNzMuMiA0MC4yN0MxNzEuNjYgMzguMzcgMTY5LjU0IDM3LjQxIDE2Ni43NiAzNy40MUMxNjQuMjcgMzcuMjYgMTYxLjg1IDM4LjM2IDE2MC4yNCA0MC4zNEMxNTguNyA0Mi4zMiAxNTcuOTcgNDUuMDMgMTU3Ljk3IDQ4LjU0QzE1Ny45NyA1Mi4wNSAxNTguNyA1NC45MSAxNjAuMjQgNTYuODJDMTYxLjc4IDU4LjggMTY0LjE5IDU5LjkgMTY2Ljc2IDU5Ljc1QzE2OS4yNSA1OS45IDE3MS42NyA1OC44IDE3My4yIDU2LjgyWk0yMDIuNSAzOC4yMkgyMTIuMTdWMjkuNzJIMjAyLjVWMTcuMTJMMTkxLjE1IDIwLjc4VjUzLjI0QzE5MS4xNSA1OC4wNyAxOTIuNCA2MS44MSAxOTQuODkgNjQuNDVDMTk3LjM4IDY3LjA5IDIwMC45NyA2OC40IDIwNS42NiA2OC40QzIwNy44NiA2OC40NyAyMTAuMDUgNjguMTEgMjEyLjE4IDY3LjM3VjU4LjU4QzIxMS4wMSA1OC44NyAyMDkuNjkgNTkuMDkgMjA4LjQ0IDU5LjA5QzIwNi44MyA1OS4xNiAyMDUuMjkgNTguNjUgMjA0LjEyIDU3LjYzQzIwMy4wOSA1Ni42OCAyMDIuNTEgNTUuMTQgMjAyLjUxIDUzLjAyVjM4LjIzTDIwMi41IDM4LjIyWiIvPiYjeGE7PHBhdGggZmlsbD0iI0ZGNjk0QSIgZD0iTTc3LjU2IDMuMzdDNzkuNDYgNS4yIDgwLjcxIDcuNjIgODEgMTAuMjVDODEgMTEuMzUgODAuNzEgMTIuMDggODAuMDUgMTMuNDdDNzkuMzkgMTQuODYgNzEuMjYgMjguOTIgNjguODQgMzIuOEM2Ny40NSAzNS4wNyA2Ni43MiAzNy43OCA2Ni43MiA0MC40MkM2Ni43MiA0My4wNiA2Ny40NSA0NS43NyA2OC44NCA0OC4wNEM3MS4yNiA1MS45MiA3OS4zOSA2Ni4wNiA4MC4wNSA2Ny40NUM4MC43MSA2OC44NCA4MSA2OS41IDgxIDcwLjZDODAuNzEgNzMuMjQgNzkuNTQgNzUuNjUgNzcuNjMgNzcuNDFDNzUuOCA3OS4zMSA3My4zOCA4MC41NiA3MC44MiA4MC43OEM2OS43MiA4MC43OCA2OC45OSA4MC40OSA2Ny42NyA3OS44M0M2Ni4zNSA3OS4xNyA1MiA3MS4yNiA0OC4xMiA2OC44NEM0Ny44MyA2OC42OSA0Ny41MyA2OC40NyA0Ny4xNyA2OC4zM0wyNy45OCA1Ni45OEMyOC40MiA2MC42NCAzMC4wMyA2NC4xNiAzMi42NyA2Ni43MkMzMy4xOCA2Ny4yMyAzMy43IDY3LjY3IDM0LjI4IDY4LjExQzMzLjg0IDY4LjMzIDMzLjMzIDY4LjU1IDMyLjg5IDY4Ljg0QzI5LjAxIDcxLjI2IDE0Ljg3IDc5LjM5IDEzLjQ4IDgwLjA1QzEyLjA5IDgwLjcxIDExLjQzIDgxIDEwLjI2IDgxQzcuNjIgODAuNzEgNS4yMSA3OS41NCAzLjQ1IDc3LjYzQzEuNTUgNzUuOCAwLjMgNzMuMzggMC4wMSA3MC43NUMwLjA4IDY5LjY1IDAuMzggNjguNTUgMC45NiA2Ny42QzEuNjIgNjYuMjEgOS43NSA1Mi4wNyAxMi4xNyA0OC4xOUMxMy41NiA0NS45MiAxNC4yOSA0My4yOCAxNC4yOSA0MC41N0MxNC4yOSAzNy44NiAxMy41NiAzNS4yMiAxMi4xNyAzMi45NUM5Ljc0IDI4LjkzIDEuNTQgMTQuNzkgMC45NSAxMy40QzAuMzYgMTIuNDUgMC4wNyAxMS4zNSAwIDEwLjI1QzAuMjkgNy42MiAxLjQ2IDUuMiAzLjM3IDMuMzdDNS4yIDEuNDYgNy42MiAwLjI5IDEwLjI1IDBDMTEuMzUgMC4wNyAxMi40NSAwLjM3IDEzLjQ3IDAuOTVDMTQuNjQgMS40NiAyNC45NyA3LjQ3IDMwLjQ2IDEwLjY5TDMxLjcxIDExLjQyQzMyLjE1IDExLjcxIDMyLjUyIDExLjkzIDMyLjgxIDEyLjA4TDMzLjQgMTIuNDVMNTIuOTUgMjQuMDJDNTIuNTEgMTkuNjMgNTAuMjQgMTUuNiA0Ni43MiAxMi44OUM0Ny4xNiAxMi42NyA0Ny42NyAxMi40NSA0OC4xMSAxMi4xNkM1MS45OSA5Ljc0IDY2LjEzIDEuNTQgNjcuNTIgMC45NUM2OC40NyAwLjM2IDY5LjU3IDAuMDcgNzAuNzQgMEM3My4zIDAuMjkgNzUuNzIgMS40NiA3Ny41NSAzLjM3SDc3LjU2Wk00MS41MyA0NS43TDQ1LjcgNDEuNTNDNDYuMjkgNDAuOTQgNDYuMjkgNDAuMDcgNDUuNyAzOS40OEw0MS41MyAzNS4zMUM0MC45NCAzNC43MiA0MC4wNyAzNC43MiAzOS40OCAzNS4zMUwzNS4zMSAzOS40OEMzNC43MiA0MC4wNyAzNC43MiA0MC45NCAzNS4zMSA0MS41M0wzOS40OCA0NS43QzM5Ljk5IDQ2LjIxIDQwLjk0IDQ2LjIxIDQxLjUzIDQ1LjdaTTc3LjU2IDMuMzdDNzkuNDYgNS4yIDgwLjcxIDcuNjIgODEgMTAuMjVDODEgMTEuMzUgODAuNzEgMTIuMDggODAuMDUgMTMuNDdDNzkuMzkgMTQuODYgNzEuMjYgMjguOTIgNjguODQgMzIuOEM2Ny40NSAzNS4wNyA2Ni43MiAzNy43OCA2Ni43MiA0MC40MkM2Ni43MiA0My4wNiA2Ny40NSA0NS43NyA2OC44NCA0OC4wNEM3MS4yNiA1MS45MiA3OS4zOSA2Ni4wNiA4MC4wNSA2Ny40NUM4MC43MSA2OC44NCA4MSA2OS41IDgxIDcwLjZDODAuNzEgNzMuMjQgNzkuNTQgNzUuNjUgNzcuNjMgNzcuNDFDNzUuOCA3OS4zMSA3My4zOCA4MC41NiA3MC44MiA4MC43OEM2OS43MiA4MC43OCA2OC45OSA4MC40OSA2Ny42NyA3OS44M0M2Ni4zNSA3OS4xNyA1MiA3MS4yNiA0OC4xMiA2OC44NEM0Ny44MyA2OC42OSA0Ny41MyA2OC40NyA0Ny4xNyA2OC4zM0wyNy45OCA1Ni45OEMyOC40MiA2MC42NCAzMC4wMyA2NC4xNiAzMi42NyA2Ni43MkMzMy4xOCA2Ny4yMyAzMy43IDY3LjY3IDM0LjI4IDY4LjExQzMzLjg0IDY4LjMzIDMzLjMzIDY4LjU1IDMyLjg5IDY4Ljg0QzI5LjAxIDcxLjI2IDE0Ljg3IDc5LjM5IDEzLjQ4IDgwLjA1QzEyLjA5IDgwLjcxIDExLjQzIDgxIDEwLjI2IDgxQzcuNjIgODAuNzEgNS4yMSA3OS41NCAzLjQ1IDc3LjYzQzEuNTUgNzUuOCAwLjMgNzMuMzggMC4wMSA3MC43NUMwLjA4IDY5LjY1IDAuMzggNjguNTUgMC45NiA2Ny42QzEuNjIgNjYuMjEgOS43NSA1Mi4wNyAxMi4xNyA0OC4xOUMxMy41NiA0NS45MiAxNC4yOSA0My4yOCAxNC4yOSA0MC41N0MxNC4yOSAzNy44NiAxMy41NiAzNS4yMiAxMi4xNyAzMi45NUM5Ljc0IDI4LjkzIDEuNTQgMTQuNzkgMC45NSAxMy40QzAuMzYgMTIuNDUgMC4wNyAxMS4zNSAwIDEwLjI1QzAuMjkgNy42MiAxLjQ2IDUuMiAzLjM3IDMuMzdDNS4yIDEuNDYgNy42MiAwLjI5IDEwLjI1IDBDMTEuMzUgMC4wNyAxMi40NSAwLjM3IDEzLjQ3IDAuOTVDMTQuNjQgMS40NiAyNC45NyA3LjQ3IDMwLjQ2IDEwLjY5TDMxLjcxIDExLjQyQzMyLjE1IDExLjcxIDMyLjUyIDExLjkzIDMyLjgxIDEyLjA4TDMzLjQgMTIuNDVMNTIuOTUgMjQuMDJDNTIuNTEgMTkuNjMgNTAuMjQgMTUuNiA0Ni43MiAxMi44OUM0Ny4xNiAxMi42NyA0Ny42NyAxMi40NSA0OC4xMSAxMi4xNkM1MS45OSA5Ljc0IDY2LjEzIDEuNTQgNjcuNTIgMC45NUM2OC40NyAwLjM2IDY5LjU3IDAuMDcgNzAuNzQgMEM3My4zIDAuMjkgNzUuNzIgMS40NiA3Ny41NSAzLjM3SDc3LjU2Wk00MS41MyA0NS43TDQ1LjcgNDEuNTNDNDYuMjkgNDAuOTQgNDYuMjkgNDAuMDcgNDUuNyAzOS40OEw0MS41MyAzNS4zMUM0MC45NCAzNC43MiA0MC4wNyAzNC43MiAzOS40OCAzNS4zMUwzNS4zMSAzOS40OEMzNC43MiA0MC4wNyAzNC43MiA0MC45NCAzNS4zMSA0MS41M0wzOS40OCA0NS43QzM5Ljk5IDQ2LjIxIDQwLjk0IDQ2LjIxIDQxLjUzIDQ1LjdaIi8+JiN4YTs8cGF0aCBmaWxsPSIjMjYyQTM4IiBkPSJNMjIyLjE2IDY0LjM1OTlMMjIwLjk1IDY3LjczOTlIMjIwLjUxTDIxOS4zIDY0LjM1OTlWNjcuNzM5OUgyMTguNTNWNjMuMTI5OUgyMTkuNDlMMjIwLjczIDY2LjU1OTlMMjIxLjk3IDYzLjEyOTlIMjIyLjkzVjY3LjczOTlIMjIyLjE2VjY0LjM1OTlaIi8+JiN4YTs8cGF0aCBmaWxsPSIjMjYyQTM4IiBkPSJNMjE3Ljg1IDYzLjgxOTlIMjE2LjU4VjY3LjczOTlIMjE1LjhWNjMuODE5OUgyMTQuNTNWNjMuMTI5OUgyMTcuODVWNjMuODE5OVoiLz4mI3hhOzwvc3ZnPg==;" vertex="1" parent="1">
          <mxGeometry x="687.405" y="410" width="165.19" height="60" as="geometry" />
        </mxCell>
        <mxCell id="X9KXB7GfNf-0JmmdcP_K-4" value="&lt;b&gt;dbt Core&lt;/b&gt;&lt;div&gt;Batch data transformations&lt;/div&gt;" style="text;html=1;align=center;verticalAlign=middle;whiteSpace=wrap;rounded=0;" vertex="1" parent="1">
          <mxGeometry x="680" y="480" width="180" height="30" as="geometry" />
        </mxCell>
        <mxCell id="ONW2D7bDHmSh4rAp80Xp-1" value="Data Consumers" style="rounded=0;whiteSpace=wrap;html=1;strokeColor=default;align=center;verticalAlign=top;fontFamily=Oracle Sans;fontSize=14;fontColor=default;fontStyle=1;fillColor=default;" vertex="1" parent="1">
          <mxGeometry x="940" y="50" width="160" height="300" as="geometry" />
        </mxCell>
        <mxCell id="ONW2D7bDHmSh4rAp80Xp-2" value="" style="shape=image;verticalLabelPosition=bottom;labelBackgroundColor=default;verticalAlign=top;aspect=fixed;imageAspect=0;editableCssRules=.*;image=data:image/svg+xml,PHN2ZyB4bWxuczp4bGluaz0iaHR0cDovL3d3dy53My5vcmcvMTk5OS94bGluayIgeG1sbnM9Imh0dHA6Ly93d3cudzMub3JnLzIwMDAvc3ZnIiB4bWw6c3BhY2U9InByZXNlcnZlIiBzdHlsZT0iZW5hYmxlLWJhY2tncm91bmQ6bmV3IDAgMCA0OS4yIDQyOyIgdmlld0JveD0iMCAwIDQ5LjIgNDIiIHk9IjBweCIgeD0iMHB4IiBpZD0iTGF5ZXJfMSIgdmVyc2lvbj0iMS4xIj4mI3hhOzxtZXRhZGF0YT4mI3hhOyYjeGE7ICAgJiN4YTsgICAgICAmI3hhOyAgICAgICAgIDIwMjItMTEtMTFUMTQ6Mzk6MTYtMDY6MDAmI3hhOyAgICAgICAgIHhtcC5paWQ6MTA5YTY4YjMtZDk2Ny00YmY5LTk5NWQtYjRjYjc5NWRlMGNlJiN4YTsgICAgICAgICB4bXAuZGlkOjVkNjZlNzYwLWM4YjYtNDgyMS1hNWQyLWJhYjFkMDQyZTVlYyYjeGE7ICAgICAgICAgeG1wLmRpZDo1ZDY2ZTc2MC1jOGI2LTQ4MjEtYTVkMi1iYWIxZDA0MmU1ZWMmI3hhOyAgICAgICAgICYjeGE7ICAgICAgICAgICAgJiN4YTsgICAgICAgICAgICAgICAmI3hhOyAgICAgICAgICAgICAgICAgICYjeGE7ICAgICAgICAgICAgICAgICAgICAgc2F2ZWQmI3hhOyAgICAgICAgICAgICAgICAgICAgIHhtcC5paWQ6NWQ2NmU3NjAtYzhiNi00ODIxLWE1ZDItYmFiMWQwNDJlNWVjJiN4YTsgICAgICAgICAgICAgICAgICAgICAyMDIxLTA0LTI3VDEzOjM0OjMzLTA1OjAwJiN4YTsgICAgICAgICAgICAgICAgICAgICBBZG9iZSBCcmlkZ2UgMjAyMSAoTWFjaW50b3NoKSYjeGE7ICAgICAgICAgICAgICAgICAgICAgL21ldGFkYXRhJiN4YTsgICAgICAgICAgICAgICAgICAmI3hhOyAgICAgICAgICAgICAgICYjeGE7ICAgICAgICAgICAgICAgJiN4YTsgICAgICAgICAgICAgICAgICAmI3hhOyAgICAgICAgICAgICAgICAgICAgIHNhdmVkJiN4YTsgICAgICAgICAgICAgICAgICAgICB4bXAuaWlkOjEwOWE2OGIzLWQ5NjctNGJmOS05OTVkLWI0Y2I3OTVkZTBjZSYjeGE7ICAgICAgICAgICAgICAgICAgICAgMjAyMi0xMS0xMVQxNDozOToxNi0wNjowMCYjeGE7ICAgICAgICAgICAgICAgICAgICAgQWRvYmUgQnJpZGdlIDIwMjEgKE1hY2ludG9zaCkmI3hhOyAgICAgICAgICAgICAgICAgICAgIC9tZXRhZGF0YSYjeGE7ICAgICAgICAgICAgICAgICAgJiN4YTsgICAgICAgICAgICAgICAmI3hhOyAgICAgICAgICAgICYjeGE7ICAgICAgICAgJiN4YTsgICAgICAgICBUcnVlJiN4YTsgICAgICAgICAmI3hhOyAgICAgICAgICAgICYjeGE7ICAgICAgICAgICAgICAgQW5hbHl0aWNzJiN4YTsgICAgICAgICAgICAgICBTZXJ2aWNlJiN4YTsgICAgICAgICAgICAgICBEYXRhJiN4YTsgICAgICAgICAgICAgICBPdGhlciYjeGE7ICAgICAgICAgICAgICAgaWNvbiYjeGE7ICAgICAgICAgICAgJiN4YTsgICAgICAgICAmI3hhOyAgICAgICAgICYjeGE7ICAgICAgICAgICAgJiN4YTsgICAgICAgICAgICAgICBBbmFseXRpY3MmI3hhOyAgICAgICAgICAgICAgIFNlcnZpY2UmI3hhOyAgICAgICAgICAgICAgIERhdGEmI3hhOyAgICAgICAgICAgICAgIGdyYXBoJiN4YTsgICAgICAgICAgICAgICBCdXNpbmVzcyYjeGE7ICAgICAgICAgICAgICAgYW5hbHlzaXMmI3hhOyAgICAgICAgICAgICAgIGRhdGEmI3hhOyAgICAgICAgICAgICAgIGljb24mI3hhOyAgICAgICAgICAgICAgIG1vbml0b3ImI3hhOyAgICAgICAgICAgICYjeGE7ICAgICAgICAgJiN4YTsgICAgICAgICAmI3hhOyAgICAgICAgICAgICYjeGE7ICAgICAgICAgICAgICAgT3JhY2xlIEFsbCBSaWdodHMgUmVzZXJ2ZWQmI3hhOyAgICAgICAgICAgICYjeGE7ICAgICAgICAgJiN4YTsgICAgICAmI3hhOyAgICYjeGE7JiN4YTsgICAgICAgICAgICAgICAgICAgICAgICAgICAgICAgICAgICAgICAgICAgICAgICAgICAgICAgICAgICAgICAgICAgICAgICAgICAgICAgICAgICAgICAgICAgICAgICAgICAgJiN4YTsgICAgICAgICAgICAgICAgICAgICAgICAgICAgICAgICAgICAgICAgICAgICAgICAgICAgICAgICAgICAgICAgICAgICAgICAgICAgICAgICAgICAgICAgICAgICAgICAgICAgJiN4YTsgICAgICAgICAgICAgICAgICAgICAgICAgICAgICAgICAgICAgICAgICAgICAgICAgICAgICAgICAgICAgICAgICAgICAgICAgICAgICAgICAgICAgICAgICAgICAgICAgICAgJiN4YTsgICAgICAgICAgICAgICAgICAgICAgICAgICAgICAgICAgICAgICAgICAgICAgICAgICAgICAgICAgICAgICAgICAgICAgICAgICAgICAgICAgICAgICAgICAgICAgICAgICAgJiN4YTsgICAgICAgICAgICAgICAgICAgICAgICAgICAgICAgICAgICAgICAgICAgICAgICAgICAgICAgICAgICAgICAgICAgICAgICAgICAgICAgICAgICAgICAgICAgICAgICAgICAgJiN4YTsgICAgICAgICAgICAgICAgICAgICAgICAgICAgICAgICAgICAgICAgICAgICAgICAgICAgICAgICAgICAgICAgICAgICAgICAgICAgICAgICAgICAgICAgICAgICAgICAgICAgJiN4YTsgICAgICAgICAgICAgICAgICAgICAgICAgICAgICAgICAgICAgICAgICAgICAgICAgICAgICAgICAgICAgICAgICAgICAgICAgICAgICAgICAgICAgICAgICAgICAgICAgICAgJiN4YTsgICAgICAgICAgICAgICAgICAgICAgICAgICAgICAgICAgICAgICAgICAgICAgICAgICAgICAgICAgICAgICAgICAgICAgICAgICAgICAgICAgICAgICAgICAgICAgICAgICAgJiN4YTsgICAgICAgICAgICAgICAgICAgICAgICAgICAgICAgICAgICAgICAgICAgICAgICAgICAgICAgICAgJiN4YTs8L21ldGFkYXRhPiYjeGE7PGc+JiN4YTsJPGc+JiN4YTsJCTxwYXRoIGQ9Ik0xNy4zLDQxLjV2LTEuOGwyLjQtMS4ySDIwbDAuMS0wLjVoLTguOFYyNUgwLjVsMC4xLTEuNmMwLjMtNCwyLjYtNy42LDYuMi05LjQmIzEwOyYjOTsmIzk7JiM5O2MwLjgtMC40LDEuNC0xLjIsMS41LTJjMC42LTIuOCwyLjUtNS4yLDUuMS02LjRjMS4xLTAuNSwyLjMtMC43LDMuNi0wLjdjMC4zLDAsMC41LDAsMC44LDBjMC4xLDAsMC4yLDAsMC4zLDAmIzEwOyYjOTsmIzk7JiM5O2MwLjgsMCwxLjUtMC4zLDItMC45YzIuMS0yLjIsNS0zLjUsOC0zLjVjNC4xLDAsNy45LDIuMyw5LjcsNmMwLjQsMC44LDEuMSwxLjQsMiwxLjZjMS4yLDAuMywyLjQsMC44LDMuNSwxLjUmIzEwOyYjOTsmIzk7JiM5O2M0LjksMy4xLDYuNiw5LjYsMy45LDE0LjdMNDcsMjVoLTguOVYzOGgtOC44bDAuMSwwLjVoMC41bDIuNCwxLjJ2MS44SDE3LjN6IiBzdHlsZT0iZmlsbDojRkZGRkZGOyIvPiYjeGE7CQk8cGF0aCBkPSJNMjguMiwxYzQsMCw3LjUsMi4yLDkuMyw1LjdjMC41LDAuOSwxLjMsMS42LDIuNCwxLjhjMS4yLDAuMywyLjMsMC43LDMuNCwxLjQmIzEwOyYjOTsmIzk7JiM5O2M0LjcsMyw2LjMsOS4xLDMuNywxNGwtMC4zLDAuNWgtOS4xdjEyLjloLTguOWwwLjIsMS41aDAuOWwyLDF2MWgtMmgtOS45aC0ydi0xbDItMWgwLjZsMC4yLTEuNWgtOC45VjI0LjVIMS4xbDAuMS0xLjEmIzEwOyYjOTsmIzk7JiM5O2MwLjMtMy45LDIuNS03LjIsNS45LTljMC45LTAuNSwxLjYtMS40LDEuOC0yLjRjMC41LTIuNywyLjMtNC45LDQuOC02YzEuMS0wLjUsMi4yLTAuNywzLjQtMC43YzAuMywwLDAuNSwwLDAuOCwwJiMxMDsmIzk7JiM5OyYjOTtjMC4xLDAsMC4yLDAsMC4zLDBjMC45LDAsMS44LTAuNCwyLjQtMUMyMi42LDIuMiwyNS4zLDEsMjguMiwxIE0yOC4yLDBjLTMuMiwwLTYuMiwxLjMtOC4zLDMuNmMtMC40LDAuNS0xLDAuNy0xLjcsMC43JiMxMDsmIzk7JiM5OyYjOTtjLTAuMSwwLTAuMiwwLTAuMiwwYy0wLjMsMC0wLjYsMC0wLjksMGMtMS4zLDAtMi42LDAuMy0zLjgsMC44Yy0yLjgsMS4yLTQuOCwzLjgtNS40LDYuOGMtMC4xLDAuNy0wLjYsMS4zLTEuMywxLjcmIzEwOyYjOTsmIzk7JiM5O2MtMy43LDItNi4yLDUuNi02LjUsOS44bC0wLjEsMS4xTDAsMjUuNWgxLjFoOS43djExLjl2MWgxaDYuOWwtMS4zLDAuNmwtMC42LDAuM1Y0MHYxdjFoMWgyaDkuOWgyaDF2LTF2LTF2LTAuNmwtMC42LTAuMyYjMTA7JiM5OyYjOTsmIzk7bC0xLjMtMC42aDYuNmgxdi0xVjI1LjVoOC4xaDAuNmwwLjMtMC41bDAuMy0wLjVjMi45LTUuNCwxLjEtMTIuMS00LTE1LjRjLTEuMS0wLjctMi40LTEuMi0zLjctMS41Yy0wLjctMC4yLTEuNC0wLjYtMS43LTEuMyYjMTA7JiM5OyYjOTsmIzk7QzM2LjUsMi40LDMyLjYsMCwyOC4yLDBMMjguMiwweiIgc3R5bGU9ImZpbGw6I0ZGRkZGRjsiLz4mI3hhOwk8L2c+JiN4YTsJPGc+JiN4YTsJCTxwYXRoIGQ9Ik0xMS44LDM3LjVoOC45TDIwLjUsMzloLTAuNnYwbC0yLDF2MWgydjBoOS45djBoMnYtMWwtMi0xdjBoLTAuOWwtMC4yLTEuNWg4Ljl2LTIwSDExLjhWMzcuNXomIzEwOyYjOTsmIzk7JiM5OyBNMjIuNSwzOWwwLjItMS41aDRsMC4yLDEuNUgyMi41eiBNMTMuOCwxOS41aDIxLjh2MTIuNGgtMy4zdjFoLTJ2LTFoLTIuNHYxaC0ydi0xaC0yLjR2MWgtMnYtMWgtMi40djFoLTJ2LTFoLTNWMTkuNXomIzEwOyYjOTsmIzk7JiM5OyBNMTMuOCwzMy45aDIxLjh2MS41SDEzLjhWMzMuOXoiIHN0eWxlPSJmaWxsOiMyQzU5Njc7Ii8+JiN4YTsJCTxwYXRoIGQ9Ik00My4yLDEwYy0xLTAuNy0yLjItMS4xLTMuNC0xLjRjLTEtMC4yLTEuOS0wLjktMi40LTEuOEMzNS43LDMuMiwzMi4yLDEsMjguMiwxJiMxMDsmIzk7JiM5OyYjOTtjLTIuOSwwLTUuNywxLjItNy42LDMuM2MtMC43LDAuNy0xLjcsMS4xLTIuNywxQzE2LjQsNS4yLDE1LDUuNCwxMy43LDZjLTIuNSwxLjEtNC4zLDMuNC00LjgsNmMtMC4yLDEtMC45LDEuOS0xLjgsMi40JiMxMDsmIzk7JiM5OyYjOTtjLTMuNCwxLjgtNS42LDUuMi01LjksOWwtMC4xLDEuMWg5LjJ2LTJIMy4zYzAuNS0yLjcsMi4yLTUsNC43LTYuM2MxLjUtMC44LDIuNS0yLjIsMi44LTMuOGMwLjQtMiwxLjgtMy43LDMuNy00LjYmIzEwOyYjOTsmIzk7JiM5O2MxLTAuNCwyLjEtMC42LDMuMS0wLjVjMS43LDAuMiwzLjMtMC40LDQuNC0xLjdDMjMuNyw0LDI1LjksMywyOC4yLDNjMy4yLDAsNi4xLDEuOCw3LjUsNC42YzAuNywxLjUsMi4xLDIuNiwzLjgsMi45JiMxMDsmIzk7JiM5OyYjOTtjMSwwLjIsMS45LDAuNiwyLjcsMS4xYzMuNiwyLjMsNSw3LDMuMywxMC44aC02LjN2Mmg3LjZsMC4zLTAuNUM0OS42LDE5LjEsNDgsMTIuOSw0My4yLDEweiIgc3R5bGU9ImZpbGw6IzJDNTk2NzsiLz4mI3hhOwkJPHBvbHlnb24gcG9pbnRzPSIxNi44LDI4LjMgMTYuOCwzMS45IDE2LjgsMzIuOSAxOC44LDMyLjkgMTguOCwzMS45IDE4LjgsMjguMyIgc3R5bGU9ImZpbGw6IzJDNTk2NzsiLz4mI3hhOwkJPHBvbHlnb24gcG9pbnRzPSIyMS4zLDI2LjMgMjEuMywzMS45IDIxLjMsMzIuOSAyMy4zLDMyLjkgMjMuMywzMS45IDIzLjMsMjYuMyIgc3R5bGU9ImZpbGw6IzJDNTk2NzsiLz4mI3hhOwkJPHBvbHlnb24gcG9pbnRzPSIyNS44LDIzLjUgMjUuOCwzMS45IDI1LjgsMzIuOSAyNy44LDMyLjkgMjcuOCwzMS45IDI3LjgsMjMuNSIgc3R5bGU9ImZpbGw6IzJDNTk2NzsiLz4mI3hhOwkJPHBvbHlnb24gcG9pbnRzPSIzMC4yLDIxIDMwLjIsMzEuOSAzMC4yLDMyLjkgMzIuMywzMi45IDMyLjMsMzEuOSAzMi4zLDIxIiBzdHlsZT0iZmlsbDojMkM1OTY3OyIvPiYjeGE7CTwvZz4mI3hhOzwvZz4mI3hhOzwvc3ZnPg==;" vertex="1" parent="1">
          <mxGeometry x="985" y="180" width="70" height="60" as="geometry" />
        </mxCell>
        <mxCell id="ONW2D7bDHmSh4rAp80Xp-3" style="rounded=0;orthogonalLoop=1;jettySize=auto;html=1;exitX=1;exitY=0.5;exitDx=0;exitDy=0;entryX=0;entryY=0.5;entryDx=0;entryDy=0;" edge="1" parent="1" source="LbItfmBYyUvVAQTM5q1b-15" target="ONW2D7bDHmSh4rAp80Xp-2">
          <mxGeometry relative="1" as="geometry" />
        </mxCell>
        <mxCell id="ONW2D7bDHmSh4rAp80Xp-4" value="&lt;b&gt;Oracle Analytics Cloud&lt;/b&gt;&lt;div&gt;Self-service and governed analytics&lt;/div&gt;" style="text;html=1;align=center;verticalAlign=middle;whiteSpace=wrap;rounded=0;" vertex="1" parent="1">
          <mxGeometry x="940" y="245" width="160" height="45" as="geometry" />
        </mxCell>
        <mxCell id="ONW2D7bDHmSh4rAp80Xp-6" value="SQL" style="text;html=1;align=center;verticalAlign=middle;whiteSpace=wrap;rounded=0;fontSize=14;fontStyle=1;fillColor=none;opacity=60;" vertex="1" parent="1">
          <mxGeometry x="632.38" y="290" width="57.62" height="30" as="geometry" />
        </mxCell>
        <mxCell id="ONW2D7bDHmSh4rAp80Xp-7" value="Models" style="shape=document;whiteSpace=wrap;html=1;boundedLbl=1;align=left;spacingLeft=10;verticalAlign=top;spacing=0;size=0.3333333333333333;" vertex="1" parent="1">
          <mxGeometry x="520" y="420" width="90" height="30" as="geometry" />
        </mxCell>
        <mxCell id="ONW2D7bDHmSh4rAp80Xp-9" value="Seeds" style="shape=document;whiteSpace=wrap;html=1;boundedLbl=1;align=left;spacingLeft=10;verticalAlign=top;spacing=0;size=0.3333333333333333;" vertex="1" parent="1">
          <mxGeometry x="520" y="460" width="90" height="30" as="geometry" />
        </mxCell>
        <mxCell id="ONW2D7bDHmSh4rAp80Xp-10" value="Tests" style="shape=document;whiteSpace=wrap;html=1;boundedLbl=1;align=left;spacingLeft=10;verticalAlign=top;spacing=0;size=0.3333333333333333;" vertex="1" parent="1">
          <mxGeometry x="520" y="500" width="90" height="30" as="geometry" />
        </mxCell>
        <mxCell id="ONW2D7bDHmSh4rAp80Xp-11" value="" style="shape=flexArrow;endArrow=classic;html=1;rounded=0;strokeColor=none;fillColor=#666666;" edge="1" parent="1">
          <mxGeometry width="50" height="50" relative="1" as="geometry">
            <mxPoint x="630" y="470" as="sourcePoint" />
            <mxPoint x="670" y="470" as="targetPoint" />
          </mxGeometry>
        </mxCell>
        <mxCell id="ONW2D7bDHmSh4rAp80Xp-15" style="edgeStyle=orthogonalEdgeStyle;rounded=0;orthogonalLoop=1;jettySize=auto;html=1;exitX=0.5;exitY=0;exitDx=0;exitDy=0;entryX=0.5;entryY=1;entryDx=0;entryDy=0;" edge="1" parent="1" source="ONW2D7bDHmSh4rAp80Xp-12" target="X9KXB7GfNf-0JmmdcP_K-1">
          <mxGeometry relative="1" as="geometry" />
        </mxCell>
        <mxCell id="ONW2D7bDHmSh4rAp80Xp-12" value="Code Repository" style="rounded=0;whiteSpace=wrap;html=1;strokeColor=default;align=center;verticalAlign=bottom;fontFamily=Oracle Sans;fontSize=14;fontColor=default;fontStyle=1;fillColor=default;" vertex="1" parent="1">
          <mxGeometry x="500" y="580" width="390" height="150" as="geometry" />
        </mxCell>
        <mxCell id="ONW2D7bDHmSh4rAp80Xp-13" value="" style="shape=image;verticalLabelPosition=bottom;labelBackgroundColor=default;verticalAlign=top;aspect=fixed;imageAspect=0;image=data:image/png,iVBORw0KGgoAAAANSUhEUgAAAoAAAAKACAYAAAAMzckjAAAABGdBTUEAALGPC/xhBQAAACBjSFJNAAB6JgAAgIQAAPoAAACA6AAAdTAAAOpgAAA6mAAAF3CculE8AAAABmJLR0QA/wD/AP+gvaeTAAAAB3RJTUUH6AcFDy0THPVDYQAAZt9JREFUeNrt3XmYXGWZ/vH7OVWdFbKHJNXd1dXdRQJEAQmKCCIjiyu4b6DouO/6c1/GUceZcZkZ92XcFcRlVFzRQdkUEUYNq0ESqqqrqqsqCYnZl0531Xl+fyQikIRs1V1V53w/1+XlJZJO9f2+p9777CYAaD/Bwmx2bnIknGWmWQ3zWabELJPPDqVZJp8lC2bJfaoCTZdrmqTJcpsh86SkWZImSZq+j589Q1LiQf+sIWnLXv+ma5tMY5I2ya0u8y2Sdsm0Q27bJI3Iw00u2xRIm1y20dXYlHDb5K5N9SnBpjW53HpJzpACaCdGBAAmSk9Pz9SwqyttDetRYD3uOsbkiyTNN9cxHtgid803af4+Slqnari0zqR7zX2Nm+6VdK/L1phrreRVT3glGBsrVyqVncwSABRAAB1lYGBg5kgjGDRX1oJwQK4eN6Xl6pWsR9I8UnpI6yUNy7xibiW5V1xBwU25kS7lN+RyW4gIAAUQwIRLpVLTPDn1+IT5ktCVNdOxkg1Kymr3kTuMn3sl5SXl3D0XmHKhgruDxshfOHoIgAII4IgtXbp00tatu45tSCdYoKUuP8FcS11aouicno2S1ZJWuOmuINSKUH7X2M6pt61bt2Ib0QCgAALYSyaTmTUaBg8LpGVutsykZS4dJykgnSgUQ1tupuVhqOWTgvofi8XiGmIBKIAAYiSVWjzPuuqnmQWPctcpkj9CUjfJxEpFstvMdIt7+AfVJ91crd79V2IBKIAAIuHsZDpdWRLKz3DTmXuO7B3Pto99WC3T7yz0G0Np+aQg/FOxWBwhFoACCKDNzVuy5OgpI/Uz3f2xMjtL0jJJU0gGh2FE0p8k/TYw++3I9sk3cj0hQAEE0CaFb9LOsdMUBOea+5mSHqndD0AGmq1h0ko3/U6hXa1G8lpOGwMUQAATIJPJTBkNgzODwM5z13mSThI3aqA1QpNuDc2utjD8dVcQ3sgpY4ACCKBJ0unFA6Ea53qgc+V6oqSjSQVtaKekG8396obs6tXl/C3iFXgABRDAwdl9Hd/Y+a7gKZI/WdICUkGncWlNIL9Ssit37Zjya64fBCiAAB5kYSaTSYaJ893sAsnPkzSZVBAhdUn/Z+4/CxP+49rQ0EoiASiAQCy3vd7egWUNC54VmF/o0glEghj5s6Sfhq4rVpfzy4kDoAACURYsSg8+IhHYBR76RTIdSySAym76sUL/fq1c+L2kkEgACiDQ6RLd6YGzZcGzJH+6pEVEAuxX1aQfyeyHlWLut5RBgAIIdJR0Oru0HuhF5n4JpQ84LDU3/WDPkcEbxR3FAAUQaEe7b+QInudmL5W0mESApim62fdkja9zAwlAAQRaLpVaPC9I1i+W2Yt892vXAIzvqvVHC3WZN7q+zZtIAAogMJGCVHrg8WZ2iaRnS5pKJMCEG5XsV3JdWi33/Ei6vk4kAAUQaLpUf/+SwBMvcPeXSOojEaBtrHbT94O6f6VSKdxJHAAFEDgi2Wx28sionuPmr5Z0BokAbc3d/YbA9MUpXcEPc7ncLiIBKIDAQevtzQ42EnqFub9U0nwSATrOJjddmgwTnyqXVxWIA6AAAvuz+9q+wF4p1zMlJYgE6HihpGvl9iWuFQQogMB9uruPm2tdo69wt9dJ6iERIKJcwyb/nMLRL1cqlQ0EAgogEEM9PQPHhkl7vbm/TLLpJALExi5J/5Nw+2i5nFtBHKAAAjGY86n0wDlmwZskfwrbABB7N7rbR2vl3M/F20ZAAQSiJZvNTh4Z04tceqvkx5EIgActhneF5v85e/rUy1esWDFKIqAAAh1s/vylR02euvNlbvY2cX0fgANba2b/nVT9k8VicRNxgAIIdJCF2ez8ZF2vc9cbJJ9DIgAOcXHcEpq+kWgkPzo8vLJGIqAAAu1c/DKZTCJMvFOml0iaQiIAjtBOk38tTOhjtUKhTBygAAJtZFF/f5958BZzvUrSZBIB0GRjkr5rDf1LpZLPEQcogEALLcxkMoES/4/iB2Bii6B/qFIp3EMcoAACE2hB35L+pNXfJddLJSVJBEAriqAS/q/VQmEVcYACCIyj7u5sj7r8fRQ/AG1TBE1ft3riXyqVVVXiAAUQaGrxO26ud9Xfbu5vlDSVRAC0mVGZvlFP6H1r8/l7iQMUQOAILFhw4vSuydte72bvljSTRAC0uW1u9rmRpP59Qy63hThAAQQOwdKlSydt2r7ztXJ7j6T5JAKgw9xrrn9dMH/Wfy9fvnyMOEABBA4glc5eYOYfl5QlDQAdzXWPZO+tlnM/EO8aBgUQ2Ftv78CpDdN/mdlZpAEgYm526a21Uv73RAEKICApNTjYaw39k1wvlxSQCICIcpl+UPfkO9eWVg4RByiAiKX585ce1TV113vN/M3itW0A4mOnpI/XR6Z/eO3aO7YTByiAiI091/l9RlIfaQCIqapc76mW85eJ6wNBAUSki18mc1wQBp9ys/NJAwAkSddbw99YqRTuJApQABEpmUxm1qgSHzTXa8UbPADgwepu+vyUwP+5UChsJg5QANHxc6w7M3iJXP8hnucHAAey1tzeVinnvkUUoACiI/X0DGY9aZ+X+3mkAQCH5DdujVfXisW7iQLjIUEEaLZly5Z1Jbqmvt0D+x9JS0gEAA5ZxhS86ujZc6cvmDfnhg0bNjSIBM3EEUA0VW//sWeFYfjfko4nDQBoipy7v6ZWLlxNFKAAoq2k0+nZDXV9QqZLmFcA0HRu8q8lLXxbsVjcRBygAKLluvsGniLZFyV1kwYAjGMLlNYE0msrpfyPSAMUQLREOp2e3Qi6PiLXK0kDACZ09f6+jyZeW6utWk8YoABiwux5k8d/S0qRBgC0xL1ye121nPsBUYACiHG1YHDwmGTdPi/5s0gDANpiJf9+I2mvW5PLrSMMUADRdD2ZwSe666viqB8AtJt7PbRX1IZzPyUKUADRFPOWLDl68q76f3KtHwC0vctGd0x57bp1K7YRBSiAOGzdfdnTJb9UUpY0AKAjFIMgePHw0D2/JQrsD28CwT4tW7asKzF5+j9L/g1J80gEADrGLHd/8dGz58xNd6euXbduHW8RwV44Aoi9pPr7l1gYfEfSI0gDADp6kV+uhr+gUincQxq4v4AIcH/d6cFLLAz+RPkDgM7n0jJP2PLudPZFpIEH7RwAu2/0mDTS+ILJLyYNAIjkiv/9LjVeyavkQAGEJKm3d+DUMLDviBs9ACDqijJ7QbWYu5ko4o2bQGK+A5DqG3ybzL4taT5xAEDkzZJ0yYzZs7dt3bTx/4gjxgWACOJpTjY7Y+pY+FXJnk0aABDLBvDTLjVezClhCiBiItWXfYTJvy9pkDQAIMZc9ygRPqc6NHQ7YcQLdwHHTHd68BKT/47yBwCQ6ViFwc096cFXEEbchh6xkMlkpox64jMmvZw0AAD7cJmP7Xx1rVbbQRQUQERAOr14oBE0fizXw0kDAPAQbg2D8Bmrh4ZKRBFtnAKOuJ5M9nENa9xM+QMAHIRHBGGwvDs9cA5RRBuPgYly+UsPvtKl70o6mjQAAAdpmswumjlz9uiWzRtvJI5o4hRwBGUymSljYeILMr2ENAAAh8tl3w4aIy+vVCo7SYMCiDbW07O425ONH8n1SNIAADQB1wVSANHOujPZR8v9x5IWkAYAoIlWB6E/bXi48EeiiAZuAolK+UtnnyP3ayl/AIBxsCgM7Lc9fQMXEUU0cBNI57Oe9MA7ZfqCpEnEAQAYJ0nJnjlz9lzbsmnDb4ijw8sDEXSubDY7eedY+BXJXkgaAIAJ4/qehbv+kZtDKICYYKnU4nnBpMYV7nosaQAAWuCmelJPX5vP30sUFEBMgN7e7GAY+P9KypIGAKCFCkr4k6qFwiqi6CzcBNJhejLHnhYGfhPlDwDQBgbUsN+n0oNnEAUFEOMklck+zT28VtJ80gAAtIm5ZvpVd3rgqUTRObgLuFPKX1/2ZSa/VNJk0gAAtJkumT1vxuzZ927dtPFPxEEBxJGznkz2A5J/XByxBQC0r0Cypx49e86crZs2XkUcFEAcwfh0pwe/KunNRAEA6AQmnXb0rDmprZs3/kKSk0jbjhPa0dKlSydt2rbzcsmeTRoAgI4rGK6fJIPG84vF4ghpUABxEBYsOHF61+RtV7jZ+aQBAOhg1+6aknz6+pUrtxIFBRAPIZ1Oz25Y15WSTicNAEAEmsYfNdb1pGr17r8SBgUQ+5DJZBaOeeIqSSeSBgAgKlxakQiT5w8Pr6yRBgUQ97Mwk8kkPHGNpAHSAABEUM4Tfk6tUCgTBQUQe8pf0oNrXdZPGgCACCsHoT1+eDiXJwoKYKx1DwwsVsOukdRDGgCAyHMNW6jHVyr5HGG0Dg8WbqFUf/8SNew6yh8AIDZMvWFCN6TT2aWE0cphQEss6jv2+EDhNZIWkQYAIIbutYafW6kU7iSKiccRwBbo7u8/KVD4G8ofACDGjvGEXd3T38+TL1qAI4ATLJXJHGeeuF7SAtIAAEDrglCPHx7O/5koKICRtOeGj+vFkT8AAO7v3obbP6wp5+4iCgpgpPT0DBzrCbteUoo0AADYy1q3xtm1YvFuohh/XAM4ARb19/d5wn5N+QMAYL8WmCd+nU4v5oUIFMDOlxoYSCdCu05SH2kAAPCQehrWuG5hJpMhivHFKeBx1Nu7JBUG9RvE690AADgUuS5rPLZYLK4hivHBEcBxkslkZoVB4xeUPwAADll2TIlf9fT0zCEKCmDHSKVS08Y88XPJTyINAAAOg+vhnpj0i/nzlx5FGBTAtrd06dJJSk69QtIZpAEAwJGw0yZNG/lRNpudTBYUwHaW2LR95FtmegJRAADQFOeOjPl3pbOTRNHEwkIEzdtN6U4PflXSxUQBAEBTHXf0rC2Ltm7e+HOioAC2lVQ6+2EzvZ4kAABoPpOWzZw917Zs2nA9aVAA20J3ZvBVJn2EJAAAGFePO3rW3PVbN2/4I1EccaHGkUilsxeY+Y8o0wAATIiGm55dK+Z/TBQUwJbo6e9/lId2rWTTSQMAgAmzU7JzqqXcTURBAZzY8tczmPWEbpR0DGkAADDh1ivhZ1QLhVVEceh4DMxhOKa/f4ES/ivKHwAALTNPDbsylVo8jygogOMuk8lM6QqDH7msnzQAAGiprHU1eFA0BXDc2agnvyLpdKIAAKAtnLlz1L8pLms7JNy5egh6MtkPSP4GkgAAoI2YHjZj1tzRrZs33EAYFMCm6k5nnyP5Z9nDAACgLT3+6NmzV23dtPHPRHEwnRkH1Ns7cGoY2G8kTSMNAADa1k6ZPb5azN1MFBTAI5IaGEhbw/4gaQFpAADQ9lZbI/HISmVVlSj2j5tAHkImk5liof2A8gcAQMdY5InGz3p6eqYSBQXwsIx58vNyPZIkAADoKI/wxOQvEsP+cRPIfqT6Bt9m0jtIAgCAjnTSzJlzNm7ZvPH/iGJvXAO4r/KXHjjXzH4pKUkaAAB0rLqk86ul/HVEQQF8SAszmUzCE3+UxKtlAADofH9NeOJR5fKqAlH8HdcA3k8qlZqWUOKnlD8AACJjbsMaP8hkMlOIggK4T5ac+jm5Hk4SAABEyiNGPfEZYvg7bgLZozsz+CpJ/0QSAABEj0mnHD17dnnrpo23kQbXAO4uf/39JykMbpLEM4MAAIiuEZc9plbK3Rr3IGJ/CjiTycxSGFxB+QMAIPKmmPx/BgYGZlIA481GPfE1SQNsEwAAxEJ2tG7fVMzPgsb6GsA9D3t+I9sCAAAxYjpu5szZsX5IdGzbb2/vwKlhYDdKmsSWAABA7Ozacz3gLXH85WN5Cnj+/KVHhYFdTvkDACC2Jpv8e/OWLDk6jr98LF911jVt1xclLWbuT7h7Jd3r7hvMbFSSzD10s8ClWSbNcGmGSQuJCkDEjEqqye1emW+RtEWmbXIPZDZZkuSaJ9M8udKSZhLZhMhO3ln/jKSXxO0Xj90p4FRm4B/N7WvM+Ynit4Whv3HX5MTtG3K5LQfzJzKZzJSxIEh7XWlZ0Gfy4yWdtOc/88kUQBsrS7rT3e5U4LebrBg0EuXh4ZVrJIUH+0N6e5ekwkT9fLm+TqQTUYb8hZVS4XIKYFTLX3//EgttuWTTme4TNMFcr6yU819u1s/r7V2S8qB+kswe7e5nSTpNPMIHQGt2cLdLdrO732BmNyR87NZyubyxqetW3+AfTTqVrMe9DG2x0E4ZHs7lKYARk81mJ+8cC2+W7GSm+oQZ6bLGomKxuGk8x3XHaPhIs+As8/BxbvY4SZOJHsA4GJXZb9z912Z2w8K5M5cvX758bDz/wp704Bvd9Cmin5BG9MeFc2edMd5jSgGcYD19gx9z6e3M8IncOdb3quX88yfyr0ylUtOUnHaOBf5Ud13I9YQAjnCZ3CDzaxTq55OT/pNCobB5Iv/2hdns/MSYVyV1MRYT4l+rpfz7KIARsai3/7FBEFwvHnw90Q3wqdVS4coWfoBEKj1wemB2oeTPdlk/YwLgINQk/24QJH4yPHTPjZIarfww3ZmBn8rtAoZlQtQlO6tayt1EAexwCxacOD05ZfttkrLM6wl178J5s3ra6VD6ovTgMgt0ibleIG4mAfBAO2X6uYd2Wa3c80vp+nq7fLDudPa5Mv8eQzRhCrumJE9ev3LlVgpgB+vpy37V5S9lPk80/0S1VHhLO36y3dcN6nwL/EVyPU08DxKIq1DSTea6dGRq8jvtuuBnMpkpY55YLWkWQzZRS5j+u1rOv4YC2KFSvdkLLfCfMJNbse3YKbVS7tZ2/5zd3cfNtcTYxW56raQljBwQC6vd/YsJ7/ry8PDKWkesZ32DXzLpFQzdxC1jJn9qpVT4BQWwwywYHDwmWdedko5hHk/4pLqrUsov7bSPnUr3n2tB8Hq5nqKYvycbiKgb3fTZRXNn/bDT7vTs7T/2rDAMf8MQTvCOwljixFpt1foo/nKRvSkiWbfPU/5atNvkHXnU1WvloV9Xi/mnNayRNdPHJP2V0QQ63k6Tfc1lp1RL+TNrxfx3O/ExH3tuRuE7aWItsmTjs1H95SJZALvT2edI/izmboualNnPO/nzrykWi5Vi/p1d1uhx85dKdjujCnSc1eb+LtW7eiul3Ms64ZKUA2hI+gXDOsFMz0tlBp8ezV8tauWv+7i5So6tkLSAmdsS66ql/CK1+LEJzZZKD5xrZh+U9BiGGGhrJXP/hMLRL1UqlZ2RWt+4G7glXFoTNHYtrVQqG6L0e0XvCGBy7LOUv5ZuKVdGrfxJUq1cuLpayp/h7o+VOvsIJxBRBXN/89QuW1IpFz4VtfInSTsn6X8ljTLUE8ukhZ6c/IkI/l7RkUpnLzDznzJdWzmh/FmVUuGKqP+e3ZljT5aHb5F0sXjAONDKL507Feo/q+X85VHc+dzru6dv8GpJ5zDwE8/Nnl4r5iLzZJHILFzpdHq2mX+RKdpSu0amdP06Dr9otXjPbdVS/hJr+MkmfScOCw/QZsXvj+52YbWYP6lazl8al23Q3H/G4Lcs+88ODAzMpAC2mYa6PiFpEVO0pRvHb6L+5PQHq1QKd1ZK+YuCUCfL+GIGJsAquT2nWsyfVivnfibJ4/U9G3AJSuv0jDTsPyiAbaS7b/AfZLqEudlaHuiXcf3dh4fzf64WCxfuvkZQNzIbgCZ/v0hrZP7ahfNmPaxazv0gbsXv7981ubykVcyIFhVw6eWp9MCZFMA2kM1mJ0v6nGLwWru2/4L24Ldxz6BWLvyuWsqf6e7n8fgYoCnfLNvd7KMjXbakWix8oROf4df8EuI3MC9aF7+ZfWVP96AAttJIXe+WdDxzsuW21Uo9dxDDfUXw6mopd4rcnmvyIRIBDtmYTF8aC3ywVsy9a0Mut4VI9lRis9+RQkst2Tmmt3b+jkQHS/X3L7EwuF3SZOZjiyeS+68q5cITSGJve17k/jpJ75Y0l0SAA/Qb6buBJ/6pXF5VII699fZmB8PAcyTRUjuD0B6+55R8R+rkI4BmYfA5yl/b7JFySmI/isXiSLWU/6+Ejx3rpk+LO4aB/X2T3ObuZ1VK+Ysof/u3p3TUSKKlprqFn+/kX6BjC2B3ZvDF4llIbdTGKYAHUi6XN9aK+TcpCJeZibyAv9tk7m+ulgqn1soFTm8e1JcuN5u1fHfF7PyevoGLOncKdaB0Oj27YV0rJc1nCraFUWvsmhXFJ++P57bX0zdwkcs+JilFHIdsRNI2SVsk3yLZdndts0BbzH1LaLZdsr/PxzDcGez+M7u/uINg1ELf/vf/LbPQZz3gy12a6UFw306yhT5L5tNdNt2ko12aZdJ07f7P0ZJmioeCH6rQ5F+vdwXvXpPLrSOOg9eTHnyjmz5FEi0ugdKakS5b0onXqCY7MfC6dX3QKH/tZDnl79C/NyqlwuXzliz56ZRd9X9y15slTYppFg1JayRb7+5rZLbeXOtkvt5ka0PTOoW+3pK+zkZH11cqlc1q09PoqVRqWldX18xGIzHPAx3jgY4JQpvvpnlyzXfTgsA0z13zJC2UNDvGC+efgiB8XWVo6A98HRxOc7YbLJ5PwmmvPXlp4dSx8P1S590U0nFHANPp7NKG+W2dWl4jugF8tlLKv4EkjmBvvmfgWE/YJyU9OYK/3oh2X69UkKlgstUKvRbKC0klC+VyqixdX4/juGcymSlhOClVV33AZCmTL/LABuQakDQgqVdSV8R+7Y3m/sFKufBZcT3sETg72d03vE1cB98O6tbwUyqVwp0UwHH8vN19g9dJehzzra1m0aurxTyv4WuCVGbw6YH7x13W31mf3LdLtkquVRbYSnm40kKtSiTCXLFY3MTIHrZEamCgW3UtlgWLZb5EoZYE5otd1qfOOuUcyvUlC3e9t1KpbGBoj1x3X/Y2yU8iibZwdbWUP48COG6L48ALzO3bzLM2W/qlM2ql/O9Jojl6enqmKjn5A+56i9ruSLdtkPxWmf4s+UqFWuVdtqqWzw8zchMrm81OHhkJFyuhxW7BYrkfL+kk7X4ualsdNTTpLjd7WbWYu5mRa2YBHLhMsheSRLvMc392pVT4IQWw2eUvlZpmXVP/IinNNGuv/rezy2bxkNZx+HLv7z/Jw+ArJp3aoo+wWrLlZlruoVYkpLvK5dxdEhcetbNly5Z1rVu3eXFDvswDO8FcSyU/Ta25brruZv81Lan353K5XYxOk3cW0wPvdLOPkES7rIYaru+afvzatXds74SP2znX0SWnvU9yyl/7KVH+xkd1aOj2ZcuWPWbN+s1vl/x9kqaM41+Xl/wmc/tDw8Pbdk1O3M64dqY9r0pbsec/91nQt6S/S/WTXXqEpNMlnabddy+Pl1tkwctqxXtuY1TGielOQmir8ejtmrrjHZLe3xkftwMszGQyCU/8ZZwXQBzWDPKfVYuFCwlifO158v+XJf1DE37cmEl3hKYbLdRyT/r1tUKhTMqxk0ins8c15MsU6Axznem7Tx8f6bow5mYfnz198j+vWLFilJjHT3d3tkdJ5/KL9rLTE35cJ3yndkQB7O4b/I6k5zOv2tK/V0v59xLDhAhSfdnXmPzDOrQjN/fKdZ1Jv1civHnBnDm37jlKBDxAKrV4npLh6Wb+aElnafdRwkO5nvD3bo2X1YrFu0lzwtbHDYrx44TatFldWi3mX0wBPEI9mWNPcw9vUoe/tzjCE/0l1WL+mwQxgYv0wEDaGvYF7f+RMVsl+40svMbMr60MDd0prtvDYViw4MTpXVO2n+XSOZKfI9mJ2uedx77dXO+tlAufkRSS3IQWwJskPZok2kroskfWSrlb2vlDtv01gO7hf1L+2rn/WYkUJtaeUwtP6U5nnyPzz0mabdLtodnVCsOrZx899becekMz7LmY/Zd7/nPfEUIFOiNwP9elZWa6wQO9vFIorCKxlnwJD8spgG0mMPnHJZ3d3lOnjfX0DTzLZT9gLrXxLA8tu+fF5GiBdDo9u16v76rVajtIAxOtt3dJanh45WpxhLmF6+Tgf7j0NpJoP2729Fox95O2Xb/b9YMtXbp0krt9mCnU1sIZMyZzAXILlcvljZQ/tMrw8Moa5a/VLUN8B7cpc/+vpUuXtu0rPtu2AG7avvO1Mh3LFGprazjVCAAt3AsPxB387Wtw47aRV1IAD8H8+UuPktu7mTttj+v/AKCV3CiAbcykf563ZMnR7fjZ2rIAdk3d+VZJxzB12n5mc+oBAFr5NVxPsiPe3uZPHqm/kQJ4EFKpxfMCs7cwZzpgx1NaQwoA0DrV6t0bJNVJoq29vaenZw4F8EB7M13197g0g/nS/gLZJlIAgFbvi2szMbS1mWEw5e0UwIfQ07O4W7JXM1c65FvH+dIBgDbAznibM/M37e44FMB9S9Q/KGkqU6VTdjtDvnQAoNXlggLYCaZ6ov4eCuA+9PQMHOuyFzNHOkfAaQcAaIOdcQpgh1T1VyzMZDIUwAdP4MDeqw54NR3u/6VjG0kBAFpeLCiAnaEroUTbPOKuLQpgb292UKaLmRudJQh9KykAQKv3xvku7pyx0ksW9ff3UQD3CANx9K8DNYKARw8AQKs7hfEYmA4yKWgEbXEUsOUFcHcTdo7+dSALGiEpAECLv4tNfBd31IDppe1wLWDLC2AitPdJmsSM6DxBPWiQAgC0WEgB7DBdCU++I9YFMDUwkHbZi5gLnWnMjC8dAGgxM2dnvOP4y1p9LWBLC6DV7d3i6F/HCoI6BRAAWiwUO+MdaFIiDN4WywJ4TH//Aplewhzo7N1OQgCAVn8Xi+/iDuTSSxdms/NjVwCTjcSbJU1hCnTydw7jBwBt0CR4g1ZnmpYY8zfEqgDOyWZnmDnv/O3075xGcBQpAEDLd8enk0HHjt3r5i1ZcnRsCuCUUX+1pFkMfIdL8KUDAK0WuPNd3LF8zuRdjZfHogBms9nJZnoTgx6BL52QLx0AaHmFCGwaKXTyAPpbli5dOuE3xE54ARwZ9UskpRjxKExajgACQBsUCL6LO1vPpu0jF0W9AJqbvYWxjobQNJMUAKDlZhBBp3d4vU2SRbYA9vQNPEny4xjqaAhMx5ACALTcQiLobCYtTfVnz4tsAZRz7V+k9ljkfOkAQEudnZQ0hxwiUAJDn9CONGEFcGE6e4KbnccQR2myagEpAEDr9PTUFqjFb/VC0zxpUd+xx0euACYCf5Mm+Pw2xpcbRwABoJUaQYPv4eiwQI3XR6oAdncfN1euFzK2kZurfPEAQAsF7IhHzYvT6fTsyBRAJeuvksRziqKnpxXPLgIA7NkNdxsghUiN6PS6ul4RkQJ4dlLy1zCokZTYtHNnhhgAoDVcFMDIVUDT6yQlOr4A9vQNXyCphyGN6ERtKEsKANCqL2G+gyMonerNPqXjC6DcX81YRnn30wYJAQBahgIYxV4f+Ks6ugD29mYH3exchjLSe5+LCQEAWuHspOT95BBJT1zQt2Rcx3ZcC6AH/mrxfKJIC91PJAUAmHi9vcPHSZpMEpEUJH1sXG8GGbdyls1mJ7v0YsYw2szsRPF8RwCYcB74SaQQ6QX25dlsdtwK/rgVwJFRPUfSfEYw8mYtzGT6iAEAJrwhUACjbf6Ouj+j4wqgGzd/xEWgxMmkAAATzDkCGPmK7xq3LjUuBbB7YGCxpMcwdDGZoKE/ihQAYIK7gQWnEkPkndXTMzgud3qPSwH0MHipuC4sPjuh0hmkAAATp7d3cKnkc0giBkU/MT73U4xDATw7ae4vYsxiNDvNHskr4QBgAne8jbNsMfKPGoc3gzS9AHb3lZ8gKcV4xcrUzdtHH0EMADBBBZDLrOKkuzeTbfozlcfhCKC9lLGK4ZeRh+eRAgBMCJOJlyzESBj6P7Z1AezuPm6upKcwVLH0JCIAgPHXnTn2JEndJBGryv+MVGrxvLYtgJYYfaF4KnlcndbsyQkA2Bdnhzt+JqkrfF7bFkA3u4Qxiq1E0FU/nxgAYLz7nz+ZEOLHFDb1BtumFcBUJnOcpFMYohh/J3EaGADGVTqdni3p0SQRywp4Wk/PwLFtVwADJV/A4MR+cj5R43CrOgBgt3rQ9QRJSZKIJ0/Y89uuALr7RQxN7M3r7hs8ixgAYJx2s6VnkEKsNe1gW1MKYE9//6MkZRkXmOyFpAAAzTcnm50h1wUkEWvHp/qyTXnublMKoHvA0T/8bTY8O5VKTSMHAGiuKWN6jqSpJBFvgfwFzfk5Tfkseg5DAklyaYYmTb2QJACguUzOGRbIpYub0d+O+Ad09w2eLV79hvvNzcB9lBgAoOl2EgEkpVLpgSN+FeCRHwHk6B/uPx1c76qUCleQBAA0164pyedJfhtJwAJ7dqsLYCDT0xgK7N4X0Jdr5fzHSAIAmm/9ypVbg7DrKZLKpBH7BfdZkqxlBXDPIchFjAQk/aJW6n0tMQDA+BkeXllLuD1Z0ibSiLWenv7+R7asAJrpmYwBJN1aH5n+XOn6OlEAwPgql3Mr3MPnSuI7N848eFarCqBJRgGMPdtQV/JZa9fesZ0sAGBi1MpDv5bsnSQR5wLoR3QPxmEXwN7egVMl9TECsdYITBetLa0cIgoAmFjVUu7jcn2DJGLa/2T93ZljT57wAtiwgKN/sWfvGC7mriIHAGjRt3C467WSbiWJuLbA8LBPAx92AQzMedhvvPc8vl0t5T5OEgDQOpVKZWcYhM+QtJ40Yumwu9hhFcB0evGASyeQe2zlRqckXk0MANB6q4eGSmZ6kSQnjdg5cWEmk5mwAhiqzsuo42uXy567fuXKrUQBAO2hUsz/r+SfIIn4CTz55AkrgG72VCKPJ3O9vVbKcb0JALSZhfNmv0vy/yOJmK3L8qcc3p87RPPnLz1q0rSR9ZImE3vs/KJayj9VnGYAgLbU25sd9MBvcWkGacTGrtEdU+atW7di26H8oUM+Ajh52s4nUP5iabXqXZdQ/gCgfQ0P5/Lu9nqSiJXJXVN2Pf5Q/9AhF0B3Tv/GkUmvq1bv/itJAEB7q5Zzl0m6giRitEYnDv008KEWQJPpSUQdLy67vFLK/4gkAKAzJFV/vWQbSCI2C/X4FsDuzLEnSVpA0rGyLuzS/yMGAOgcpVJptbneRBKx0b0wnT2kx/MdUgF0D88j43gx+avX5HLrSAIAOkulnPuWS5y9iYmkDq2jHVIBDNzPJeJYuaJSKnAdCQB0qKCReIMkntsaA242PgUwk8lMcbPHEnFs7GhY463EAACdq1JZVXXpX0giFhXw7Gw2e9BPaTnoAjgaBmdKmkrAMWH2r2uKxSJBAEBnq5V6PynpDpKI/MI9fVfDTmt6AQwC4/q/+MhNTerjxAAAUXB9PQzD14vnuEZeGB78dYAHXQDd/Xyijck+hPTGXC63iyQAIBpWDw/d4LLvkETEuR10VzuoAtjT0zNHshNJNhaurJTyvyQGAIiYpL9L0k6CiDDzZXOy2YN6DeBBFcAwOeWxOoy3hqDjhLLgn4gBAKKnls8Pm+kzJBFpiWljfkbTCqB5eBaZxoDrsmrxntsIAgCiKanGhyXxWs8IC90OqrMdVAF0GQUw+kYTSvCoAACIsGKxuMmlj5JEdJl5cwrgnGx2hkknE2nU+efK5VUFcgCAaJtkjc9IKpNEZD0ylUpNO+ICOK3uj5GUJM9I29HoCj5MDAAQfcVicUTmfOdHV5clp5x+xAUwDO1xZBlxpi/zvl8AiI+pyeDrkqokEdFlPQgOeBr4gAXQzHn9W7SNasz+kxgAID52P+vVeOB/RLn7kRXApUuXTpK0jCgjPEmkb1aruQpJAEC81EemfVESZ3+i6VHS2cnDLoCbt48+QtIUcoysRtDw/yAGAIiftWvv2C7p0yQRSdNSfZWHH3YBVBg+igwjzHRFpVK4hyAAIJ4SPvY5STtIIoJLvIWPPuwCGJo9mgijK7Dgs6QAAPFVLpc3unQ5SURQaKcddgE0OQUwolxaMTx0zw0kAQDxlgj16d3LAiLFdHhHAFOpxfMk9ZNgROfF7vdBssEDQMwND+f/7O4cEIiexd3dx8095AJoyfqjJRn5RdLm+s7p3yIGAIAkmbgkKIrDasmxRx16AQyCR5JdNLl06Z67vwAAULXc8yNJq0kichXwtEMugO7O8/+iOyO+QQYAgL+7vi7p2+QQLS5/xCEXQEmPILoIVj/prlopdwtJAAAeUAhCcXAgakIdWgFcMDh4jKQUyUVxLrCBAwD2Njyc/7Nkt5NEhJh699zUe3AFsKuhU0gtmv3P6vYdYgAA7JtfRgYRk6yffNAFUPKTSSyCOwLuV/PeXwDAfruC6t+W1CCJKC3+9oiDLoAu4whgBIWm75ECAGB/SqXSakm/I4lINcCTD7oAyrkBJIIaYVfwM2IAADx0X/AfE0KEhnM/dwLvVQDnz196lKQBIovYBDD9fk0ut44kAAAPpaGQAhgti3t6eqYesABOmbLzeB3gHcHoPO7GBg0AOKA1xWJR8ttIIjISnpy65IAFMEzYCWQVxdEPKIAAgIPiLtaMCDFvLD1gATSJAhg9fy6XVxWIAQBwcI0h+CkhRKjQa++De8HerZ8jgBEc+l+TAQDgYNVKudskcd14VPr8Pg7u7eMIYLiUqCLnGiIAABwCl+l6YojKYB6gAKZSqWku6yOqSKnv7ApuIAYAwCHi4EF0DD74TuAHFEBPTuUO4Oj5w4ZcbgsxAAAOhdUpgBGS8K6uxfstgAnz48gocq4lAgDAoapU8jlJJZKIBvfg+P0WwNCVJaLIjfj1hAAAOEy/JYJoMNfgfgugGQUwYsKdk4I/EgMA4HC49AdSiEwF3H8BfPD/iQ4faulurv8DAByuIAgpgFHpBObZhyiAHAGM1J6bs+cGADh8M6dNu03SLpKIRCfYdwGck83OkDSfiCI02Gac/gUAHLYVK1aMyu12koiEhfPnLz1qrwI4edSPJZtoSYQcugcAHBkzZy2JyFBOPmrHwF4FMOD6v6ipT54c3EkMAIAjEcpuI4WoDKZl9yqAprCfZCIln8vluG4DAHCE/C9kEJGRlPXvVQDdAl4BF6lB1l2kAAA4UpOswXoSlW5gSu9VACX1Ek10GAUQANAExWJxk6S1JBGFBvj3rkcBjGwB5JA9AKBpOKgQAYE4Ahh5oQIKIACgSTioEIlR1IOOAKZSqWmSzyGa6BjbMXkVKQAAmsJ0DyFEwvxMJjPlvgKoyZM5+hetLXXDunUrtpEDAKApq4prmBSiMZT1eqLn7wWwYRTAaGFDBQA0T+CsKxHhid2ngQNJssC6iSRSw1shAwBAsyTCkAIYmYpgfz8CaKEvJJEosTIZAACapVQqrZU0ShJR6H++4L4C6KZjiCRK/Y9TwACApgpNXiWGzhdod+f722NgKICR2kzZSAEAzeWyGilEYBxNC+5XAI1TwFFi/ldCAAA0eW3ZQAgRKIDh/QvgnjaIyOylbSQFAECTGyBrSxRG0e5/CtgpgNEa3QZ7aQCA5gqNtSUa7jsCmJA0lzyio27spQEAmssVsrZEwzGSgmBhNjtnTwlERMxIJDaRAgCgmQJOAUdFsqenZ1aQHAlnkUWk7MjlcruIAQDQXBTAyJT5YNqsQF0+myiiVQCJAADQbC5xcCEixtSYHZgnKIBRG1cAAJpdAAPeBBIVgXxW0JDPIopIYQMFADS/NLizvkSEmWYFJlEAo4UjgACApnMKYJTq/OzAQo4ARqrVcwQQADAOQgpgdMZSPisIFVAAo7SHJuMIIACg6RKJJAUwIkyaGZiFM4giUhUwJAMAQNNLQ6PRIIXIFMBZgdymE0WkRjVJCACAZguDoIsUIlMWpgUKNI0gIsSNDRQA0HRBwPoSmaognxbIKYARG1Y2UABA04WNButLVJimBZKmkkSksIECAJrfGTgCGKXRnBpIHAGMGK4BBAA0XRhSACPDfRoFMHrYQAEATRdYyPoSHRRACiAAAAcWGkcAo1YAuQYwUrgJBADQfAGngCNUFXYXQAY0UthAAQDNFwacAo5OVVAykJQgiUhhAwUANB1HACMlGUgKyCFavX7p0qWTiAEA0GSTiSAyVSERiMeGRM7GjWO83xkA0FRumkkKkRnNBKeAIyiRCNlIAQBNZaIARqkqUAAjqBGwkQIAmiukAEYJN4FEcy/N2UgBAM1dW0yzSCEyOAIYzQLIRgoAaPLaEnJwIWoF0MkhWrhQFwDA2oKHGs5A0hg5sJcGAMABVpdZZBAZYxTACAo5BQwAaDLnJhAKINp8H43D9ACAZq8tHFyI0mhSAKO5kQYUQABA0+x5w9QUkogGl48GkkaJImIDaz6PFAAAzbJt27a5pBAd5rtPAdeJImIF0JUiBQBAs4RhopsUotQANRbIOQUcvXEVGyoAoGkaiYB1JVrGAjMKYAQtkM5OEgMAoCmcAwuRYhoNXEYBjJ6gp6e2gBgAAM3pC86lRdEq9GOByymAUdQ1xt4aAKBZFZACGK0GOBYYj4GJpNADNlYAQHPqn4ccVIjWiI4F7hwBjGa5Z28NANAcoRkFMFpGA5ntIIcIdnuu1wAANG1NsUWkECkjgbk2k0MkN1cKIADgiPX09EyVfA5JRIfLNgYKKIARHd4+MgAAHPFqMmlSLylEi0lbApM2EUUk6/2xhAAAOOLlpB4sIYXIjerGwN04AhjNet8zf/7SowgCAHBEy4n5YlKIWP1zbQ6cI4CR3WYnTR/NEgMA4MhWE1EAozakgTYHgUKOAEZVyF4bAOAIOQUwekOqTRwBjHTFd67bAAAcKQpgxATS5sB5DEyUcSMIAOCwzVuy5GhJPAMwYly2KUi4bSKKqI6wcQQQAHDYunbWF0sykohaAaxvChqTOAIYWZwCBgAcyTIScC15JIu9++ZgxHgMTITNPKa/fwExAAAOS8j1f1E0MjJzS7Ahl9sqqUEc0ZRs6ERSAAAcFrOTCCFyRteuvWN7IMklbSSPaAoCW0YKAIDD6n/SKaQQLS5tkKRgz/+uEUlEB9pFAQQAHLJUavE8SbxXPmICqXpfAXQKYJT33iiAAIBDLwqTGqeSQvS4ee2+AhjIKIBRHWhZprv7uLkkAQA4pPWDM0jRFNrfC6DLKYDRZZ4YfQQxAAAOqQByBimi4+qr71cAbTWRRFfARgwAOETm4hRwJDvB/Y4AyjgCGOm2z53AAIBDsDCbnS9TL0lEsBM84BpACymAkR5tbuMHABy8ZN05cBDZShD8/RRwGAScAo62gb6+Pl7mDQA4SHY6GUTTJKv//QhgLd+7WlJILNHdkscs+ThiAAAcDHd/PClE0lixWLz3vgIoXV+XtI5cItwApX8gBQDAgaRSqWmSHkkSUWz2WqM9B/yC+/1jrgOM9qCfTQgAgANKTj5D0mSCiKD73fRLAYyPxT09i7uJAQDwkB3BgrNJIZr8fi/+CO73T4eJJuKCkNPAAIADYa2IbLv/e9e7rwC6KU8yUR/4kL06AMB+zZ+/9CiJB0BHluuevQqgzO4hmaiPu7FXBwDYr8nTR86U1EUS0RSYcnsVwDAUBTD6BhZmMhliAADsBwcKoqy+jwJ41CTlxbMAIy8ZJi4gBQDAvriLNSLC9W/BglmlvQpgLpfbJalCPhHfuE1PIwUAwIP19AwcK+l4kohqAdDQ8uXLx/YqgH/rgSQUeY9Lp9OziQEAcH9hYM8ghQizB3a84EHtkOsAoy8ZWvLJxAAAeEA/4AxRpLk9sOMFD/o/eRRMLCaBsZEDAO5zTH//AkmPJonoCsKHOgJoHAGMRwPUkzKZzBSCAABI0qRGcKH2viwMUfJQp4ATDa4BjImj6h48nhgAABI3CMZC46FOAfsuHgUTE6Hs6aQAANjz9o9zSCLSHvAImL0KYKVS2SlXlZyiz6RnZ7PZySQBAPE2aerIMyVxWVC0Fe//CJi9CqAkuXQXOcXC7J2jupAYACD2RwReTAhRH2L9+cH/bK8CGAS6najiMiOcjR4AYmxRf3+fpLNJIurrvd1+wAIodwpgfDyhr69vETEAQDwFYXCJuPs3+vbR7fY+AugBBTA+kmNKXkwMABBbrAFxKPqeOHABLJd7VkoaIa7YeAkRAED8pNIDZ0paQhKRt7VcXjV0wAIoXV8XN4LEhklLF6UHl5EEAMRtATCuA4+HOyT5QRRASTJOA8dIYP5SUgCA+Fiw4MTpgfRckohF079jn2v/Pv9VDymA8ZocL+nuPm4uOQBAPCSmbP9Hl2aQRAxWePfbDroAKuBGkJiZ5omxlxEDAMSjE5j0emKIif10un0XwPrIHSQWu2+DNy5btqyLJAAg2lKZ7IXi5o+4CHdtn7TioAtgpVLZINcwucVK9+q/bnomMQBAxHf43f8fKcTGPevWrdh20AVw9wzhRpD4fSnoTaQAANHV099/oqTHkURcFvb9v93tIZ7+ve+LBhFpp3dnso8mBgCIJvfgraQQqwZ426EXQPf/I7hYfj1wagAAIqi3d0lKrueTRKwa/82HXgAbk27SPh4ciKhPFj17zykCAECENBL1d0qaRBKxUR/dMeWPh1wAq9W7/yppFfnFTuChvY8YACA6enuXpMz1CpKID5Nu398NIA9ZAPf88d8TYSynzbNSfdlHkAMARENo9X+WNJUkYjTm0kN2uIcsgOZ+ExHGswGahR8kBgDofAszmYxM/0gScVvJH7rDBQ/9f3IEMLbcLuCOYADofIkw8QFx7V/shAoPvwCWy7m7JG0kxpjuPIQcBQSATtY9MLBYpotJInZqa4rF4mEXQEnuEo+DiSk3O7+7b/AfSAIAOlRoH5KUJIjYuflA/0JwwB/BdYDxLoHSZ3hHMAB0nlR64Ey5nkMSsXTAS/gOXABFAYwzk5auXbfpNSQBAB0lYRZ8dvfXOGK4eh95ARydOulmSQ3CjHUL/FAmk1lIEADQGXrSA6+X/CSSiKVdU7t0yxEXwPUrV26VtII848ulGXVP/htJAED7O6a/f4GbcRNffN2Sy+V2HXEB3FMAfkOecS+B/hIeCwMA7a+rEXxU0kySiK1rD+ZfOqgCKLdfk2fsBZJ/+qDnDABgwnX3ZU+X6RKSiLVrmlYAR6cmrpc0RqYx53pkd1/2zQQBAO0nm81OlvxL4saPONsxtevgXuJxUAVwz3WAfyBXSP7v6XR2KTkAQHsZqfu/SHoYScR4hZZ+ezDX/x10AZQkM7uaaCFpcsP8Up4NCADto7sve7q73koS8WbSQXe1gy6AYRhSAPE3p6xZv+mdxAAArZdKpabJ/ZuSEqQR8wIYhAd9z8ZBF8BaOX2zSVuIF3u8f1F6cBkxAEBrBV1TPibTsSQRe/dWhobubHoBlK6vuzmPg8HfJAPT15YuXTqJKACgNbrTA+e47LUkAZddLcnHoQBKFnIdIB7gxM3bdn6cGABg4h3T379AZt8Ud/1id0k7pI52SAWwLgog9trjeF13ZvDFJAEAEyrR5YnLJHUTBXbPCBu/ArimnLtLUoWU8aAW+IXuzLEnEwQATIyevsGPyP08ksBudnctnx8etwK4Z7G/hqDxIFMVhv8zMDDAq4cAYJylMtmnuXjkC+5fzfyQ39h2yAXQA/0vUWPvnQ8du6sRfFVciwIA41f++vuXBO6X8l2LB5Y5/99D/zOHaErgv5Q0StzYx+7Bs3rSA+8gBwBovnlLlhytMPihSzNIA/ezdUpXcMhnZw+5ABYKhc3uuo68sc8KaPbhnnT2hSQBAM2zbNmyrkk76983iVdx4oFMvzzY178dUQGUJAv8JySO/U0PN/9qd9/g44kCAJrzvbpm3aYvmekJRIG9F93D62SHVQCDRtdPdAgPG0TsTJLs+6lM5jiiAIAj0903+EGZXkIS2IexwOu/nLACODy8sia3P5I79s/nmCd+mclkFpIFAByeVF/2ZZLeRxLYj9+Uy+WNE1YAJUkmTgPjQDKjnvjZvCVLjiYKADg0PX2DTzL5f5ME9lvFXD893D972AUw4RRAHMx+gk6dPFL/X0ogABy83v5jz3L59yUlSQP7Uw8aP5vwAlgu51ZIWkX8OAiPmTxS/+X8+UuPIgoAeGiLevsfG4bhlZJNJw3sj0nL1xSLxQkvgHv+8p8yBDhIZ0yaNkIJBIADlL8gCH4hie9KPCTXkZ2JPaICGDqPg8EhOXPy9JFfUAIBgPKHI2NBeEQd7EhfJZPo7husSTqGocAhuGZ0x5Snr1u3YhtRAIC059mpP5M0jTRwEIrVUr7/SH5AcIQfoCHTjxkHHKJzuqaNXLdgcJAdBwCUv3T2OZJ+QfnDwTLp+0f6M4Ij/xD2bYYChzF5T+2q+83dAwOLSQNAXPWkB98g8+9KmkwaOFgehJc3YR0+8rW8u2+wICnDkOAw/FWyC6ql3E1EASBO+8E9mez73f39RIFD9JdqKX/Ckf6QoAkfxM30P4wHDtNcKfx1T9/Ak4kCQBwsXbp0UqovexnlD4e362CXNePHNKMAyi3kNDCOZDZPd9mPU32DrycLAFG2MJudv2nbyFUmv5g0cDiVq6H6d5qy8jbrE3X3Dd4p6WGMDY5oZssu19iOV9ZqtR2kASBKUn3ZU0z+Q3HJFA7f76ql/GOb8YOCpn0k42YQNGOPxC+2rik3Luhb0k8aAKKiO519kcl/R/nDkS2S3rSu1bQCuOeOFGd00IQZfnJS9T+m0gPnkgWATpbNZienMoOfkvmlkqaSCI7AmI8mv9+sH9a0AlgrFMqSbmR80CRzzeyX3X3Z90hKEAeATpNOLx7YOarfmuuNpIEjZ1fVaqvWt10B3P3ZnNPAaKak5P/W3Tf4u97e7CBxAOgU3enscxrWWC7zR5EGmsHNL2/mz2tqAbT66PckjTJMaLJHe+C3dKezLyIKAO0sk8nMSvVlL5f5/0iaRSJoUv3b3tg5/WdtWwArlcoGyX7FQKHpU1+aIfNLU33Zbw0MDMwkEQDtJpXuP2/ME382+UWkgeayK9auvWN72xZASTKF32CgMG6bgPziXQ27o7tv4CmkAaAdzMlmZ/T0DXzWLLhKUjeJoOlrn9nXmr+eNt3Zye6+4ZKkFEOGcd4kfq66XlOt5ipkAaAVUunsBSb/nEy9pIFxsqpayh+nJj9pJWj+57y+LvdvMl4Yf/5UJf3PPemBN43PXAaAfevtXZLq7sv+wMx/SvnDOPuSxuExe+OyaCaU/IqkkDHDBJjpZp/s7hv8TW/vIG+iATDOzk52Z7L/LwzqKyV/FnlgnO1qdNml4/GDbbw+cXcm+yu5n8fYYQKFki7vssY7isXiGuIA0Eyp9MC5FtjH5Xo4aWAimPSdSik/LjcVjd9ps1BfYugwwQJJLxrzINeTyX4gk8lMIRIAR2phOntCd9/glWb2a8ofJpJLXx7Hcjk+li1b1rV6/aaySQsZQrRI0U3vrhXz3xOvKQRwiHp6Fnd7IvyQ5C8W1xlj4o3LzR9/M26v2Fq9enU4Y+bsuTJ7LGOIFpll0rNnzJpz4dGz567ZumnDKiIBcCDH9PcvmDVzzr8o8G9KepTG8WAJsD8ufXTr5o3j9ordcZ3UC/qW9CdVz7HnhLZgulOhfahazv1AHBEE8CALs9n5QV1vNfc3SJpGImih0XpSvWvz+Xs7sgBKUk964Co3O5+xRBu51c0+WCvmfkoRBNDbuyQVJurvkOuVkqaSCFrO9b1qOf/88fwrxr0Adqezz5b59xlNtOEGdo/JP6dw9EuVSmUngQDx0j0wsNhDe525XkHxQ5s5p1rKX9vRBXDZsmVda9ZvKklaxHjus4Vsl2ybpG0mbfLdpx0mS5q95785DTH+7nX3z4eTgs+vyeXWEQcQadaTGXyCy94i93PF9X1oPyurpfzxGuczVBMy8bv7Bv9J0odiPqA5yX/lClbIw1VKalWtUBg+0ACnUqlp6pq2RBYeZ27HS368ZI+VtIBtpOlGXLosCMLPVoaG7iAOIDoWLDhxetfk7RfL9CaXTiARtO8uir+2Wix8Ydz/mon4XVKpxfOsq1FS/I5mbZP0CSX8W9VCoZl3oFp3f/+JHgbnyXWumc7W7qOFaJ6bXf7lxshR31u79o7txAF0pkXpwWWB9AozvcClGSSCNvdXH9uZrtVqOyJRACWpOz34BZleHZ8x9B+MBf76e4eG1o57tt3HzbXE2MVueomkR7D9NHUD2eKub7vZl2ul3C0kArS/gYGBmSON4GKTv5zvRHSYf6+W8u+doPVtYqT6+5dYGNyleDwS5spqKX+hWvA+5O7+/pMstDe47EWSJrEtNbXU3+ayy61u361WcxXyANrHsmXLutas2/gEt+AFJn+6uH4anWc0qXqmVCqtjlQBlKTuvuzPJH9q1Ecw4fawcjm3opWfITUwkA4aeofLXiaJV6I1VyjpBnN9W+GuH1QqlQ1EArRE0JPJPtZDf4FMz5Y0l0jQsUyXVov5F0/cXzehBXDwHyRdG/Eh9Gop3zZHOfv6+haNKflBk14mHsg9LntsMr/KpR9pNPmzWm3VeiIBxncfuyeTPdM9fJpkz5HUQySIxu5MeHJ1aOj2SBbAPSXwFkX8moypXTYll8vtaqfP1Ns7cGoY2Kclnc5WNm4a7n6jWfCThAc/LpdXFYgEOHILFpw4vWvKtie424UyPUXSPFJBxFxTLeXPnci/cMILYE86+0I3vyzKo2jSkyul/C/b8aOlMgMvMbePS5rF9jbu7nC3X5j5r2YdNeXGFStWjBIJcJBrRc/AsWEiON+kJ0p+rriUBZHmT62WCldGugAuXbp00qZtIwVJ3RGugD+slnLPbtdPlxoc7LW6vibpXDa6CbNNsutdfpUl/FdNfiwQ0PHS6fTs0JKPd7Pz5TpfUoZUEA92d7WUO0ET/GrSljwBvScz8C53+3CUq7y7n1UrF37XzjOuJz34Bjd9RLwCqRVKMv3G3X5rifAGCiHipqenZ05oU860wM+S22NlvkxSgmQQv/6nV1eL+S9O/F/boj29hiWHJZse4SFdubPLHrUhl9vSzh8y1Zd9hMmvYG+7xXsM0hoz/dZdN5gFv6sWu/8sXV8nGURFamAgrdAeE7if6bLHaffbOLgxDXG3zhq7+lrxPvqWvQOxu2/gvyR7S8QH9opqKf8cteB5gIc0Ft3HzVVX/TtyP49tsW3skHSL5H9wsz+EavzfmmKxSCzoBJlMZtaoJR9loT9K5o9yt0eatJBkgL1q2Hurpdy/t+RvbuEXxMIxTxQU+dOP9oVqKfc6TfC5/cOQ6Okb/IhLb2ODbFv3uuvWINDtofy2MAxuX1PuWcWRQrRSanCw18b8JFlwosxPluskSce2cn0BOqQfbNjZpf5WnSls6QbanRn8pFxviv4g+yeqpcJbO6AEas91gZ8Up2Y6xYhLfw7kt7vsLybdVbfGX9YUi6VOmG/oHAuz2fnJuk5whce77HhzPVyykySfQzrAYTQD9/fXyoV/aVn9bOUv39u7JBUG9bzicHu/6dKFc2e9fPny5WNtXwL7Bp7pssvFYxc6+atlu8nudvlf3HVPoKAQyoe6rF6YqNcMofOk0+nZY+oaCGT9bt5vpqxJx7vrBPGWDaCZNnVZo79YLG6KZQHcXTYGP+PS62My4NeMBeHF9w4NrW37EpjJPs7dfy7pKLbTyBkxqeDSkEsFMxtyqRBYY2hk0qSh9StXbiWiaMpms5N3NBqZIAwGQll/IO93Wb/kA5L6xfNBgYnyoWop/8+t/AAtL4Dd3dkeJT0naXJMBn21pIurpfx17f5BU+mBM83sF5KOZluNlT/XkzpnbT5/L1FEw7Jly7rWrt/0Py49TVybB7SUSVvU2NXf6vfIt/yZS1u3btgyY9bclKRHxmTsj5b0wqNnztbWzRtvUBtfp7V188byjFlzrzfpOTEq6HFX9SB86ppCoUwUEdrrXL06nLTwmF8k6+FpkgZIBGip/6oOl65s9Ydoiz3B1MBA2hp2j6RJMZsE11nDX1WpFO5p5w+5qLf/sUEQXCUeGB11xYQnzuEdxtGVzWYn7xjzH+9+vRqAFtjmY4n+Wm3V+lZ/kLZ46vrWjRs3z5g9p1fSsphNhH4F9soZs+ZMmnn09Ju3bNnSlo/z2LZlU3nmrNm3SvZc8aT+qCp7ws+qFHNFooiuDRs2NGYePf0KBckzxMPfgQlnpk9Wh3M/bYfP0jaP+mio8WFJYzGcD5MlvU+JSStS6ewF7fohK6XCL0z+EvFokSjaakF4QY3TvrFQqVR27pqSvFDSLaQBTKgdYwn9V7t8mLY5mrNt06ZNM2fN7pPslJjuF8w20wtmzJpz4pxZM27YvHnztnb7hFs2b7xz5uzZuyQ7l+04Mhomf1alOPQ7oojRKvTXv47OPHr+lQr8+eImL2CC+GdWDxV+1C6fpq0e9lu38F8l7Yr5DHlmXcm7ujODL2nLowfFwkdM9jU25IjsdrjeUikVfkES8VOprKqGrgu1+7WDAMbX1nrSPtpOH6itCuDud53655knmiXX17vTg/+9dOnStrsxZsG8ma92998yTB1e/mRfq5TznyaJ+Fpdzi93+RtIAhh3/9Fuj9Zqu+dBdXcfN1fJsZx4IOnf3DgWhM9qt4dH9/X1LRpT8hZe8N6x8qM7ppy8bt2KbUSB7r6ByyR7IUkA47OvVR+ZfuzatXdsb6cP1Xbve61W7/6rmX+U+XKfM7rC4LepwcHedvpQpVJpdWD2Akl1hqjjNFy6hPKHvxndMfU1kvIkAYwD0wfbrfy1ZQGUpKTCT8o1zKy5z2Kr63c9PQPHttOHqhRz15v5+xiejvPhWin/e2LA36xbt2Kbmb1M3OUPNNvKarH3q+34wdrymW6bNm2qHz1r9maTPY25c5+ZCuzZM4+e85MtWzZuaJcPtWXTxhtnzJ59imRLGKKOcMvCebNetHr16pAo8MBteUNpxqy5CxSftzIB487kr9qy+dYV7fnZ2lci1Td4u0lLmUIPmExDaiQfW6msqrbLZ0qn07Mb6rpdpl5GqK25ZGdUS7mbiAL7Mm/JkqMnj9RXSlpEGsARu6layp+hNj2yHrRxcA1zfxfz58EruPV7onHtMf39C9rlM5XL5Y2S/6M4fdTuvkf5w0NZv3LlVpneTRJAE9Zr93e087rYzgVQ1XLh55KuZRrtZXFXGPwwm81ObqOxusalrzA0bWukYQ0Wdhx4Wy7mL5XbH0gCOHzm+kmtXGjrB+wHbR+iBe8RR5b25YydY+FX1Ean8Ue67G2SeJ1YW+6J2id3P2cTOIjpovCtxAActkZd9p52/5CJdv+AWzZtqM6YNfthkp3AnNqrHp84Y9acsa2bN97QDp9m54YNu46eOWuFmb1Q7X19adzcOzLJnrtzw4ZdRIGDsXXzxvLMmbMfI7NB0gAOcQ9K+trqcr7t35gVdEKYCU++U9II02qfPtTTN/iMdvkwtfLQryV9i2Fpp/0E++SGXG4LQeCQFjELPkAKwCF+3UpbulT/5074rB1RAMvlVQUz+xhTa9/zzaWvptOLB9pm4RhLvEXSeoamLUZju9VHvkgOOFTVUu4mc/8VSQCHsuPk7y+VSqspgM1UH/mIyYeYXvs0u2GNH6VSqWnt8GFqtVXrZXo7w9IOX0b21UqlsoEkcDhC+X+SAnBwTLpr4dzZn+uUz9sxBbBSqewMzd7CFNuvE23S1E+0zdGDYv6b4g7uVmskw8SniAGHvTNXHrrapLtIAjiIHW7p9cuXLx+jAI7Hl1Ex/2NJv2Sa7Xf2vTKVzl7QLp/Gk3qJpI0MTMt2R39YLq8qEASOaDs2fZoYgAOuv9+rlvLXddJHDjou5IS/WdIos20/a775VxYMDh7TFoU9nx82tzcyKi36PgpZuNGEeTS68zJJm0kC2O9Wst27Ou+yp44rgNVCYZW7fZwJt1/HJOr6ptrkMSyVcu5bLvs2wzLhCrVy/vfEgCPekavVdpj8ByQB7IcF/1bL54cpgBOgsWvav0qqMOv2MxelJ/akB1/RLp9nktVfJ6nEyEyo74oHqKNJQtc3SAHYB9c9U5PqyINSHVkA1669Y7ub3sbMe4g5af7x7oGBxe3wWYrF4iaXPUPSTkZmgjbsUN8hBTRLrVy4UVKeJIAHMf9/uVyuIx+yH3Rq5rVi/nviLtOHmpXT1dCl0tnJthivUu5Wl7+ecZmIodedw8P5PxMEmrlPqd1HlQH8vfz9rFoqXNmxBwo6OfvE7hsMuCFk/7PztFTf8P9rm9JeKnxNsi8wLuM+7hz9Q/MXi9B/TArAfXYkwuSbO3qb7uQPXy7nVpjZR5iHD1EF5O9fmMlk2uXzzDpq8pvNdAMjM37qnuBIDZpueLiwXK5hkgAkl97f6Y/ZCjp9EGZOn/xvLq1gOu63Ak4PPNE2R91WrFgxOinwCyTdwdiMi1VrSyt5Yw7GZc1z04+JAdCttVLvJzv9l+j4ArhixYpRM3u5pAZzcj8VUHpidzr77Hb5PIVCYbMn9VRxJ/d47JZyXSzGb8Ew/YIUEHNjCsJ/lK6vUwDbQLWYu1lun2FePkQvMP9MJpOZ1S6fp5bPDzfcniAZ76ltbt2nAGL8Vr6d028Q110j3j5aHRq6PRI7dJEpOPUd7xWPKdh/LZAWjnriX9rpM60p5+5y6TxJf2WEmrMZNCbpemLAeFm79o7tkv5IEoiplV3W+Leo/DKRKYC1Wm2Hu79aPPz2oUrga3t7Bx7ZVuNWyt0SujgS2JwRvmNNLreOHDDOOMqMOArd9bJisThCAWzHElguXG2yrzNP9ysRBvZptclr4v5mdTm/3KVzxZHAI/1+YmHGRLieCBC73Wvp87Vy/sYo/U5B1AYp8NG3SVrNdN2vR6cyA89vu/Jeyt0aKnispCJDdHg8DFiYMe52dtmfJIUkgRgpj0xJvidyfSlyo1Qub3S3VzFfH2JPxu1jqVRqWrt9rtWle/7SZY3TXfoTo3ToEkqQG8bdhlxui2SrSAKx2bl2e/36lSu3UgA7QK2c+5lkP2Ta7lePTZr2pnb8YMVicU1jZPrZMv2UYToka4eHV9aIARO0JHIjCOIy17+1u1NETxDVIWt06TWS1jJ597tL8+5j+vsXtGWTWXvH9mox/3TJ3iue73iwbiECTBRzjtIjDuukhhNef2NUf73IFsA1udw6k79U3BW8P0d3efAv7bzpVUu5f9fux8RQ5A8UlhlvVsEErhzMN0ReKNNLyuXyRgpgB6qUCr8w+eeZx/vdu3nZwnT2hHb+iNVS/roua5ws858xYA/5XbWSDDBREj7GfEPUfaJaykf6yQpB1EcwaeHbJP2Zubzv7/GE/J/b/UMWi8U11WLhQrk9VzwqZp/Mg7tJAROlVCqtlrSJJBBFLq3ossY/Rf33jHwBLBaLIy57sXh90X6ag57T0zPw8E74qNVy7vtBmDxR0nfFqf0Hqie5KxMTvUxyFBBRtCto+Aui9MDn2BZAaffbJsz8/czrfc8BTwQdk83w8MpatZR/QRiGjxM3Poy67HILwtOq1bs5MooJ3nk0CiCiOLHfU6kU7ozFbxqnopNKD1xnZmcxwffelZcFp1SL99zWaWPanR58oaR/kunYGI1X2d2/NikIv1gsFtcwfdEK3X2D/yLpfSSBCLm2Wsqfp5g86DyI0cCGSupF4rqVfe/Lh+EHOnFMq+X8pdVy7wlyvVhSlE+D7nTZt93D86ulfH+tXPgg5Q8t/dJwVUgBEbJRdXuxYvSWG4vbCPf0DVzssm8x1/fiDbeHrSnn7urkHZqevoEnhrI3mHR+BHZwdkm62uVXTLLwimKxyM4L2um79Mkuu5IkEIkF0PSCWjH/3VjtxMXzi2vw2y69gCn/oA1A+nKtlH9lJMa4Z+BYT9glki6SNNBBH32r5Fe56YqRZHDl7tduAW24jfX3n+hhcDtJIAKr37eqpcKL4vZbx7IADgwMzNzVsD9JyjLxH2Bno8v61uRy66I0x7v7so+W/FmSnizp+Db7fKOSbpJ0jUvX1Eq9f5CurzMV0e66u4+bq+TYepJAh1u1a0ry1Ci+65cCuL8vr/7+kxQGN0mayvx/gH+ulvIfiuovtzCTySSUeIJcZ0g6QxN7dNDlykm6xaVbTL68vuuom9euvWM70w4dKOjuGxxTvK4lR7TssIY/Oi53/VIA76enL/tyl3+ZbeABVldLvem4HIXKZDILRy15ooX+cJOd4PLFcvXJlJKUOLyWpzUmFSUV3a1ogRdNdveOpG7llC4itSPdN7hR0iySQCdy85fWioWvx/X3t7hPgO704DdkejGbwv02itCeVhvO/TTeKZyd7O6uLDQLZ1tXYnbDfbaFmiRJCnyaQtshC3dItjN0bZYFO9zGdk6R1sThAaLA7p3ogYLL+kkCnVd+7GuVUu5lcc4gGfdJ0BU0Xj3miRMlPYJNYrfA/KWSYl4Ar69Xq6pIPOoC2O/OomwTKaAD29+d4eiON8R+rY97AMViccSD8AWStrJV7PlSNz2lr69vEUkAOAAKIDqs+2mLAn92rVbbQQGEakNDK+X2cpK4T7LuiTcQA4AD2EEE6Cz+2mqhwLvTKYB/Vy3n/selz5DEnr0ks9cNDAzMJAkA+/2ekMZIAR1T/UyfrpQKl5MEBXAvi+bNequk35OE5NKMkYa9giQAPMSCSgFEp0zWP8yePuXtBEEB3Kfly5ePhUF4kaS/koZk0pszmcwUkgCwzzXVbZQU0AHWh4nGc1esWMF8pQDu3+qhoVIYhs/Q7jc0xF13PQzeRAwA9rmT6M4RQLS7MUnPWz00VCIKCuCBS+Dw0A0yfzNJSG727oXZ7HySALD39wOngNH2eylvqpby1xIEBfCgVYuFL0j2BZLQzMRY+AFiALCv5ZUI0Ma7KJ/fvZaDAniIFs6b+SZJ7DnIXplOZ5eSAwCgQ1y3cN7sNxMDBfCwLF++fMwau54jKRfzKJIN80uXLVvWxawA8PcFxFhD0I6KjS573vLly7lEgQJ4+CqVyga3xgXiifenrFm/6R3MCAB/45wCRvvZZg2/cE0ut44oKIBHrFYs3h2YPV9SI+ZRvH9RenAZMwLA7gboFEC0k9BDu7hSKdxJFBTAphku5q5y6V0xj6ErMPtqNpudzIwAALQVs3+qDed+ShAUwKarlfL/6dJXYr7Lf9LOun+J2QBAAWsI2mZt+kG1mPsIOVAAx820Lnu9u/823tuZLunuy76F2QAAaAM3WmP0EklOFBTAcZPL5XaNTAoukOz2mO9t/Ud338BTmBFArHcGuQYQrfYXa+y6sFKp7CQKCuC425DLbfGkXyCpEu+5Y99K9fcvYUYAsW2AFEC00uowCJ9UqVQ2EAUFcMLU8vnhhtsTJG2McQyzrBH8emEmk2FGADGsfwoogGiVrS57Cu/4pQC2xJpy7i4ze4akkdiGYOpNhIlfZTKZhcwIIIbfAMDEG3X3Z9ZKuVuJggLYMpVi7jce2vMU52cEmo4d88SN6fTiAWYEEKcFhFPAmHAu0ytr5cLVREEBbLnacO6n5or7XbEDDWtc29MzcCwzAgAwHsz93dVi/pskQQFsG5Vy/tNm+ljMY+jzRHBzTyb7OGYEEH3urCGYyAmn/66UCx8lCApg+5XAYv5dLrs85lvoHHe/qjs9eAkzAgDQJFdUy/nXEQMFsG3bz+yjJr/Upf+NeQ6TZfpmd9/A53htHBDpFYRrADERruuyxsWSQqKgALatFStWjAaNXc+UdB1p2Gt3jPnvenuzg2QBRHMjJwKMs5tGd0y5sFgsjhAFBbDtVSqVnT6286mxf2Xc7tXh1DDwO3vSA+9kvgER48Y2jfFcQW63xq6nrlu3YhtZUAA7Rq1W2zElqQtd+hNpaKqbfaS7b/AqjgYCAA64byGt8LHgXN7yQQHsSIVCYfMka5wn6RbSkCSdGwZ+Vyoz+Kn585ceRRxApy/SzhqC8ZDrUv28Wm3VeqKgAHasYrG4qZ7UkyS7mzQkSZPM9cZJ00bu7ElnX8gcBADcT8mTenypVFpNFBTAjrc2n7/XGsG5kvKkcZ+Mm1/W3Td4eyqTfZq4mBzoxAWE7RbNVAtCO6eWzw8TBQUwMiqVVVVP6h8kFUnjAR5m7j/uzgze3pMefGUmk5lCJECHcAogmmZdw+284eEcB0oogBHctcnnh62h8yTVSGOvheThbvriWJhY1ZMeeOcx/f0LCAVo882W5wCiOTYqCM9bU87dRRQUwMiqVPI5t8Y5lMD9MPW62Ue6wmC4uy/7g57M4BMlJQgGaMsKSAHEkX7pbwhCP786NHQ7WUz0couWWJjJZBKeuEbSAGkc+AtC8ivd7fuL5s/83+XLl4+RCdB63X3Zn0n+VJLAYbpXQUj5owDGT2pgIG0Nu0ZSljQO4QtDusrkV40l7ddr8/l74xrEvCVLjp62c2eyXC5vZFqAAogOUwsVnLu6dM9fiIICGEu9vUtSYVC/WtLxpHHIQkm3ye23kn5vYfD7SmVVNWq/5Pz5S4+aMmXn8WHClprrBJceJukESX0yvbpazH+RqYDWFMDBn0t6CkngEJWtoXMqlXyOKFonSQStNTy8srYwm31cYky/lvwkEjkkgaRTZH6KpDd7oqHuvsGyZH90D+8MTH9WQ3dUKoW82vwl4plMZtauMDEYyAYVaNA8HHTZoFyDspGeUGZyyff6k1yDBQ4ioKMUwiB8/OrSUIkoKICxtyaXW5dOp/+hEXRdJdcjSeSIpCVPm9mzXJISUnff4IhLeZMNuXzIbPd/y3WvJXz9ziBYsyGX29LsD7Js2bKu4Q0b5iTC5BzzcI7c5ipQr8kXytWrwFLm3u1S95hrZmCS9rS8+56uceDllQUYFEB0ipXWSJyzupSvEgUFEHuUy+WNc7LZc6eO+ZWSziSRpppi0lLJl+7uWPd7eFnDNLXh6u4b3CVpvaRtJm1zaatLI2baev8f5G5jZv63F5PP3v0PNVuSmTTLdx+VnCNpzpr1m47uUiAp3L1Mmj9w2XTfxxG9Q+MecCc/WsZ3z3vgYPx5LAjPvbeUX0sUFEA8yIZcbksqlXqCTZr2Y7mfRyITarKk7j2L2n0d7cENbT/nYbWPf3WilmDWX7RM4B44FRAHdquPJc6/t5bn3b7ttP0SQXup1Wo7ulS/UNKVpIEDL8CcggPQ1m7qssbja7VVlD8KIA6kWCyOVEv5p8n0JdLAAVAA0TJuxhqCh/h28p/52M5zi8XiJsKgAOLgNarF/KvM/V1Egf0uwIGzDQNowy8nfWPh3NnPqtVqOwiDAojDUCkXPurmL5VUJw3sYxPmCCBaifmHvbuf2Uer5fxLeWsTBRBHqFYsfN1De5Yk9qTwoG9ajgCCAoi20ZD5a2rF3LvUqvviQAGMXAkczv3UgvAfJK0jDdzX/1iAQQFEe9glt+dXi4X/JgoKIJqsMjT0hyC00yXx+hywAIP5h3ax0d3PrZZzPyAKCiDGyfBwLt9ljcdKuoU0EHAKGBRAtFbNGv64WrnwO6KgAGKcFYvFNbumJM+W2a9JI/ZbMAswgFa5IwiTj6xUCncSBQUQE2T9ypVbq8WeJ7vZR0kjvpy7gNFCZqwhMfbLyQk/a3h4ZY0oKICYcNfXa8Xcu8z1Kkncbh/LBsgpYLRy+nEEOpbjbvp0tZR/aqFQ2EwaFEC0UKWc/5K7P17SvaQROyzAYP5houyS6SW1Yv5NkkLioACiDdTKhd8lPHG6pD+TRoz2xDkCCAogJsb6IAjOrxbz3yQKCiDaTLm8qjC6Y8rpJv2YNFiAAeYfmuSOMAhPHR6657dEQQFEm1q3bsW2Sin/TDP7oHgSe/Q34ICbQEABxLgO8Q/rI9Mfs3poqEQWFEC0P68Ucx9w0wvE6+NYgIHx+6ph/kV4cN3so9VS7rlr196xnTgogOggtWL+e3teH1cljah+Q3MNIICmf7Nsl9vz97zTl5s9KIDoRJWhoT/4WOJkd11FGpHEERi0sCdwCUIErbKGTq+Wc/9DFBRAdLhabdX6Wjn/JHNnb44CCDRxBeEUcMS+TH48OeGP4s0eFEBEbF+9Ui58VNK5ktYSR0QG1Y1tGC2cf+yARETd3N9VKeWfwcOdKYCIqGopf53qdqqkG0kjElswCzBauYAw/zpfxaXH7TlAAAogIl0Cq7lKtdR79p73CPOomE7egLkJBC3kFMBOd91YEJ5aK+V/TxQUQMTGnvcIy58tiUP+nbsAsw0DOFShu3+gWsqfe+/QEJcEUQARR5VS4YowCE+S2x9IA8Ah7oKwhnSev5rpKbVy4YPipkAKIOJt9dBQqSuoP86lz4hTwizAwEHjJqQOc63qdnKlmP9fogAbLyRJxWJxpFbKv9HdzxcPju6k/sc1WGANwYGMmdkHq6X8edVqrkIcYOPFXmrlwtVd1niYSd8hjU7ofxwBRAvnHzeBdIK/uOy0SjH3AXHKFxRAPJRisbipUspfJNeLJW0lkbZegVmA0TLGGtLu3w5fqo9Mf2StlLuVOEABxEGrlvOXNqxxopluII223YApgGhlBWT+tad75X5htZh/1dq1d2wnDlAAccjWFIvFSrH38XteIzdGIu22i88pYLR0BjL/2m1EXFclVT+5Wi78nDRAAcQRur5eKRc+GoR+hqRV5NFWmzBHYNDKPRDmX/vYae5vrpXzTyqVSquJAxRANM3wcOGPozumLDPps+Ji4nbZ3WcbRusYBbBN/E4JP7lSLnxKPMoLFECMh3XrVmyrlPJvcOmxkv5CIi3fglmA0cL+5wlSaKkd5v6uain/uGqhwNkZUAAx/mql/O8Xzpt10p5rA0dJpEULsLMAo3Wcm0Bal73rqjAIT6iUCx8VZ2RAAcREWr58+VilXPioNfxUmf5IIq1YgAO2YbCGxMsmc72qVs4/afXQUIk4wMaLlqlUCndWi72PMfc3S84jByb2MADbMFq5B8IRwAllP7dG4mGVcv5L4lo/UADRHq6vV8qFTyU8eaKka8hjotYDtmEw/2LgXrleXC3lLqhUVvGqTlAA0X7K5VWFail/nkyvlrSZRMaXy7gGEK2tgBhvl6nedUK1nL+UKEABRNv3kmox/8Uuaxwn6TJxqmIcV19OAaOVOyCsIeNoVWD2xGopf0m1evdfiQMUQHSMYrG4plrKXxKEfprc/kAi49IA2YbRwunHEcBxqNXbzeyDs46a8vDhYu4q8sB4SRIBxtvwcOGPkk7vTg++UKb/kjSPVJq1VnAKGBxEiFCl/rkn/HXVQq5cIQyw8SIiwmo5f6k1di1x06clNYikCf2PU8BgDYmCle7h+dVS7oJaoVAmDrDxInIqlcqGWjH/Jpc9StJNJHKEG7CzDaOVeBD0Ee7C/e1074m18tCvyQMTiVPAaIlaKXeLpDO604Mvkuk/JB1DKoexfBingNHSGcgOyGEGJ9MPNBa8pVLNVTjdi5YcQCACtPJLsFrOX5rwseMk/7ikXUTCAoyOwhHAQ3eTux5bLeafW63m6H6gACK+yuXyxmqp8FZP6liZviSuDzyEwwhsw2AN6ZCN9R65Pbdayp9RK+dvJBCw8QJ71PL54Wox/6qG24kyfZ9EDmID5lVwaC2OAB7YX839XVMn2cOr5dz3xXNR0Sa4BhBtZ005d5ek53anB86R2ccknUIq+zmowDWA4CBCu9rhZp+ZEoQfLhQKvBUJFEDgYFXLhWskndqdzj5b5h+WNEgqLMBg/rW5UKYfhha+ffXQUIk4wMYLHB6vlnPfXzhv1vHmepWktUTCNoy2wSngB7paQXhKtZh/LuUPLB5AEyxfvnysUs5/aXLCl7j7ByRtJBVJEqeAQQFsvWvDMDyrWsqfVx0aup04QAEEmqxQKGyulQsfHN0xJW3ubxZHBNmGwfxrnRslnVMt5c9ZPTx0A9MBbLzAOFu3bsW2SrnwqdEdU7Lm/maX1rANA8y/CSx+j6+W8mdWS/lrmQZg4wVaVAQbI9Oze44Iro5VAMYpYLR4Bsa3+F3H8IMCCLTY2rV3bK+UC5/ysZ1Zmb0lNkXQPWT00UJxeWj7L2V2OsUPFECgTdVqtR3VYu4T1tg1aK43SSpHfBNex6ijhaI8/1zmP7MgPK1ayj+5WszdzHCDAgi0uUqlsrNSzn+6Wsr3u9uFkm6K5grlqxlttHAGRvEmrF2SLku4PbxaLFxYGRr6A+MMCiDQecJaOfezain/mDAMzzLpx5Iic9o0MKMAooWsGqFfZp2ZfbCeVLpayl9SLudWML6IMt4EgtjY85iGG9LpxQP1oPEmc3+ZZNM7+XdyDzk6gdbVP7M/uftTOvzXyJn7Z8P6yJertdoORhWx2X6JAHGVTqdnh0HyVe72BkmpDvwVRnZ22YINudwWRhOtkEoPnGlmnfr8u+vd7eO1cu5KReisAEABBA7S0qVLJ23auut5Zv4ml5Z10Ee/olrKP4sRRAsF3X2DJUk9HfJ5R132A3f/+OpyfjnDBwogAEnSovTgsiDQK+W6SNJR7fxZwzA8i7cPoNW6+7Lvkfzf2vxj5s39y2Nd9vW1+fy9jBpAAQT2ad6SJUdP3lW/SK5XSjqlDT/iNdVS/lxGCq2WTqdnN6xrlaR5bfbRxiT7qXvji7Xy0NWSnNECKIDAQevtHTi1EdgrTXqB2uOo4Eio4JTVpXv+wuigHfT0ZV/u8i+3yccpSvblLqt/rVgsrmF0AAogcETa5aigm7+0Vix8nRFBO60l3X3Z70veqmtS6yb9XKYvVor5X4mbOgAKIDAeensHTvVAL3HZcyXNn8C/+p+rpfyHGAG05Q7SSP0qSadP4F/7F0mXWyPxjUplVZVRACiAwIRYtmxZ15r1G893BReZwqeN43MFR116a62U/yypo10NDAzM3BUG35f7eeP416yW/Luu4Fu1Uu4WUgcogEBLzZ+/9KjJU3c93c0vknSemvSgdZOWW+ivGR4u/JGU0QESqfTAe83s3ZKmNOlnbpXpR252eW0od42kBjEDFECg7SwYHDyma0zPc9NFkh59mD/mZjf/dK1Y+J64pgkdprc3O+iB3uPyiw6zCI5J+pWbX67RkZ/UeEsHQAEEOklPz2DWE3q+TI+U1C/3gX2cKh5xKW+mFRbqRoX6RaWSz5EeOl1393Fz1TV2gUI9UaZlkjLa99HxXS7lTFrp0nVhl31vTS63jgQBCiAQqW0vnU7PkqRJkybtyOVyu4gEcbB06dJJG3bsWGTuUz1MTE+6bWo0gs212qqN4tQuAAAAAAAAAAAAAAAAAAAAAAAAAAAAAAAAAAAAAAAAAAAAAAAAAAAAAAAAAAAAAAAAAAAAAAAAAABorv8PQGJLKSt5J20AAAAldEVYdGRhdGU6Y3JlYXRlADIwMjQtMDctMDVUMTU6NDU6MTkrMDA6MDDvuAxBAAAAJXRFWHRkYXRlOm1vZGlmeQAyMDI0LTA3LTA1VDE1OjQ1OjE5KzAwOjAwnuW0/QAAAABJRU5ErkJggg==;" vertex="1" parent="1">
          <mxGeometry x="740" y="600" width="60" height="60" as="geometry" />
        </mxCell>
        <mxCell id="ONW2D7bDHmSh4rAp80Xp-14" value="&lt;b&gt;GitHub&lt;/b&gt;&lt;div&gt;Code management platform&lt;/div&gt;" style="text;html=1;align=center;verticalAlign=middle;whiteSpace=wrap;rounded=0;" vertex="1" parent="1">
          <mxGeometry x="680" y="660" width="180" height="30" as="geometry" />
        </mxCell>
        <mxCell id="ONW2D7bDHmSh4rAp80Xp-16" value="Models" style="shape=document;whiteSpace=wrap;html=1;boundedLbl=1;align=left;spacingLeft=10;verticalAlign=top;spacing=0;size=0.3333333333333333;" vertex="1" parent="1">
          <mxGeometry x="525" y="600" width="90" height="30" as="geometry" />
        </mxCell>
        <mxCell id="ONW2D7bDHmSh4rAp80Xp-17" value="Seeds" style="shape=document;whiteSpace=wrap;html=1;boundedLbl=1;align=left;spacingLeft=10;verticalAlign=top;spacing=0;size=0.3333333333333333;" vertex="1" parent="1">
          <mxGeometry x="525" y="640" width="90" height="30" as="geometry" />
        </mxCell>
        <mxCell id="ONW2D7bDHmSh4rAp80Xp-18" value="Tests" style="shape=document;whiteSpace=wrap;html=1;boundedLbl=1;align=left;spacingLeft=10;verticalAlign=top;spacing=0;size=0.3333333333333333;" vertex="1" parent="1">
          <mxGeometry x="525" y="680" width="90" height="30" as="geometry" />
        </mxCell>
      </root>
    </mxGraphModel>
  </diagram>
  <diagram id="_Wdf6FG8unDKkUpVr-tK" name="configuration">
    <mxGraphModel dx="1363" dy="821" grid="1" gridSize="10" guides="1" tooltips="1" connect="1" arrows="1" fold="1" page="1" pageScale="1" pageWidth="1169" pageHeight="827" math="0" shadow="0">
      <root>
        <mxCell id="0" />
        <mxCell id="1" parent="0" />
        <mxCell id="AX1sSN8mTPLwoX_LTjLj-21" value="&lt;b&gt;&lt;font color=&quot;#ae562c&quot;&gt;Oracle Cloud Region&amp;nbsp;&lt;/font&gt;&lt;/b&gt;&lt;b&gt;UK South (London)&lt;/b&gt;" style="whiteSpace=wrap;html=1;align=left;fontFamily=Oracle Sans;verticalAlign=top;fillColor=#F5F4F2;rounded=1;arcSize=3;strokeColor=#9E9892;fontColor=#312D2A;fontSize=12;spacingLeft=10;" parent="1" vertex="1">
          <mxGeometry x="40" y="50" width="770" height="480" as="geometry" />
        </mxCell>
        <mxCell id="AX1sSN8mTPLwoX_LTjLj-41" value="&lt;b&gt;&lt;font color=&quot;#ae562c&quot;&gt;Compartment &lt;/font&gt;&lt;font color=&quot;#000000&quot;&gt;sandbox-london&lt;/font&gt;&lt;/b&gt;" style="whiteSpace=wrap;html=1;strokeWidth=1;dashed=1;align=left;fontFamily=Oracle Sans;verticalAlign=top;fillColor=none;fontColor=#312d2a;strokeColor=#AE562C;dashPattern=1 1;fontSize=12;perimeterSpacing=0;spacingLeft=5;" parent="1" vertex="1">
          <mxGeometry x="70" y="87" width="710" height="413" as="geometry" />
        </mxCell>
        <mxCell id="AX1sSN8mTPLwoX_LTjLj-57" value="&lt;b&gt;&lt;font color=&quot;#ae562c&quot;&gt;Internet&lt;/font&gt;&lt;/b&gt;" style="ellipse;shape=cloud;whiteSpace=wrap;html=1;rounded=1;strokeColor=#9E9892;align=center;verticalAlign=bottom;spacingLeft=10;arcSize=3;fontFamily=Oracle Sans;fontSize=12;fontColor=#312D2A;fillColor=#F5F4F2;spacingBottom=13;" parent="1" vertex="1">
          <mxGeometry x="280" y="550" width="320" height="170" as="geometry" />
        </mxCell>
        <mxCell id="AX1sSN8mTPLwoX_LTjLj-22" value="&lt;b&gt;&lt;font&gt;VCN&lt;/font&gt;&lt;/b&gt;" style="whiteSpace=wrap;html=1;strokeWidth=2;dashed=1;align=left;fontFamily=Oracle Sans;verticalAlign=top;fillColor=none;fontColor=#AE562C;strokeColor=#AE562C;perimeterSpacing=0;fontSize=12;spacingLeft=5;" parent="1" vertex="1">
          <mxGeometry x="95" y="130" width="305" height="345" as="geometry" />
        </mxCell>
        <mxCell id="AX1sSN8mTPLwoX_LTjLj-23" value="" style="shape=image;verticalLabelPosition=bottom;labelBackgroundColor=default;verticalAlign=top;aspect=fixed;imageAspect=0;image=data:image/svg+xml,PHN2ZyB4bWxucz0iaHR0cDovL3d3dy53My5vcmcvMjAwMC9zdmciIHZpZXdCb3g9IjAgMCA0My41IDQyIiBkYXRhLW5hbWU9IkxheWVyIDEiIGlkPSJMYXllcl8xIj48dGl0bGU+VmlydHVhbCBDbG91ZCBOZXR3b3JrIFZDTl9yZWQ8L3RpdGxlPjxtZXRhZGF0YT4mI3hhOyYjeGE7ICAgJiN4YTsgICAgICAmI3hhOyAgICAgICAgIDIwMjItMTEtMTFUMTQ6MTA6MzgtMDY6MDAmI3hhOyAgICAgICAgIHhtcC5paWQ6MjA3ZGY0OTktZjdiYy00YmRkLTg1ZWUtOTI3NzJmN2ZjZDE0JiN4YTsgICAgICAgICB4bXAuZGlkOmE0MDYwYzU4LWIyMGEtNDQ5NC05Zjc3LTgyOTM3ZDdiYjlmYSYjeGE7ICAgICAgICAgeG1wLmRpZDphNDA2MGM1OC1iMjBhLTQ0OTQtOWY3Ny04MjkzN2Q3YmI5ZmEmI3hhOyAgICAgICAgICYjeGE7ICAgICAgICAgICAgJiN4YTsgICAgICAgICAgICAgICAmI3hhOyAgICAgICAgICAgICAgICAgICYjeGE7ICAgICAgICAgICAgICAgICAgICAgc2F2ZWQmI3hhOyAgICAgICAgICAgICAgICAgICAgIHhtcC5paWQ6YTQwNjBjNTgtYjIwYS00NDk0LTlmNzctODI5MzdkN2JiOWZhJiN4YTsgICAgICAgICAgICAgICAgICAgICAyMDIxLTA4LTMxVDE1OjQ0OjU3LTA1OjAwJiN4YTsgICAgICAgICAgICAgICAgICAgICBBZG9iZSBCcmlkZ2UgMjAyMSAoTWFjaW50b3NoKSYjeGE7ICAgICAgICAgICAgICAgICAgICAgL21ldGFkYXRhJiN4YTsgICAgICAgICAgICAgICAgICAmI3hhOyAgICAgICAgICAgICAgICYjeGE7ICAgICAgICAgICAgICAgJiN4YTsgICAgICAgICAgICAgICAgICAmI3hhOyAgICAgICAgICAgICAgICAgICAgIHNhdmVkJiN4YTsgICAgICAgICAgICAgICAgICAgICB4bXAuaWlkOjIwN2RmNDk5LWY3YmMtNGJkZC04NWVlLTkyNzcyZjdmY2QxNCYjeGE7ICAgICAgICAgICAgICAgICAgICAgMjAyMi0xMS0xMVQxNDoxMDozOC0wNjowMCYjeGE7ICAgICAgICAgICAgICAgICAgICAgQWRvYmUgQnJpZGdlIDIwMjEgKE1hY2ludG9zaCkmI3hhOyAgICAgICAgICAgICAgICAgICAgIC9tZXRhZGF0YSYjeGE7ICAgICAgICAgICAgICAgICAgJiN4YTsgICAgICAgICAgICAgICAmI3hhOyAgICAgICAgICAgICYjeGE7ICAgICAgICAgJiN4YTsgICAgICAgICAmI3hhOyAgICAgICAgICAgICYjeGE7ICAgICAgICAgICAgICAgVmlydHVhbCBDbG91ZCBOZXR3b3JrIFZDTl9yZWQmI3hhOyAgICAgICAgICAgICYjeGE7ICAgICAgICAgJiN4YTsgICAgICAgICAmI3hhOyAgICAgICAgICAgICYjeGE7ICAgICAgICAgICAgICAgTmV0d29yayYjeGE7ICAgICAgICAgICAgICAgQ29ubmVjdGl2aXR5JiN4YTsgICAgICAgICAgICAgICBWQ04mI3hhOyAgICAgICAgICAgICAgIFZpcnR1YWwmI3hhOyAgICAgICAgICAgICAgIE5ldHdvcmtpbmcmI3hhOyAgICAgICAgICAgICAgIGljb24mI3hhOyAgICAgICAgICAgICAgIGNvbm5lY3Rpb25zJiN4YTsgICAgICAgICAgICAmI3hhOyAgICAgICAgICYjeGE7ICAgICAgJiN4YTsgICAmI3hhOyYjeGE7ICAgICAgICAgICAgICAgICAgICAgICAgICAgICAgICAgICAgICAgICAgICAgICAgICAgICAgICAgICAgICAgICAgICAgICAgICAgICAgICAgICAgICAgICAgICAgICAgICAgICYjeGE7ICAgICAgICAgICAgICAgICAgICAgICAgICAgICAgICAgICAgICAgICAgICAgICAgICAgICAgICAgICAgICAgICAgICAgICAgICAgICAgICAgICAgICAgICAgICAgICAgICAgICYjeGE7ICAgICAgICAgICAgICAgICAgICAgICAgICAgICAgICAgICAgICAgICAgICAgICAgICAgICAgICAgICAgICAgICAgICAgICAgICAgICAgICAgICAgICAgICAgICAgICAgICAgICYjeGE7ICAgICAgICAgICAgICAgICAgICAgICAgICAgICAgICAgICAgICAgICAgICAgICAgICAgICAgICAgICAgICAgICAgICAgICAgICAgICAgICAgICAgICAgICAgICAgICAgICAgICYjeGE7ICAgICAgICAgICAgICAgICAgICAgICAgICAgICAgICAgICAgICAgICAgICAgICAgICAgICAgICAgICAgICAgICAgICAgICAgICAgICAgICAgICAgICAgICAgICAgICAgICAgICYjeGE7ICAgICAgICAgICAgICAgICAgICAgICAgICAgICAgICAgICAgICAgICAgICAgICAgICAgICAgICAgICAgICAgICAgICAgICAgICAgICAgICAgICAgICAgICAgICAgICAgICAgICYjeGE7ICAgICAgICAgICAgICAgICAgICAgICAgICAgICAgICAgICAgICAgICAgICAgICAgICAgICAgICAgICAgICAgICAgICAgICAgICAgICAgICAgICAgICAgICAgICAgICAgICAgICYjeGE7ICAgICAgICAgICAgICAgICAgICAgICAgICAgICAgICAgICAgICAgICAgICAgICAgICAgICAgICAgICAgICAgICAgICAgICAgICAgICAgICAgICAgICAgICAgICAgICAgICAgICYjeGE7ICAgICAgICAgICAgICAgICAgICAgICAgICAgICAgICAgICAgICAgICAgICAgICAgICAgICAgICAgICAgICAgICAgICAgICAgICAgICAgICAgICAgICAgICAgICAgICAgICAgICYjeGE7ICAgICAgICAgICAgICAgICAgICAgICAgICAgICAgICAgICAgICAgICAgICAgICAgICAgICAgICAgICAgICAgICAgICAgICAgICAgICAgICAgICAgICAgICAgICAgICAgICAgICYjeGE7ICAgICAgICAgICAgICAgICAgICAgICAgICAgICAgICAgICAgICAgICAgICAgICAgICAgICAgICAgICAgICAgICAgICAgICAgICAgICAgICAgICAgICAgICAgICAgICAgICAgICYjeGE7ICAgICAgICAgICAgICAgICAgICAgICAgICAgICAgICAgICAgICAgICAgICAgICAgICAgICAgICAgICAgICAgICAgICAgICAgICAgICAgICAgICAgICAgICAgICAgICAgICAgICYjeGE7ICAgICAgICAgICAgICAgICAgICAgICAgICAgICAgICAgICAgICAgICAgICAgICAgICAgICAgICAgICAgICAgICAgICAgICAgICAgICAgICAgICAgICAgICAgICAgICAgICAgICYjeGE7ICAmI3hhOzwvbWV0YWRhdGE+JiN4YTs8cGF0aCBmaWxsPSIjZmZmIiBkPSJNMzEuMTYsNDEuNWE2LDYsMCwwLDEtNS44Ny00Ljc3aC03LjFhNiw2LDAsMSwxLTguODUtNi40NEw3LjE1LDIzLjU1YTQuNzMsNC43MywwLDAsMS0uNjUsMCw2LDYsMCwxLDEsNC0xMC40NkwxNi4yNyw5YTYsNiwwLDAsMS0uNTMtMi40Niw2LDYsMCwwLDEsMTIsMEE2LDYsMCwwLDEsMjcuMjIsOUwzMywxMy4xM2E1LjkzLDUuOTMsMCwwLDEsNC0xLjU2LDYsNiwwLDEsMSwwLDEyYy0uMjEsMC0uNDMsMC0uNjQsMGwtMi4yLDYuNzRhNiw2LDAsMCwxLTMsMTEuMjFaIi8+PHBhdGggZmlsbD0iI2ZmZiIgZD0iTTIxLjc1LDFhNS41MSw1LjUxLDAsMCwxLDQuODQsOC4xMkwzMywxMy43OGE1LjUsNS41LDAsMSwxLDQsOS4zQTUuMzYsNS4zNiwwLDAsMSwzNiwyM2wtMi40NSw3LjU1YTUuNSw1LjUsMCwxLDEtNy44NCw1LjY5SDE3Ljc3YTUuNSw1LjUsMCwxLDEtNy44My01LjdMNy40OSwyM2E1LjM2LDUuMzYsMCwwLDEtMSwuMDksNS41MSw1LjUxLDAsMSwxLDQtOS4zMUwxNi45LDkuMTJBNS41MSw1LjUxLDAsMCwxLDIxLjc1LDFtMC0xYTYuNTEsNi41MSwwLDAsMC02LjUxLDYuNSw2LjQxLDYuNDEsMCwwLDAsLjQyLDIuMjlsLTUuMTEsMy43QTYuNTEsNi41MSwwLDEsMCw2LjUsMjQuMDloLjI5bDIsNmE2LjUsNi41LDAsMSwwLDkuODUsNy4xNmg2LjNhNi41MSw2LjUxLDAsMSwwLDkuODYtNy4xNmwyLTZIMzdhNi41MSw2LjUxLDAsMSwwLDAtMTMsNi40NCw2LjQ0LDAsMCwwLTQuMDUsMS40MmwtNS4xLTMuN2E2LjYyLDYuNjIsMCwwLDAsLjQxLTIuMjlBNi41MSw2LjUxLDAsMCwwLDIxLjc1LDBaIi8+PHBhdGggZmlsbD0iI2JiNTAxYyIgZD0iTTM3LDEyLjA3YTUuNSw1LjUsMCwwLDAtNCwxLjcxTDI2LjU5LDkuMTJhNS41MSw1LjUxLDAsMSwwLTkuNjksMGwtNi40Miw0LjY2YTUuNSw1LjUsMCwxLDAtNCw5LjMxLDUuMzYsNS4zNiwwLDAsMCwxLS4wOWwyLjQ1LDcuNTNhNS41LDUuNSwwLDEsMCw3LjgzLDUuN2g3Ljk0YTUuNSw1LjUsMCwxLDAsNy44NC01LjY5TDM2LDIzYTUuMzYsNS4zNiwwLDAsMCwxLC4wOSw1LjUxLDUuNTEsMCwxLDAsMC0xMVpNMzEuMTYsMzkuNTNhNCw0LDAsMSwxLDQtNEE0LDQsMCwwLDEsMzEuMTYsMzkuNTNaTTE3Ljc3LDM0Ljc2YTUuNDYsNS40NiwwLDAsMC0xLjY2LTMuMjVsMy00LjE5YTUuNTcsNS41NywwLDAsMCwyLjYxLjY1LDUuNDUsNS40NSwwLDAsMCwyLjYtLjY1bDMsNC4xOWE1LjQ3LDUuNDcsMCwwLDAtMS42NywzLjI1Wm0tOS40OS43NGE0LDQsMCwxLDEsNCw0QTQsNCwwLDAsMSw4LjI4LDM1LjVaTTYuNSwxMy41NWE0LDQsMCwxLDEtNCw0QTQsNCwwLDAsMSw2LjUsMTMuNTVabTExLjIxLTdhNCw0LDAsMSwxLDQsNEE0LDQsMCwwLDEsMTcuNzEsNi41Wm0xMy44NiwxMkwyNi43MiwyMC4xQTUuNTQsNS41NCwwLDAsMCwyMi40OCwxN1YxMmE1LjQ0LDUuNDQsMCwwLDAsMy4yNC0xLjY2TDMyLjE1LDE1YTUuNDQsNS40NCwwLDAsMC0uNjYsMi42MUE2LDYsMCwwLDAsMzEuNTcsMTguNTRabS01Ljc5LDMuOTNhNCw0LDAsMSwxLTQtNEE0LDQsMCwwLDEsMjUuNzgsMjIuNDdaTTIxLDEyVjE3YTUuNTEsNS41MSwwLDAsMC00LjIzLDMuMDlsLTQuODYtMS41NWE1LjE1LDUuMTUsMCwwLDAsLjA5LTFBNS40OSw1LjQ5LDAsMCwwLDExLjM1LDE1bDYuNDItNC42N0E1LjQ0LDUuNDQsMCwwLDAsMjEsMTJabS05LjU0LDgsNC44NiwxLjU1YTUuMjMsNS4yMywwLDAsMC0uMDksMSw1LjQ1LDUuNDUsMCwwLDAsMS43Miw0bC0zLDQuMmE1LjQzLDUuNDMsMCwwLDAtMi42LS42Niw1LjI1LDUuMjUsMCwwLDAtMSwuMDlMOC44OSwyMi41NEE1LjUsNS41LDAsMCwwLDExLjQ3LDIwWk0zMS4xNiwzMGE1LjU2LDUuNTYsMCwwLDAtMi42LjY1bC0zLTQuMThhNS40OSw1LjQ5LDAsMCwwLDEuNzItNCw1LjE1LDUuMTUsMCwwLDAtLjA5LTFMMzIsMTkuOTRhNS42MSw1LjYxLDAsMCwwLDIuNTgsMi42bC0yLjQ1LDcuNTRBNS4zNiw1LjM2LDAsMCwwLDMxLjE2LDMwWk0zMywxNy41OGE0LDQsMCwxLDEsNCw0QTQsNCwwLDAsMSwzMywxNy41OFoiLz48L3N2Zz4=;" parent="1" vertex="1">
          <mxGeometry x="350.5" y="105" width="44" height="42" as="geometry" />
        </mxCell>
        <mxCell id="AX1sSN8mTPLwoX_LTjLj-24" value="&lt;b&gt;&lt;font&gt;Oracle Services Network&lt;/font&gt;&lt;/b&gt;" style="whiteSpace=wrap;html=1;strokeWidth=2;dashed=1;align=left;fontFamily=Oracle Sans;verticalAlign=top;fillColor=none;fontColor=#AE562C;strokeColor=#AE562C;perimeterSpacing=0;fontSize=12;spacingLeft=5;" parent="1" vertex="1">
          <mxGeometry x="475.5" y="130" width="274.5" height="345" as="geometry" />
        </mxCell>
        <mxCell id="AX1sSN8mTPLwoX_LTjLj-25" value="" style="shape=image;verticalLabelPosition=bottom;labelBackgroundColor=default;verticalAlign=top;aspect=fixed;imageAspect=0;image=data:image/svg+xml,PHN2ZyB4bWxucz0iaHR0cDovL3d3dy53My5vcmcvMjAwMC9zdmciIHZpZXdCb3g9IjAgMCA0NS4zMiA0Mi4zMSIgZGF0YS1uYW1lPSJMYXllciAxIiBpZD0iTGF5ZXJfMSI+PG1ldGFkYXRhPiYjeGE7JiN4YTsgICAmI3hhOyAgICAgICYjeGE7ICAgICAgICAgJiN4YTsgICAgICAgICAgICAmI3hhOyAgICAgICAgICAgICAgIGljb24mI3hhOyAgICAgICAgICAgICAgIG5ldHdvcmsmI3hhOyAgICAgICAgICAgICAgIGNvbW11bmljYXRpb24mI3hhOyAgICAgICAgICAgICAgIGhleGFnb25zJiN4YTsgICAgICAgICAgICAgICBjb25uZWN0aW9uJiN4YTsgICAgICAgICAgICAgICBub2RlcyYjeGE7ICAgICAgICAgICAgICAgT0NTTiYjeGE7ICAgICAgICAgICAgICAgY2x1c3RlciYjeGE7ICAgICAgICAgICAgJiN4YTsgICAgICAgICAmI3hhOyAgICAgICAgIDIwMjItMTEtMTFUMTQ6MTg6MDktMDY6MDAmI3hhOyAgICAgICAgIHhtcC5paWQ6Yjg3YWRmNDMtNGRiOC00ZTI4LWJmMmQtZmYxMDQ1NzNkN2U0JiN4YTsgICAgICAgICB4bXAuZGlkOmRjNWVjNGFlLTdkZjYtNDBhZi04Nzc3LWM0NjhjZGUwYzk2OSYjeGE7ICAgICAgICAgeG1wLmRpZDpkYzVlYzRhZS03ZGY2LTQwYWYtODc3Ny1jNDY4Y2RlMGM5NjkmI3hhOyAgICAgICAgICYjeGE7ICAgICAgICAgICAgJiN4YTsgICAgICAgICAgICAgICAmI3hhOyAgICAgICAgICAgICAgICAgICYjeGE7ICAgICAgICAgICAgICAgICAgICAgc2F2ZWQmI3hhOyAgICAgICAgICAgICAgICAgICAgIHhtcC5paWQ6ZGM1ZWM0YWUtN2RmNi00MGFmLTg3NzctYzQ2OGNkZTBjOTY5JiN4YTsgICAgICAgICAgICAgICAgICAgICAyMDIyLTExLTExVDEzOjIxOjA4LTA2OjAwJiN4YTsgICAgICAgICAgICAgICAgICAgICBBZG9iZSBCcmlkZ2UgMjAyMSAoTWFjaW50b3NoKSYjeGE7ICAgICAgICAgICAgICAgICAgICAgL21ldGFkYXRhJiN4YTsgICAgICAgICAgICAgICAgICAmI3hhOyAgICAgICAgICAgICAgICYjeGE7ICAgICAgICAgICAgICAgJiN4YTsgICAgICAgICAgICAgICAgICAmI3hhOyAgICAgICAgICAgICAgICAgICAgIHNhdmVkJiN4YTsgICAgICAgICAgICAgICAgICAgICB4bXAuaWlkOmI4N2FkZjQzLTRkYjgtNGUyOC1iZjJkLWZmMTA0NTczZDdlNCYjeGE7ICAgICAgICAgICAgICAgICAgICAgMjAyMi0xMS0xMVQxNDoxODowOS0wNjowMCYjeGE7ICAgICAgICAgICAgICAgICAgICAgQWRvYmUgQnJpZGdlIDIwMjEgKE1hY2ludG9zaCkmI3hhOyAgICAgICAgICAgICAgICAgICAgIC9tZXRhZGF0YSYjeGE7ICAgICAgICAgICAgICAgICAgJiN4YTsgICAgICAgICAgICAgICAmI3hhOyAgICAgICAgICAgICYjeGE7ICAgICAgICAgJiN4YTsgICAgICAmI3hhOyAgICYjeGE7JiN4YTsgICAgICAgICAgICAgICAgICAgICAgICAgICAgICAgICAgICAgICAgICAgICAgICAgICAgICAgICAgICAgICAgICAgICAgICAgICAgICAgICAgICAgICAgICAgICAgICAgICAgJiN4YTsgICAgICAgICAgICAgICAgICAgICAgICAgICAgICAgICAgICAgICAgICAgICAgICAgICAgICAgICAgICAgICAgICAgICAgICAgICAgICAgICAgICAgICAgICAgICAgICAgICAgJiN4YTsgICAgICAgICAgICAgICAgICAgICAgICAgICAgICAgICAgICAgICAgICAgICAgICAgICAgICAgICAgICAgICAgICAgICAgICAgICAgICAgICAgICAgICAgICAgICAgICAgICAgJiN4YTsgICAgICAgICAgICAgICAgICAgICAgICAgICAgICAgICAgICAgICAgICAgICAgICAgICAgICAgICAgICAgICAgICAgICAgICAgICAgICAgICAgICAgICAgICAgICAgICAgICAgJiN4YTsgICAgICAgICAgICAgICAgICAgICAgICAgICAgICAgICAgICAgICAgICAgICAgICAgICAgICAgICAgICAgICAgICAgICAgICAgICAgICAgICAgICAgICAgICAgICAgICAgICAgJiN4YTsgICAgICAgICAgICAgICAgICAgICAgICAgICAgICAgICAgICAgICAgICAgICAgICAgICAgICAgICAgICAgICAgICAgICAgICAgICAgICAgICAgICAgICAgICAgICAgICAgICAgJiN4YTsgICAgICAgICAgICAgICAgICAgICAgICAgICAgICAgICAgICAgICAgICAgICAgICAgICAgICAgICAgICAgICAgICAgICAgICAgICAgICAgICAgICAgICAgICAgICAgICAgICAgJiN4YTsgICAgICAgICAgICAgICAgICAgICAgICAgICAgICAgICAgICAgICAgICAgICAgICAgICAgICAgICAgICAgICAgICAgICAgICAgICAgICAgICAgICAgICAgICAgICAgICAgICAgJiN4YTsgICAgICAgICAgICAgICAgICAgICAgICAgICAgICAgICAgICAgICAgICAgICAgICAgICAgICAgICAgICAgICAgICAgICAgICAgICAgICAgICAgICAgICAgICAgICAgICAgICAgJiN4YTsgICAgICAgICAgICAgICAgICAgICAgICAgICAgICAgICAgICAgICAgICAgICAgICAgICAgICAgICAgICAgICAgICAgICAgICAgICAgICAgICAgICAgICAgICAgICAgICAgICAgJiN4YTsgICAgICAgICAgICAgICAgICAgICAgICAgICAgICAgICAgICAgICAgICAgICAgICAgICAgICAgICAgICAgICAgICAgICAgICAgICAgICAgICAgICAgICAgICAgICAgICAgICAgJiN4YTsgICAgICAgICAgICAgICAgICAgICAgICAgICAgICAgICAgICAgICAgICAgICAgICAgICAgICAgICAgICAgICAgICAgICAgICAgICAgICAgICAgICAgICAgICAgICAgICAgICAgJiN4YTsgICAgICAgICAgICAgICAgICAgICAgICAgICAgICAgICAgICAgICAgICAgICAgICAgICAgICAgICAgICAgICAgICAgICAgICAgICAgICAgICAgICAgICAgICAgICAgICAgICAgJiN4YTsgICAgICAgICAgICAgICAgICAgICAgICAgICYjeGE7PC9tZXRhZGF0YT4mI3hhOzxwb2x5Z29uIGZpbGw9IiNmZmYiIHBvaW50cz0iMjYuMjQgMzguODQgMjYuMjQgMzcuMzEgMTkuMDkgMzcuMzEgMTkuMDkgMzguODQgMTQuMDggNDEuNzMgOS4wOCAzOC44NCA5LjA4IDMzLjA2IDEwLjM1IDMyLjMzIDYuOCAyNi4xNSA1LjUgMjYuODkgMC41IDI0IDAuNSAxOC4yMyA1LjUgMTUuMzQgNi44OSAxNi4xNCAxMC4zNiA5Ljk4IDkuMDggOS4yNCA5LjA4IDMuNDcgMTQuMDggMC41OCAxOS4wOSAzLjQ3IDE5LjA5IDUgMjYuMjQgNSAyNi4yNCAzLjQ3IDMxLjI0IDAuNTggMzYuMjQgMy40NyAzNi4yNCA5LjI0IDM0Ljk4IDkuOTggMzguNTIgMTYuMDkgMzkuODIgMTUuMzQgNDQuODMgMTguMjMgNDQuODMgMjQgMzkuODIgMjYuODkgMzguNjEgMjYuMTkgMzQuOTggMzIuMzQgMzYuMjQgMzMuMDYgMzYuMjQgMzguODQgMzEuMjQgNDEuNzMgMjYuMjQgMzguODQiLz48cGF0aCBmaWxsPSIjZmZmIiBkPSJNMzEuMjQsMS4xNWw0LjUxLDIuNjFWOWwtMS40Ni44NCw0LDcsMS40OS0uODYsNC41LDIuNnY1LjIxbC00LjUsMi42LTEuMzktLjgxLTQuMTMsNywxLjQ1LjgzdjUuMmwtNC41MSwyLjYtNC41LTIuNlYzNi44MUgxOC41OXYxLjc0bC00LjUxLDIuNi00LjUtMi42di01LjJMMTEsMzIuNTFsLTQtNy0xLjQ4Ljg2TDEsMjMuNzJWMTguNTFsNC41LTIuNiwxLjU4LjkxLDQtN0w5LjU4LDlWMy43Nmw0LjUtMi42MSw0LjUxLDIuNjFWNS41aDguMTVWMy43Nmw0LjUtMi42MW0wLTEuMTUtLjUuMjktNC41LDIuNi0uNS4yOVY0LjVIMTkuNTlWMy4xOGwtLjUtLjI5TDE0LjU4LjI5LDE0LjA4LDBsLS41LjI5LTQuNSwyLjYtLjUuMjlWOS41M2wuNS4yOS42LjM1LTMsNS4yOC0uNy0uNC0uNS0uMjktLjUuMjlMLjUsMTcuNjVsLS41LjI5djYuMzVsLjUuMjlMNSwyNy4xOGwuNS4yOS41LS4yOS42MS0uMzUsMy4wNiw1LjMyLS41OS4zNC0uNS4yOXY2LjM1bC41LjI5LDQuNSwyLjYuNS4yOS41LS4yOSw0LjUxLTIuNi41LS4yOVYzNy44MWg2LjE1djEuMzJsLjUuMjksNC41LDIuNi41LjI5LjUtLjI5LDQuNTEtMi42LjUtLjI5VjMyLjc4bC0uNS0uMjktLjU4LS4zMywzLjEyLTUuMjkuNTMuMzEuNS4yOS41LS4yOSw0LjUtMi42LjUtLjI5VjE3Ljk0bC0uNS0uMjktNC41LTIuNi0uNS0uMjktLjUuMjktLjYyLjM2LTMtNS4yNS41OS0uMzQuNS0uMjlWMy4xOGwtLjUtLjI5TDMxLjc0LjI5LDMxLjI0LDBaIi8+PHBhdGggZmlsbD0iIzJjNTk2NyIgZD0iTTM5LjgyLDE1LjkxbC0xLjQ5Ljg2LTQtN0wzNS43NSw5VjMuNzZMMzEuMjQsMS4xNWwtNC41LDIuNjFWNS41SDE4LjU5VjMuNzZMMTQuMDgsMS4xNSw5LjU4LDMuNzZWOUwxMSw5LjhsLTQsN0w1LjUsMTUuOTEsMSwxOC41MXY1LjIxbDQuNSwyLjZMNywyNS40Nmw0LDctMS40NS44NHY1LjJsNC41LDIuNiw0LjUxLTIuNlYzNi44MWg4LjE1djEuNzRsNC41LDIuNiw0LjUxLTIuNnYtNS4ybC0xLjQ1LS44Myw0LjEzLTcsMS4zOS44MSw0LjUtMi42VjE4LjUxWk0yOC40NSw0Ljc1bDIuNzktMS42MUwzNCw0Ljc1VjhMMzEuMjQsOS41OCwyOC40NSw4Wm0tMTcuMTYsMCwyLjc5LTEuNjEsMi43OSwxLjYxVjhMMTQuMDgsOS41OCwxMS4yOSw4Wm0tOC41NywxOFYxOS41MUw1LjUsMTcuOWwyLjc5LDEuNjF2My4yMUw1LjUsMjQuMzNaTTE2Ljg3LDM3LjU2bC0yLjc5LDEuNjEtMi43OS0xLjYxVjM0LjM0bDIuNzktMS42MSwyLjc5LDEuNjFabTE3LjE2LDAtMi43OSwxLjYxLTIuNzktMS42MVYzNC4zNGwyLjc5LTEuNjFMMzQsMzQuMzRabS0xLjIyLTUuOS0xLjU3LS45MS0xLjQuODFMMjcuMTcsMjdoLTJsMy4xNyw1LjQ3LTEuNjIuOTNWMzUuMUgxOC41OVYzMy4zNUwxNywzMi40MiwyMC4xNywyN2gtMmwtMi42OSw0LjYyLTEuNDEtLjgyLTEuNTYuOS00LTdMMTAsMjMuNzJWMjJoNC4xYTUuNDcsNS40NywwLDAsMSwxLjcxLTEuNjQuMjUuMjUsMCwwLDAsMC0uMDdIMTBWMTguNTFsLTEuNDUtLjgzLDQtNywxLjU1LjksMS42NC0xLDMuNzUsNi40NmE0LjUyLDQuNTIsMCwwLDEsLjc0LS4wNmguMDhhNS43Nyw1Ljc3LDAsMCwxLC43OC0uNkwxNy4yMSw5Ljc1LDE4LjU5LDlWNy4yMWg4LjE1VjlsMS40My44Mi0zLjQzLDUuOWE1LjMyLDUuMzIsMCwwLDEsMS42NS41OGwzLjI3LTUuNjIsMS41OC45MiwxLjU3LS45MSw0LDctMS41My44OFYyMC4zSDMxLjI2QTUuMTcsNS4xNywwLDAsMSwzMiwyMmgzLjI5djEuNzFsMS42Mi45M1ptOS44LTguOTQtMi43OSwxLjYxTDM3LDIyLjcyVjE5LjUxbDIuNzktMS42MSwyLjc5LDEuNjFaIi8+PHBhdGggZmlsbD0iIzJjNTk2NyIgZD0iTTMwLjE5LDI1LjY2bC4yNC0uNDVBNCw0LDAsMCwwLDI5LDE5LjkxYTQsNCwwLDAsMC0xLjI2LS41Mi42Mi42MiwwLDAsMS0uNDItLjMxLDMuODksMy44OSwwLDAsMC0zLjUxLTIuMTlBMy45NCwzLjk0LDAsMCwwLDIxLDE4LjE0YS41NC41NCwwLDAsMS0uNDcuMTcsMy4xOCwzLjE4LDAsMCwwLTEuNjEuMjdBMy4yNywzLjI3LDAsMCwwLDE3LDIwLjk0YS41OS41OSwwLDAsMS0uMjguNCw0LjIsNC4yLDAsMCwwLTIuMjUsMy40bC0uMDcuOTJabS0xMS41LTQuMzlhMS41NiwxLjU2LDAsMCwxLC45LTEuMTIsMS41MywxLjUzLDAsMCwxLC43Ni0uMTMsMi4yMywyLjIzLDAsMCwwLDEuODgtLjcxLDIuMTksMi4xOSwwLDAsMSwzLjU5LjUzLDIuMzEsMi4zMSwwLDAsMCwxLjU4LDEuMjIsMi40NSwyLjQ1LDAsMCwxLC43My4zLDIuMzMsMi4zMywwLDAsMSwxLDIuNThIMTYuNDVhMi40MywyLjQzLDAsMCwxLDEuMDctMS4wOEEyLjI2LDIuMjYsMCwwLDAsMTguNjksMjEuMjdaIi8+PC9zdmc+;" parent="1" vertex="1">
          <mxGeometry x="680" y="105" width="45" height="42" as="geometry" />
        </mxCell>
        <mxCell id="AX1sSN8mTPLwoX_LTjLj-27" value="&lt;b&gt;Public Subnet&lt;/b&gt;" style="whiteSpace=wrap;html=1;strokeWidth=1;dashed=1;align=left;fontFamily=Oracle Sans;verticalAlign=top;fillColor=none;fontColor=#AE562C;perimeterSpacing=0;strokeColor=#AE562C;fontSize=12;spacingLeft=5;" parent="1" vertex="1">
          <mxGeometry x="125" y="165" width="240" height="280" as="geometry" />
        </mxCell>
        <mxCell id="AX1sSN8mTPLwoX_LTjLj-26" value="Internet Gateway" style="text;html=1;align=center;verticalAlign=middle;whiteSpace=wrap;rounded=0;fillColor=none;opacity=60;fontSize=12;fontFamily=Oracle Sans Tab;" parent="1" vertex="1">
          <mxGeometry x="375" y="341.5" width="60" height="30" as="geometry" />
        </mxCell>
        <mxCell id="AX1sSN8mTPLwoX_LTjLj-28" value="&lt;b&gt;Compute VM&lt;/b&gt;&lt;div&gt;&lt;div style=&quot;&quot;&gt;&lt;br&gt;&lt;/div&gt;&lt;div style=&quot;&quot;&gt;VM.Standard.E5.Flex&lt;/div&gt;&lt;div style=&quot;&quot;&gt;1 OCPU, 16 GB memory&lt;/div&gt;&lt;/div&gt;&lt;div style=&quot;&quot;&gt;Oracle Linux 8&lt;/div&gt;&lt;div&gt;Oracle Instant Client&lt;/div&gt;&lt;div style=&quot;&quot;&gt;&lt;span style=&quot;background-color: initial;&quot;&gt;Oracle SQLcl&lt;/span&gt;&lt;/div&gt;&lt;div style=&quot;&quot;&gt;Python 3.12&lt;/div&gt;&lt;div style=&quot;&quot;&gt;python-oracledb&lt;/div&gt;&lt;div style=&quot;&quot;&gt;&lt;span style=&quot;background-color: initial;&quot;&gt;dbt Core &amp;amp; dbt-oracle&lt;/span&gt;&lt;/div&gt;" style="rounded=1;whiteSpace=wrap;html=1;fillColor=#FCFBFA;strokeColor=#759C6C;fontColor=#161513;fontFamily=Oracle Sans;labelBackgroundColor=none;align=left;arcSize=7;verticalAlign=top;spacingLeft=10;" parent="1" vertex="1">
          <mxGeometry x="155" y="200" width="180" height="220" as="geometry" />
        </mxCell>
        <mxCell id="AX1sSN8mTPLwoX_LTjLj-29" value="" style="shape=image;verticalLabelPosition=bottom;labelBackgroundColor=default;verticalAlign=top;aspect=fixed;imageAspect=0;image=data:image/svg+xml,PHN2ZyB4bWxuczp4bGluaz0iaHR0cDovL3d3dy53My5vcmcvMTk5OS94bGluayIgeG1sbnM9Imh0dHA6Ly93d3cudzMub3JnLzIwMDAvc3ZnIiB4bWw6c3BhY2U9InByZXNlcnZlIiBzdHlsZT0iZW5hYmxlLWJhY2tncm91bmQ6bmV3IDAgMCA0MiA0MjsiIHZpZXdCb3g9IjAgMCA0MiA0MiIgeT0iMHB4IiB4PSIwcHgiIGlkPSJMYXllcl8xIiB2ZXJzaW9uPSIxLjEiPiYjeGE7PG1ldGFkYXRhPiYjeGE7JiN4YTsgICAmI3hhOyAgICAgICYjeGE7ICAgICAgICAgMjAyMi0xMC0yMVQxMzo0NToyOC0wNTowMCYjeGE7ICAgICAgICAgeG1wLmlpZDoyNTBmZmM0OC1hYWQ5LTQyMDUtYTk3OS0wMDVjMGY0NjFhYzgmI3hhOyAgICAgICAgIHhtcC5kaWQ6NmEwYzAxZDgtOTkzOC00YWM3LWI2MjQtZmM4MjU2OWM5OTM2JiN4YTsgICAgICAgICB4bXAuZGlkOjZhMGMwMWQ4LTk5MzgtNGFjNy1iNjI0LWZjODI1NjljOTkzNiYjeGE7ICAgICAgICAgJiN4YTsgICAgICAgICAgICAmI3hhOyAgICAgICAgICAgICAgICYjeGE7ICAgICAgICAgICAgICAgICAgJiN4YTsgICAgICAgICAgICAgICAgICAgICBzYXZlZCYjeGE7ICAgICAgICAgICAgICAgICAgICAgeG1wLmlpZDo2YTBjMDFkOC05OTM4LTRhYzctYjYyNC1mYzgyNTY5Yzk5MzYmI3hhOyAgICAgICAgICAgICAgICAgICAgIDIwMjEtMDQtMjdUMTM6NDE6MzAtMDU6MDAmI3hhOyAgICAgICAgICAgICAgICAgICAgIEFkb2JlIEJyaWRnZSAyMDIxIChNYWNpbnRvc2gpJiN4YTsgICAgICAgICAgICAgICAgICAgICAvbWV0YWRhdGEmI3hhOyAgICAgICAgICAgICAgICAgICYjeGE7ICAgICAgICAgICAgICAgJiN4YTsgICAgICAgICAgICAgICAmI3hhOyAgICAgICAgICAgICAgICAgICYjeGE7ICAgICAgICAgICAgICAgICAgICAgc2F2ZWQmI3hhOyAgICAgICAgICAgICAgICAgICAgIHhtcC5paWQ6MjUwZmZjNDgtYWFkOS00MjA1LWE5NzktMDA1YzBmNDYxYWM4JiN4YTsgICAgICAgICAgICAgICAgICAgICAyMDIyLTEwLTIxVDEzOjQ1OjI4LTA1OjAwJiN4YTsgICAgICAgICAgICAgICAgICAgICBBZG9iZSBCcmlkZ2UgMjAyMSAoTWFjaW50b3NoKSYjeGE7ICAgICAgICAgICAgICAgICAgICAgL21ldGFkYXRhJiN4YTsgICAgICAgICAgICAgICAgICAmI3hhOyAgICAgICAgICAgICAgICYjeGE7ICAgICAgICAgICAgJiN4YTsgICAgICAgICAmI3hhOyAgICAgICAgIFRydWUmI3hhOyAgICAgICAgICYjeGE7ICAgICAgICAgICAgJiN4YTsgICAgICAgICAgICAgICBDb21wdXRlJiN4YTsgICAgICAgICAgICAgICBWTSYjeGE7ICAgICAgICAgICAgICAgVmlydHVhbCBNYWNoaW5lJiN4YTsgICAgICAgICAgICAgICBpY29uJiN4YTsgICAgICAgICAgICAmI3hhOyAgICAgICAgICYjeGE7ICAgICAgICAgJiN4YTsgICAgICAgICAgICAmI3hhOyAgICAgICAgICAgICAgIE9yYWNsZSBBbGwgUmlnaHRzIFJlc2VydmVkJiN4YTsgICAgICAgICAgICAmI3hhOyAgICAgICAgICYjeGE7ICAgICAgICAgJiN4YTsgICAgICAgICAgICAmI3hhOyAgICAgICAgICAgICAgIENvbXB1dGUmI3hhOyAgICAgICAgICAgICAgIGljb24mI3hhOyAgICAgICAgICAgICYjeGE7ICAgICAgICAgJiN4YTsgICAgICAmI3hhOyAgICYjeGE7JiN4YTsgICAgICAgICAgICAgICAgICAgICAgICAgICAgICAgICAgICAgICAgICAgICAgICAgICAgICAgICAgICAgICAgICAgICAgICAgICAgICAgICAgICAgICAgICAgICAgICAgICAgJiN4YTsgICAgICAgICAgICAgICAgICAgICAgICAgICAgICAgICAgICAgICAgICAgICAgICAgICAgICAgICAgICAgICAgICAgICAgICAgICAgICAgICAgICAgICAgICAgICAgICAgICAgJiN4YTsgICAgICAgICAgICAgICAgICAgICAgICAgICAgICAgICAgICAgICAgICAgICAgICAgICAgICAgICAgICAgICAgICAgICAgICAgICAgICAgICAgICAgICAgICAgICAgICAgICAgJiN4YTsgICAgICAgICAgICAgICAgICAgICAgICAgICAgICAgICAgICAgICAgICAgICAgICAgICAgICAgICAgICAgICAgICAgICAgICAgICAgICAgICAgICAgICAgICAgICAgICAgICAgJiN4YTsgICAgICAgICAgICAgICAgICAgICAgICAgICAgICAgICAgICAgICAgICAgICAgICAgICAgICAgICAgICAgICAgICAgICAgICAgICAgICAgICAgICAgICAgICAgICAgICAgICAgJiN4YTsgICAgICAgICAgICAgICAgICAgICAgICAgICAgICAgICAgICAgICAgICAgICAgICAgICAgICAgICAgICAgICAgICAgICAgICAgICAgICAgICAgICAgICAgICAgICAgICAgICAgJiN4YTsgICAgICAgICAgICAgICAgICAgICAgICAgICAgICAgICAgICAgICAgICAgICAgICAgICAgICAgICAgICAgICAgICAgICAgICAgICAgICAgICAgICAgICAgICAgICAgICAgICAgJiN4YTsgICAgICAgICAgICAgICAgICAgICAgICAgICAgICAgICAgICAgICAgICAgICAgICAgICAgICAgICAgICAgICAgICAgICAgICAgICAgICAgICAgICAgICAgICAgICAgICAgICAgJiN4YTsgICAgICAgICAgICAgICAgICAgICAgICAgICAgICAgICAgICAgICAgICAgICAgICAgICAgICAgICAgICAgICAgICAgICAgICAmI3hhOzwvbWV0YWRhdGE+JiN4YTs8c3R5bGUgdHlwZT0idGV4dC9jc3MiPiYjeGE7CS5zdDB7ZmlsbDojRkZGRkZGO30mI3hhOwkuc3Qxe2ZpbGw6IzJDNTk2Nzt9JiN4YTs8L3N0eWxlPiYjeGE7PGc+JiN4YTsJPGc+JiN4YTsJCTxwYXRoIGQ9Ik0yLjY3LDQxLjVjLTEuMTksMC0yLjE3LTAuOTctMi4xNy0yLjE3VjIuNjdjMC0xLjE5LDAuOTctMi4xNywyLjE3LTIuMTdoMzYuNjdjMS4xOSwwLDIuMTcsMC45NywyLjE3LDIuMTcmIzEwOyYjOTsmIzk7JiM5O3YzNi42N2MwLDEuMTktMC45NywyLjE3LTIuMTcsMi4xN0gyLjY3eiIgY2xhc3M9InN0MCIvPiYjeGE7CQk8cGF0aCBkPSJNMzkuMzMsMUM0MC4yNSwxLDQxLDEuNzUsNDEsMi42N3YzNi42N2MwLDAuOTItMC43NSwxLjY3LTEuNjcsMS42N0gyLjY3QzEuNzUsNDEsMSw0MC4yNSwxLDM5LjMzVjIuNjcmIzEwOyYjOTsmIzk7JiM5O0MxLDEuNzUsMS43NSwxLDIuNjcsMUgzOS4zMyBNMzkuMzMsMEgyLjY3QzEuMiwwLDAsMS4yLDAsMi42N3YzNi42N0MwLDQwLjgsMS4yLDQyLDIuNjcsNDJoMzYuNjdDNDAuOCw0Miw0Miw0MC44LDQyLDM5LjMzVjIuNjcmIzEwOyYjOTsmIzk7JiM5O0M0MiwxLjIsNDAuOCwwLDM5LjMzLDBMMzkuMzMsMHoiIGNsYXNzPSJzdDAiLz4mI3hhOwk8L2c+JiN4YTsJPGc+JiN4YTsJCTxwYXRoIGQ9Ik0zOS4zMywxSDIuNjdDMS43NSwxLDEsMS43NSwxLDIuNjd2MzYuNjdDMSw0MC4yNSwxLjc1LDQxLDIuNjcsNDFoMzYuNjdjMC45MiwwLDEuNjctMC43NSwxLjY3LTEuNjdWMi42NyYjMTA7JiM5OyYjOTsmIzk7QzQxLDEuNzUsNDAuMjUsMSwzOS4zMywxeiBNMzkuNTIsMzkuMzNjMCwwLjEtMC4wOCwwLjE5LTAuMTksMC4xOUgyLjY3Yy0wLjEsMC0wLjE5LTAuMDgtMC4xOS0wLjE5VjIuNjcmIzEwOyYjOTsmIzk7JiM5O2MwLTAuMSwwLjA4LTAuMTksMC4xOS0wLjE5aDM2LjY3YzAuMSwwLDAuMTksMC4wOCwwLjE5LDAuMTlWMzkuMzN6IiBjbGFzcz0ic3QxIi8+JiN4YTsJCTxwYXRoIGQ9Ik02LjU2LDM1LjQ0aDI5LjA3di04Ljg5SDYuNTZWMzUuNDR6IE04LjA0LDI4LjA0aDI2LjExdjUuOTNIOC4wNFYyOC4wNHoiIGNsYXNzPSJzdDEiLz4mI3hhOwkJPGNpcmNsZSByPSIxLjExIiBjeT0iMzEiIGN4PSIzMC44MSIgY2xhc3M9InN0MSIvPiYjeGE7CQk8cGF0aCBkPSJNMTUuNDQsNi41Nkg2LjU2djguODloOC44OVY2LjU2eiBNMTMuOTYsMTMuOTZIOC4wNFY4LjA0aDUuOTNWMTMuOTZ6IiBjbGFzcz0ic3QxIi8+JiN4YTsJCTxwYXRoIGQ9Ik0yNS40NCw2LjU2aC04Ljg5djguODloOC44OVY2LjU2eiBNMjMuOTYsMTMuOTZoLTUuOTNWOC4wNGg1LjkzVjEzLjk2eiIgY2xhc3M9InN0MSIvPiYjeGE7CQk8cGF0aCBkPSJNMTUuNDQsMTYuNTZINi41NnY4Ljg5aDguODlWMTYuNTZ6IE0xMy45NiwyMy45Nkg4LjA0di01LjkzaDUuOTNWMjMuOTZ6IiBjbGFzcz0ic3QxIi8+JiN4YTsJCTxwYXRoIGQ9Ik0yNS40NCwxNi41NmgtOC44OXY4Ljg5aDguODlWMTYuNTZ6IE0yMy45NiwyMy45NmgtNS45M3YtNS45M2g1LjkzVjIzLjk2eiIgY2xhc3M9InN0MSIvPiYjeGE7CQk8cGF0aCBkPSJNMzUuNDQsNi41NmgtOC44OXY4Ljg5aDguODlWNi41NnogTTMzLjk2LDEzLjk2aC01LjkzVjguMDRoNS45M1YxMy45NnoiIGNsYXNzPSJzdDEiLz4mI3hhOwkJPHBhdGggZD0iTTM1LjQ0LDE2LjU2aC04Ljg5djguODloOC44OVYxNi41NnogTTMzLjk2LDIzLjk2aC01Ljkzdi01LjkzaDUuOTNWMjMuOTZ6IiBjbGFzcz0ic3QxIi8+JiN4YTsJPC9nPiYjeGE7PC9nPiYjeGE7PC9zdmc+;" parent="1" vertex="1">
          <mxGeometry x="170" y="371.5" width="42" height="42" as="geometry" />
        </mxCell>
        <mxCell id="AX1sSN8mTPLwoX_LTjLj-33" value="" style="shape=image;verticalLabelPosition=bottom;labelBackgroundColor=default;verticalAlign=top;aspect=fixed;imageAspect=0;image=data:image/svg+xml,PHN2ZyB4bWxucz0iaHR0cDovL3d3dy53My5vcmcvMjAwMC9zdmciIHZpZXdCb3g9IjAgMCAzOS4zMSA0Mi44MyIgZGF0YS1uYW1lPSJMYXllciAxIiBpZD0iTGF5ZXJfMSI+PHRpdGxlPkludGVybmV0IEdhdGV3YXk8L3RpdGxlPjxtZXRhZGF0YT4mI3hhOyYjeGE7ICAgJiN4YTsgICAgICAmI3hhOyAgICAgICAgICYjeGE7ICAgICAgICAgICAgJiN4YTsgICAgICAgICAgICAgICBJbnRlcm5ldCBHYXRld2F5JiN4YTsgICAgICAgICAgICAmI3hhOyAgICAgICAgICYjeGE7ICAgICAgICAgJiN4YTsgICAgICAgICAgICAmI3hhOyAgICAgICAgICAgICAgIGljb24mI3hhOyAgICAgICAgICAgICAgIENvbm5lY3Rpdml0eSYjeGE7ICAgICAgICAgICAgICAgR2F0ZXdheSYjeGE7ICAgICAgICAgICAgICAgQUkmI3hhOyAgICAgICAgICAgICYjeGE7ICAgICAgICAgJiN4YTsgICAgICAgICAyMDIyLTEwLTIxVDEzOjQ1OjI5LTA1OjAwJiN4YTsgICAgICAgICB4bXAuaWlkOmE5OTVjZDdjLTIxODYtNGYzZi05YTI4LWU0ZTQzMTAwNzlmYiYjeGE7ICAgICAgICAgeG1wLmRpZDo3MDQ2ZWJlMC1hZmMyLTQ5NjMtODAyYy0yMTZlZWI2ZDE1ZmUmI3hhOyAgICAgICAgIHhtcC5kaWQ6NzA0NmViZTAtYWZjMi00OTYzLTgwMmMtMjE2ZWViNmQxNWZlJiN4YTsgICAgICAgICAmI3hhOyAgICAgICAgICAgICYjeGE7ICAgICAgICAgICAgICAgJiN4YTsgICAgICAgICAgICAgICAgICAmI3hhOyAgICAgICAgICAgICAgICAgICAgIHNhdmVkJiN4YTsgICAgICAgICAgICAgICAgICAgICB4bXAuaWlkOjcwNDZlYmUwLWFmYzItNDk2My04MDJjLTIxNmVlYjZkMTVmZSYjeGE7ICAgICAgICAgICAgICAgICAgICAgMjAyMS0wOC0zMVQxNTo0NDoxOS0wNTowMCYjeGE7ICAgICAgICAgICAgICAgICAgICAgQWRvYmUgQnJpZGdlIDIwMjEgKE1hY2ludG9zaCkmI3hhOyAgICAgICAgICAgICAgICAgICAgIC9tZXRhZGF0YSYjeGE7ICAgICAgICAgICAgICAgICAgJiN4YTsgICAgICAgICAgICAgICAmI3hhOyAgICAgICAgICAgICAgICYjeGE7ICAgICAgICAgICAgICAgICAgJiN4YTsgICAgICAgICAgICAgICAgICAgICBzYXZlZCYjeGE7ICAgICAgICAgICAgICAgICAgICAgeG1wLmlpZDphOTk1Y2Q3Yy0yMTg2LTRmM2YtOWEyOC1lNGU0MzEwMDc5ZmImI3hhOyAgICAgICAgICAgICAgICAgICAgIDIwMjItMTAtMjFUMTM6NDU6MjktMDU6MDAmI3hhOyAgICAgICAgICAgICAgICAgICAgIEFkb2JlIEJyaWRnZSAyMDIxIChNYWNpbnRvc2gpJiN4YTsgICAgICAgICAgICAgICAgICAgICAvbWV0YWRhdGEmI3hhOyAgICAgICAgICAgICAgICAgICYjeGE7ICAgICAgICAgICAgICAgJiN4YTsgICAgICAgICAgICAmI3hhOyAgICAgICAgICYjeGE7ICAgICAgJiN4YTsgICAmI3hhOyYjeGE7ICAgICAgICAgICAgICAgICAgICAgICAgICAgICAgICAgICAgICAgICAgICAgICAgICAgICAgICAgICAgICAgICAgICAgICAgICAgICAgICAgICAgICAgICAgICAgICAgICAgICYjeGE7ICAgICAgICAgICAgICAgICAgICAgICAgICAgICAgICAgICAgICAgICAgICAgICAgICAgICAgICAgICAgICAgICAgICAgICAgICAgICAgICAgICAgICAgICAgICAgICAgICAgICYjeGE7ICAgICAgICAgICAgICAgICAgICAgICAgICAgICAgICAgICAgICAgICAgICAgICAgICAgICAgICAgICAgICAgICAgICAgICAgICAgICAgICAgICAgICAgICAgICAgICAgICAgICYjeGE7ICAgICAgICAgICAgICAgICAgICAgICAgICAgICAgICAgICAgICAgICAgICAgICAgICAgICAgICAgICAgICAgICAgICAgICAgICAgICAgICAgICAgICAgICAgICAgICAgICAgICYjeGE7ICAgICAgICAgICAgICAgICAgICAgICAgICAgICAgICAgICAgICAgICAgICAgICAgICAgICAgICAgICAgICAgICAgICAgICAgICAgICAgICAgICAgICAgICAgICAgICAgICAgICYjeGE7ICAgICAgICAgICAgICAgICAgICAgICAgICAgICAgICAgICAgICAgICAgICAgICAgICAgICAgICAgICAgICAgICAgICAgICAgICAgICAgICAgICAgICAgICAgICAgICAgICAgICYjeGE7ICAgICAgICAgICAgICAgICAgICAgICAgICAgICAgICAgICAgICAgICAgICAgICAgICAgICAgICAgICAgICAgICAgICAgICAgICAgICAgICAgICAgICAgICAgICAgICAgICAgICYjeGE7ICAgICAgICAgICAgICAgICAgICAgICAgICAgICAgICAgICAgICAgICAgICAgICAgICAgICAgICAgICAgICAgICAgICAgICAgICAgICAgICAgICAgICAgICAgICAgICAgICAgICYjeGE7ICAgICAgICAgICAgICAgICAgICAgICAgICAgICAgICAgICAgICAgICAgICAgICAgICAgICAgICAgICAgICAgICAgICAgICAgICAgICAgICAgICAgICAgICAgICAgICAgICAgICYjeGE7ICAgICAgICAgICAgICAgICAgICAgICAgICAgICAgICAgICAgICAgICAgICAgICAgICAgICAgICAgICAgICAgICAgICAgICAgICAgICAgICAgICAgICAgICAgICAgICAgICAgICYjeGE7ICAgICAgICAgICAgICAgICAgICAgICAgICAgICAgICAgICAgICAgICAgICAgICAgICAgICAgICAgICAgICAgICAgICAgICAgICAgICAgICAgICAgICAgICAgICAgICAgICAgICYjeGE7ICAgICAgICAgICAgICAgICAgICAgICAgICAgICAgICAgICAgICAgICAgICAgICAgICAgICAgICAgICAgICAgICAgICAgICAgICAgICAgICAgICAgICAgICAgICAgICAgICAgICYjeGE7ICAgICAgICAgICAgICAgICAgICAgICAgICAgICAgICAgICAgICAgICAgICAgICAgICAgICAgICAgICAgICAgICAgICAgICAgICAgICAgICAgICAgICAgICAgICAgICAgICAgICYjeGE7ICAgICAgICAgICAgICAgICAgICAgICAgICAgICAgICAgICAgICAgICAgICAgICAgICAgICAgICAgICAgICAgICAgICAgICAgICAgICAgICAgICAgICAgICAgICAgICAgICAgICYjeGE7ICAgICAgICAgICAgICAgICAgICAgICAgICAgICAmI3hhOzwvbWV0YWRhdGE+JiN4YTs8cGF0aCBmaWxsPSIjZmZmIiBkPSJNMTUuNTUsMzgsMTcsMzYuNTljLS4zLS4wNS0uNi0uMTEtLjktLjE5bC0uMzktLjA5Yy0uMjctLjA3LS41My0uMTUtLjc5LS4yNGE1LDUsMCwwLDEtLjUxLS4xN2wtLjYzLS4yNS0uNjMtLjI3LS40MS0uMi0uOC0uNDMtLjI5LS4xOGMtLjMxLS4xOS0uNTgtLjM2LS44My0uNTRsLS40My0uMzEtLjQzLS4zMi0uNDEtLjM0LDAsMEExNS40OCwxNS40OCwwLDAsMSw4LDMxLjUzSDhsLS4zNi0uNDEtLjMyLS40M0w3LDMwLjI3Yy0uMTgtLjI2LS4zNS0uNTItLjUyLS43OWwtLjItLjM0Yy0uMTQtLjI0LS4yNy0uNDgtLjQtLjczcy0uMTYtLjMyLS4yMy0uNDctLjE5LS40Mi0uMjctLjYzLS4xOC0uNDItLjI1LS42M0E0LDQsMCwwLDEsNSwyNi4yM2MtLjExLS4zMi0uMTktLjU4LS4yNi0uODVMNC42NiwyNWMtLjA3LS4zLS4xNC0uNjEtLjE5LS45MmwtLjA4LS41YzAtLjE4LS4wNi0uMzYtLjA4LS41NWwwLS40OEguNVYyMC4yOUg0LjI4bDAtLjQ4YzAtLjE5LjA1LS4zNy4wOC0uNTVsLjA4LS41YzAtLjMxLjEyLS42Mi4yLS45M3MuMDYtLjI4LjA5LS4zOGMuMDctLjI3LjE1LS41My4yNC0uOHMuMTEtLjMzLjE2LS41LjE3LS40My4yNi0uNjQuMTctLjQxLjI3LS42Mi4xNi0uMzIuMjQtLjQ4LjI1LS40OC4zOS0uNzJsLjIxLS4zNXEuMjQtLjM5LjUxLS43OGwuMzEtLjQyYy4xLS4xNS4yMS0uMy4zMi0uNDRMOCwxMS4yOGwwLDBBMTQuNDQsMTQuNDQsMCwwLDEsOS41NSw5Ljc5aDBsLjQtLjM1LjQ1LS4zMy40LS4zYy4yNi0uMTguNTMtLjM1Ljc5LS41MWwuMzQtLjIxLjc0LS40LjQ3LS4yM3EuMzEtLjE1LjYzLS4yN2wuNjMtLjI2LjQ1LS4xNS44NS0uMjUuMzgtLjFMMTcsNi4yMywxNS41NSw0LjgxbDQuMS00LjEsNC4xMSw0LjFMMjIuMzMsNi4yM2wuOS4xOS4zOS4xYy4yNy4wNy41My4xNS43OS4yNGwuNTEuMTYuNjMuMjYuNjMuMjdjLjEzLjA2LjI2LjEyLjM4LjE5bC4xLjA1cS4zNi4xOC43Mi4zOWwuMjkuMTcuODQuNTUuNDQuMzIuNDIuMzEuNDEuMzQsMCwwYTE0LjI1LDE0LjI1LDAsMCwxLDEuNTEsMS41aDBsLjM2LjQyYy4xMS4xNC4yMi4yOS4zMi40NGwuMzEuNDJxLjI3LjM5LjUxLjc4bC4yMS4zNGMuMTQuMjQuMjcuNDkuMzkuNzNsLjI0LjQ4cS4xNS4zMS4yNy42M2MuMDkuMjEuMTguNDIuMjUuNjNzLjExLjMxLjE2LjQ3LjE4LjU2LjI1LjgzbC4wOS4zOGMuMDguMzEuMTQuNjIuMi45M2wuMDguNWE0Ljg2LDQuODYsMCwwLDEsLjA3LjU1bDAsLjQ4aDMuNzd2Mi4yNUgzNUwzNSwyM2E1LDUsMCwwLDEtLjA3LjU0bC0uMDguNTFjLS4wNi4zMS0uMTIuNjItLjIuOTJsLS4wOS4zOWMtLjA3LjI3LS4xNS41My0uMjQuNzlhNSw1LDAsMCwxLS4xNy41MWMtLjA3LjIxLS4xNi40Mi0uMjUuNjNzLS4xNy40Mi0uMjcuNjNsLS4yMi40NGMtLjE0LjI4LS4yNy41Mi0uNDEuNzZsLS4yMS4zNGMtLjE2LjI3LS4zMy41My0uNTEuNzlsLS4zLjQxLS4zMy40NS0uMzUuNDMsMCwwQTE1LjI3LDE1LjI3LDAsMCwxLDI5Ljc2LDMzaDBsLS40LjM1LS40Mi4zMS0uNDQuMzJjLS4yNi4xOC0uNTIuMzUtLjc5LjUxbC0uMzMuMjFjLS4yNS4xNC0uNDkuMjctLjc0LjM5bC0uMDksMC0uMzguMTktLjYzLjI3LS42My4yNS0uNTEuMTdjLS4yNi4wOS0uNTIuMTctLjc5LjI0bC0uMzkuMDljLS4zLjA4LS42LjE0LS45LjE5TDIzLjc2LDM4bC00LjExLDQuMVptNS4yMy0uMTlMMjIsMzYuNjVsLS4xNCwwYTUuMTcsNS4xNywwLDAsMS0uNTUuMDdsLS40OCwwWm0tMi4yNSwwdi0xbC0uNDgsMGE0Ljg2LDQuODYsMCwwLDEtLjU1LS4wN2wtLjE0LDBaTTIxLjI2LDYuMDdsLjU1LjA4LjE0LDBMMjAuNzgsNVY2Wm0tMy45LjEuMTQsMCwuNTUtLjA4TDE4LjUzLDZWNVoiLz48cGF0aCBmaWxsPSIjZmZmIiBkPSJNMTkuNjUsMS40MWwxLjUxLDEuNTEuMDUuMDUsMS44NCwxLjg0LS44OC44OC0xLTEtLjkzLS45NFY2LjUybC45My4wN3YwbC43Mi4xMS4zLDBjLjMsMCwuNTkuMTIuODkuMTlsLjM3LjA5Ljc3LjIzLjQ5LjE2LjYxLjI1TDI2LDcuOWwuNDYuMjNjLjI0LjEyLjQ3LjI0LjcuMzhsLjMzLjJjLjI2LjE2LjUyLjMyLjc3LjVsLjIzLjE4Yy4yLjE0LjQuMjguNTkuNDNoMGExNS4yNSwxNS4yNSwwLDAsMSwyLjIsMi4yaDBjLjE1LjE5LjI5LjM5LjQzLjU4bC4xOC4yNGMuMTguMjUuMzQuNTEuNS43N3MuMTMuMjEuMi4zMy4yNi40Ni4zOC43LjE1LjMxLjIzLjQ2LjE4LjQuMjYuNjEuMTcuNC4yNC42MS4xMS4zMy4xNy40OS4xNi41MS4yMy43N2wuMDkuMzdjLjA3LjMuMTMuNTkuMTkuODksMCwuMSwwLC4yLDAsLjNzLjA4LjQ4LjExLjcyaDBxMCwuNDcuMDYuOTNoMy43N1YyMkgzNC41NHEwLC40Ny0uMDYuOTNoMGMwLC4yNC0uMDcuNDgtLjExLjcyczAsLjIsMCwuM2MtLjA2LjMtLjEyLjU5LS4xOS44OWwtLjA5LjM3Yy0uMDcuMjYtLjE1LjUxLS4yMy43N3MtLjExLjMyLS4xNy40OS0uMTYuNDEtLjI0LjYxLS4xNy40MS0uMjYuNjFsLS4yMy40Ni0uMzguNy0uMi4zM2MtLjE2LjI2LS4zMi41MS0uNS43NmwtLjE4LjI1Yy0uMTQuMTktLjI4LjM5LS40My41OGgwQTE1LjI1LDE1LjI1LDAsMCwxLDI5LDMzaDBjLS4xOS4xNS0uMzkuMjktLjU5LjQzbC0uMjMuMThjLS4yNS4xOC0uNTEuMzQtLjc3LjVsLS4zMy4yYy0uMjMuMTMtLjQ2LjI2LS43LjM4bC0uNDYuMjMtLjYxLjI2LS42MS4yNC0uNDkuMTctLjc3LjIzLS4zNy4wOS0uODkuMTktLjMsMC0uNzIuMTF2MHEtLjQ3LDAtLjkzLjA2VjM5bC45My0uOTMsMS0xLC44OC44OC0xLjg0LDEuODQtLjY4LjY3LS44OC44OC0uODgtLjg4LS42Ny0uNjdMMTYuMjYsMzhsLjg4LS44OCwxLDFMMTksMzlWMzYuM3EtLjQ3LDAtLjkzLS4wNnYwbC0uNzItLjExLS4zLDAtLjg5LS4xOS0uMzctLjA5LS43Ny0uMjMtLjQ5LS4xN2MtLjIxLS4wNy0uNDEtLjE2LS42MS0uMjRsLS42MS0uMjYtLjQ2LS4yM2MtLjI0LS4xMi0uNDctLjI1LS43LS4zOGwtLjMzLS4yYy0uMjYtLjE2LS41Mi0uMzItLjc3LS41bC0uMjMtLjE4Yy0uMi0uMTQtLjQtLjI4LS41OS0uNDNoMGExNS4yNSwxNS4yNSwwLDAsMS0yLjItMi4yaDBjLS4xNS0uMTktLjI5LS4zOS0uNDMtLjU5cy0uMTItLjE1LS4xOC0uMjRjLS4xOC0uMjUtLjM0LS41LS41LS43Ni0uMDctLjExLS4xNC0uMjItLjItLjMzcy0uMjYtLjQ3LS4zOC0uN2wtLjIzLS40NmMtLjA5LS4yLS4xOC0uNDEtLjI2LS42MXMtLjE3LS40MS0uMjUtLjYxLS4xMS0uMzMtLjE2LS40OS0uMTYtLjUxLS4yMy0uNzdsLS4wOS0uMzdjLS4wNy0uMy0uMTMtLjU5LS4xOS0uOSwwLS4wOSwwLS4xOSwwLS4yOXMtLjA4LS40OC0uMTEtLjcyaDBjMC0uMzEsMC0uNjItLjA3LS45M0gxVjIwLjc5SDQuNzZjMC0uMzEsMC0uNjIuMDctLjkzaDBjMC0uMjQuMDctLjQ4LjExLS43MnMwLS4yLDAtLjNjLjA2LS4zLjEyLS41OS4xOS0uODlsLjA5LS4zN2MuMDctLjI2LjE1LS41Mi4yMy0uNzdsLjE2LS40OWMuMDgtLjIxLjE2LS40MS4yNS0uNjFzLjE3LS40MS4yNi0uNjEuMTUtLjMxLjIzLS40Ni4yNC0uNDcuMzgtLjdBMy43OSwzLjc5LDAsMCwxLDcsMTMuNmMuMTYtLjI1LjMyLS41MS41LS43NmwuMTgtLjI0Yy4xNC0uMTkuMjgtLjM5LjQzLS41OGgwYTE1LjI1LDE1LjI1LDAsMCwxLDIuMi0yLjJoMGwuNTgtLjQzLjI0LS4xOGMuMjUtLjE4LjUxLS4zNC43Ny0uNWEzLjYyLDMuNjIsMCwwLDEsLjMzLS4yYy4yMy0uMTMuNDYtLjI2LjctLjM4bC40Ni0uMjNMMTQsNy42NGwuNjEtLjI1LjQ5LS4xNkwxNS44Miw3bC4zNy0uMDljLjMtLjA3LjU5LS4xNC44OS0uMTlsLjMsMCwuNzItLjExdjBMMTksNi41MlYzLjc5bC0uOTMuOTQtMSwxLS44OC0uODhMMTguMSwzbDAtLjA1LDEuNS0xLjUxbTAtMS40MUwxOSwuNzFsLTEuNSwxLjUtLjA2LDBMMTUuNTUsNC4xbC0uNy43MS43LjcxLjQyLjQxaDBsLS4xMSwwTDE1LjU2LDZsLS44Mi4yNS0uMDUsMC0uNDcuMTUtLjY2LjI2TDEyLjkyLDdsLS40Mi4yMS0uMDcsMGMtLjI2LjEzLS41MS4yNi0uNzUuNGwtLjI2LjE2LS4xLjA2Yy0uMjcuMTctLjU0LjM0LS44MS41M2ExLjA5LDEuMDksMCwwLDAtLjE3LjEzbC0uMDkuMDYtLjE2LjEyTDkuNjMsOWwtLjg1LjY5LDAsMGMtLjI4LjI2LS41NS41Mi0uODEuOGwwLDAtLjcxLjg0LS4zNC40NUw2LjgyLDEybC0uMDYuMDlhMS4wOSwxLjA5LDAsMCwwLS4xMy4xN2MtLjE5LjI3LS4zNi41NC0uNTMuODFsMCwuMDktLjE3LjI3Yy0uMTQuMjQtLjI3LjQ5LS40Ljc1cy0uMTcuMzMtLjI1LjQ5LS4xOS40My0uMjguNjQtLjE3LjQ0LS4yNS42Ni0uMTEuMzEtLjE2LjQ2bDAsLjA2Yy0uMDkuMjctLjE3LjU0LS4yNS44MiwwLC4xLDAsLjItLjA3LjNsMCwuMWMtLjA4LjMxLS4xNS42My0uMiwxbDAsLjIxLDAsLjEsMCwuMjFjMCwuMTktLjA2LjM3LS4wOC41N3YwSDBWMjNIMy44MXYwYzAsLjE5LjA1LjM4LjA4LjU3bDAsLjJMNCwyNGwwLC4yYy4wNS4zMy4xMi42NC4yLDFsMCwuMWMwLC4xLDAsLjIuMDcuMy4wOC4yOC4xNi41NS4yNS44MmwwLDAsLjE1LjQ4Yy4wOS4yMi4xNy40NC4yNi42NXMuMTguNDQuMjguNjVsLjIzLjQ1Yy4xNS4yOS4yOC41NS40Mi43OWwuMTYuMjYuMDYuMWMuMTcuMjcuMzQuNTQuNTMuODFsLjEzLjE4LjA2LjA4LjEyLjE2Yy4xMS4xNi4yMi4zMS4zNC40NmwuNy44NSwwLDBxLjM5LjQyLjgxLjgxbDAsMCwuODMuNy40NS4zNC4xNy4xMi4wOS4wNy4xNi4xMmMuMjcuMTkuNTUuMzYuODIuNTNsLjA5LjA1LjI2LjE2Yy4yNS4xNS41LjI4Ljc2LjQxbC4wNSwwLC40NC4yMi42NS4yOC42NS4yNi40Ny4xNi4wNSwwYy4yNy4wOS41NC4xNy44Mi4yNGwuMy4wOC4xLDBoMGwtLjQyLjQyLS43LjcxLjcuNzEsMS44NCwxLjg0LjY4LjY3Ljg4Ljg4LjcuNzEuNzEtLjcxLjg4LS44OC42OC0uNjcsMS44My0xLjg0LjcxLS43MS0uNzEtLjcxLS40Mi0uNDJoMGwuMSwwLC4zLS4wOGMuMjgtLjA3LjU1LS4xNS44Mi0uMjRsLjUxLS4xNy42Ny0uMjdjLjIxLS4wOC40My0uMTguNjQtLjI4cy4yOS0uMTQuNDMtLjIxbC4wNiwwYy4yNS0uMTMuNTEtLjI2Ljc1LS40MUwyNy45LDM1LDI4LDM1Yy4yNy0uMTcuNTQtLjM0LjgxLS41M2wuMTgtLjEzLjA4LS4wNi4xNi0uMTIuNDYtLjM0Ljg0LS42OSwwLDBjLjI3LS4yNi41NC0uNTIuOC0uOGwwLDAsLjcyLS44NWMuMTItLjE1LjIzLS4zMS4zNS0uNDdsLjExLS4xNS4wNi0uMDguMTMtLjE4Yy4xOS0uMjcuMzYtLjU0LjUzLS44MWwwLS4wOS4xNi0uMjZjLjE1LS4yNS4yOC0uNTEuNDEtLjc2cy4xNy0uMzQuMjQtLjQ5LjItLjQzLjI4LS42NS4xOC0uNDMuMjYtLjY1LjExLS4zMi4xNi0uNDhsMC0uMDVxLjE0LS4zOS4yNC0uODFjMC0uMSwwLS4yLjA4LS4zbDAtLjFjLjA4LS4zMi4xNS0uNjMuMi0uOTVsMC0uMjIsMC0uMSwwLS4yYzAtLjE5LjA2LS4zOC4wOC0uNTd2MGgzLjgxVjE5Ljc5SDM1LjQ5djBjMC0uMi0uMDUtLjM4LS4wOC0uNTdsMC0uMiwwLS4xLDAtLjIyYzAtLjMyLS4xMi0uNjMtLjItMWwwLS4xMWMwLS4xLDAtLjE5LS4wNy0uMjktLjA3LS4yOC0uMTUtLjU1LS4yNC0uODJsMC0uMDVjLS4wNS0uMTYtLjEtLjMxLS4xNi0uNDdzLS4xNy0uNDQtLjI2LS42NS0uMTgtLjQ0LS4yOC0uNjUtLjE0LS4zLS4yMi0uNDVjLS4xNS0uMy0uMjgtLjU1LS40Mi0uNzlsLS4xNi0uMjYtLjA2LS4xYy0uMTctLjI3LS4zNC0uNTQtLjUzLS44MWwtLjEzLS4xN0wzMi40OSwxMmwtLjEyLS4xNmMtLjExLS4xNi0uMjItLjMxLS4zNC0uNDZsLS43LS44NiwwLDBjLS4yNi0uMjgtLjUzLS41NS0uOC0uOGwwLDBMMjkuNjgsOWwtLjQ2LS4zNC0uMTYtLjEyTDI5LDguNTJsLS4xOC0uMTNjLS4yNy0uMTktLjU0LS4zNi0uODItLjUzbC0uMDgtLjA1LS4yNy0uMTdjLS4yNC0uMTQtLjUtLjI3LS43NS0uNGwtLjA2LDBMMjYuMzksN2wtLjY1LS4yOC0uNjUtLjI1LS40Ny0uMTYtLjA1LDBMMjMuNzUsNiwyMy40NSw2bC0uMSwwaDBsLjQyLS40MS43MS0uNzEtLjcxLS43MUwyMS45MiwyLjI2bC0uMDUsMEwyMC4zNi43MSwxOS42NSwwWiIvPjxwYXRoIGZpbGw9IiMyYzU5NjciIGQ9Ik0yMS4yMSwzNXYxLjI2QTE1LDE1LDAsMCwwLDM0LjUsMjNIMzMuMjVBMTMuNzEsMTMuNzEsMCwwLDEsMjEuMjEsMzVaIi8+PHBhdGggZmlsbD0iIzJjNTk2NyIgZD0iTTYuMDYsMjNINC44MUExNSwxNSwwLDAsMCwxOC4xLDM2LjI2VjM1QTEzLjcxLDEzLjcxLDAsMCwxLDYuMDYsMjNaIi8+PHBhdGggZmlsbD0iIzJjNTk2NyIgZD0iTTMzLjI1LDE5Ljg2SDM0LjVBMTUsMTUsMCwwLDAsMjEuMjEsNi41N1Y3LjgyQTEzLjczLDEzLjczLDAsMCwxLDMzLjI1LDE5Ljg2WiIvPjxwYXRoIGZpbGw9IiMyYzU5NjciIGQ9Ik0xOC4xLDcuODJWNi41N0ExNSwxNSwwLDAsMCw0LjgxLDE5Ljg2SDYuMDZBMTMuNzMsMTMuNzMsMCwwLDEsMTguMSw3LjgyWiIvPjxwb2x5Z29uIGZpbGw9IiMyYzU5NjciIHBvaW50cz0iMjAuMjggMy43OSAyMS4yMSA0LjczIDIyLjE3IDUuNjkgMjMuMDUgNC44MSAyMS4yMSAyLjk3IDIxLjE2IDIuOTIgMTkuNjUgMS40MSAxOC4xNSAyLjkyIDE4LjEgMi45NyAxNi4yNiA0LjgxIDE3LjE0IDUuNjkgMTguMSA0LjczIDE5LjAzIDMuNzkgMTkuMDMgMzkuMDMgMTguMSAzOC4xIDE3LjE0IDM3LjE0IDE2LjI2IDM4LjAyIDE4LjEgMzkuODYgMTguNzcgNDAuNTMgMTkuNjUgNDEuNDEgMjAuNTMgNDAuNTMgMjEuMjEgMzkuODYgMjMuMDUgMzguMDIgMjIuMTcgMzcuMTQgMjEuMjEgMzguMSAyMC4yOCAzOS4wMyAyMC4yOCAzLjc5Ii8+PHBvbHlnb24gZmlsbD0iIzJjNTk2NyIgcG9pbnRzPSIyMi43MSAyMC43OSAyMy42NCAxOS44NiAyNC42IDE4LjkgMjMuNzIgMTguMDIgMjEuODggMTkuODYgMjAuMzMgMjEuNDEgMjEuODggMjIuOTcgMjMuNzIgMjQuODEgMjQuNiAyMy45MyAyMy42NCAyMi45NyAyMi43MSAyMi4wNCAzOC4zMSAyMi4wNCAzOC4zMSAyMC43OSAyMi43MSAyMC43OSIvPjxwb2x5Z29uIGZpbGw9IiMyYzU5NjciIHBvaW50cz0iMTYuNiAyMi4wNCAxNS42NyAyMi45NyAxNC43MSAyMy45MyAxNS41OSAyNC44MSAxOC4xIDIyLjI5IDE4Ljk4IDIxLjQxIDE4LjEgMjAuNTQgMTUuNTkgMTguMDIgMTQuNzEgMTguOSAxNS42NyAxOS44NiAxNi42IDIwLjc5IDEgMjAuNzkgMSAyMi4wNCAxNi42IDIyLjA0Ii8+PC9zdmc+;" parent="1" vertex="1">
          <mxGeometry x="378.5" y="280" width="54.42" height="60" as="geometry" />
        </mxCell>
        <mxCell id="AX1sSN8mTPLwoX_LTjLj-37" value="&lt;b&gt;Oracle Autonomous Database&lt;/b&gt;&lt;div&gt;&lt;div style=&quot;&quot;&gt;&lt;br&gt;&lt;/div&gt;&lt;div style=&quot;&quot;&gt;Data Warehouse workload&lt;/div&gt;&lt;div style=&quot;&quot;&gt;Database version 23ai&lt;/div&gt;&lt;div style=&quot;&quot;&gt;8 ECPUs with auto scaling&lt;/div&gt;&lt;/div&gt;&lt;div style=&quot;&quot;&gt;1 TB of storage&lt;/div&gt;&lt;div style=&quot;&quot;&gt;Mutual TLS (mTLS) authentication not required&lt;/div&gt;&lt;div style=&quot;&quot;&gt;Allow secure access from specified IPs and VCNs (ACL enabled)&lt;br&gt;&lt;/div&gt;" style="rounded=1;whiteSpace=wrap;html=1;fillColor=#FCFBFA;strokeColor=#759C6C;fontColor=#161513;fontFamily=Oracle Sans;labelBackgroundColor=none;align=left;arcSize=7;verticalAlign=top;spacingLeft=10;spacingRight=5;" parent="1" vertex="1">
          <mxGeometry x="510" y="200" width="210" height="220" as="geometry" />
        </mxCell>
        <mxCell id="AX1sSN8mTPLwoX_LTjLj-42" value="" style="shape=image;verticalLabelPosition=bottom;labelBackgroundColor=default;verticalAlign=top;aspect=fixed;imageAspect=0;image=data:image/svg+xml,PHN2ZyB4bWxuczp4bGluaz0iaHR0cDovL3d3dy53My5vcmcvMTk5OS94bGluayIgeG1sbnM9Imh0dHA6Ly93d3cudzMub3JnLzIwMDAvc3ZnIiB4bWw6c3BhY2U9InByZXNlcnZlIiBzdHlsZT0iZW5hYmxlLWJhY2tncm91bmQ6bmV3IDAgMCA0OC40NyA0Mi4wMjsiIHZpZXdCb3g9IjAgMCA0OC40NyA0Mi4wMiIgeT0iMHB4IiB4PSIwcHgiIGlkPSJMYXllcl8xIiB2ZXJzaW9uPSIxLjEiPiYjeGE7PG1ldGFkYXRhPiYjeGE7JiN4YTsgICAmI3hhOyAgICAgICYjeGE7ICAgICAgICAgMjAyMi0wMy0wNFQxNjoxODowMi0wNjowMCYjeGE7ICAgICAgICAgeG1wLmlpZDphNmVlNzM0Ni03ZWNmLTQyNjItODczYy01MzIxYjBkYTAzZjMmI3hhOyAgICAgICAgIHhtcC5kaWQ6MmQ5YmYzNDgtODYzYy00ZDkzLWFjMzAtYTgxMDcyMDE0NDJhJiN4YTsgICAgICAgICB4bXAuZGlkOjJkOWJmMzQ4LTg2M2MtNGQ5My1hYzMwLWE4MTA3MjAxNDQyYSYjeGE7ICAgICAgICAgJiN4YTsgICAgICAgICAgICAmI3hhOyAgICAgICAgICAgICAgICYjeGE7ICAgICAgICAgICAgICAgICAgJiN4YTsgICAgICAgICAgICAgICAgICAgICBzYXZlZCYjeGE7ICAgICAgICAgICAgICAgICAgICAgeG1wLmlpZDoyZDliZjM0OC04NjNjLTRkOTMtYWMzMC1hODEwNzIwMTQ0MmEmI3hhOyAgICAgICAgICAgICAgICAgICAgIDIwMjEtMDQtMjdUMTM6NDE6MjgtMDU6MDAmI3hhOyAgICAgICAgICAgICAgICAgICAgIEFkb2JlIEJyaWRnZSAyMDIxIChNYWNpbnRvc2gpJiN4YTsgICAgICAgICAgICAgICAgICAgICAvbWV0YWRhdGEmI3hhOyAgICAgICAgICAgICAgICAgICYjeGE7ICAgICAgICAgICAgICAgJiN4YTsgICAgICAgICAgICAgICAmI3hhOyAgICAgICAgICAgICAgICAgICYjeGE7ICAgICAgICAgICAgICAgICAgICAgc2F2ZWQmI3hhOyAgICAgICAgICAgICAgICAgICAgIHhtcC5paWQ6YTZlZTczNDYtN2VjZi00MjYyLTg3M2MtNTMyMWIwZGEwM2YzJiN4YTsgICAgICAgICAgICAgICAgICAgICAyMDIyLTAzLTA0VDE2OjE4OjAyLTA2OjAwJiN4YTsgICAgICAgICAgICAgICAgICAgICBBZG9iZSBCcmlkZ2UgMjAyMSAoTWFjaW50b3NoKSYjeGE7ICAgICAgICAgICAgICAgICAgICAgL21ldGFkYXRhJiN4YTsgICAgICAgICAgICAgICAgICAmI3hhOyAgICAgICAgICAgICAgICYjeGE7ICAgICAgICAgICAgJiN4YTsgICAgICAgICAmI3hhOyAgICAgICAgIFRydWUmI3hhOyAgICAgICAgICYjeGE7ICAgICAgICAgICAgJiN4YTsgICAgICAgICAgICAgICBpY29uJiN4YTsgICAgICAgICAgICAgICBEYXRhJiN4YTsgICAgICAgICAgICAgICBhZ2dyZWdhdGlvbiYjeGE7ICAgICAgICAgICAgICAgbWFuYWdlbWVudCYjeGE7ICAgICAgICAgICAgICAgc3lzdGVtJiN4YTsgICAgICAgICAgICAgICBidXNpbmVzcyYjeGE7ICAgICAgICAgICAgICAgaW50ZWxsaWdlbmNlJiN4YTsgICAgICAgICAgICAgICBhbmFseXRpY3MmI3hhOyAgICAgICAgICAgICAgIHN0b3JlJiN4YTsgICAgICAgICAgICAgICBhbmFseXNpcyYjeGE7ICAgICAgICAgICAgICAgaWNvbiYjeGE7ICAgICAgICAgICAgICAgQnVzaW5lc3MmI3hhOyAgICAgICAgICAgICAgIERhdGEmI3hhOyAgICAgICAgICAgICAgIG1hY2hpbmUgbGVhcm5pbmcmI3hhOyAgICAgICAgICAgICAgIGFydGlmaWNpYWwgaW50ZWxsaWdlbmNlJiN4YTsgICAgICAgICAgICAgICBhdXRvbWF0ZSYjeGE7ICAgICAgICAgICAgICAgYXV0b21hdGl6YXRpb24mI3hhOyAgICAgICAgICAgICAgIHNlY3VyaXR5JiN4YTsgICAgICAgICAgICAgICBiYWNrdXAmI3hhOyAgICAgICAgICAgICAgIHVwZGF0ZSYjeGE7ICAgICAgICAgICAgICAgdGFzayYjeGE7ICAgICAgICAgICAgICAgQURDUyYjeGE7ICAgICAgICAgICAgICAgYXV0b25vbW91cyYjeGE7ICAgICAgICAgICAgICAgc2VydmljZSYjeGE7ICAgICAgICAgICAgJiN4YTsgICAgICAgICAmI3hhOyAgICAgICAgICYjeGE7ICAgICAgICAgICAgJiN4YTsgICAgICAgICAgICAgICBPcmFjbGUgQWxsIFJpZ2h0cyBSZXNlcnZlZCYjeGE7ICAgICAgICAgICAgJiN4YTsgICAgICAgICAmI3hhOyAgICAgICAgICYjeGE7ICAgICAgICAgICAgJiN4YTsgICAgICAgICAgICAgICBEYXRhIE1hbmFnZW1lbnQmI3hhOyAgICAgICAgICAgICAgIFNlcnZpY2UmI3hhOyAgICAgICAgICAgICAgIEF1dG9ub21vdXMmI3hhOyAgICAgICAgICAgICAgIERhdGFiYXNlJiN4YTsgICAgICAgICAgICAgICBDbG91ZCYjeGE7ICAgICAgICAgICAgICAgaWNvbiYjeGE7ICAgICAgICAgICAgJiN4YTsgICAgICAgICAmI3hhOyAgICAgICYjeGE7ICAgJiN4YTsmI3hhOyAgICAgICAgICAgICAgICAgICAgICAgICAgICAgICAgICAgICAgICAgICAgICAgICAgICAgICAgICAgICAgICAgICAgICAgICAgICAgICAgICAgICAgICAgICAgICAgICAgICAmI3hhOyAgICAgICAgICAgICAgICAgICAgICAgICAgICAgICAgICAgICAgICAgICAgICAgICAgICAgICAgICAgICAgICAgICAgICAgICAgICAgICAgICAgICAgICAgICAgICAgICAgICAmI3hhOyAgICAgICAgICAgICAgICAgICAgICAgICAgICAgICAgICAgICAgICAgICAgICAgICAgICAgICAgICAgICAgICAgICAgICAgICAgICAgICAgICAgICAgICAgICAgICAgICAgICAmI3hhOyAgICAgICAgICAgICAgICAgICAgICAgICAgICAgICAgICAgICAgICAgICAgICAgICAgICAgICAgICAgICAgICAgICAgICAgICAgICAgICAgICAgICAgICAgICAgICAgICAgICAmI3hhOyAgICAgICAgICAgICAgICAgICAgICAgICAgICAgICAgICAgICAgICAgICAgICAgICAgICAgICAgICAgICAgICAgICAgICAgICAgICAgICAgICAgICAgICAgICAgICAgICAgICAmI3hhOyAgICAgICAgICAgICAgICAgICAgICAgICAgICAgICAgICAgICAgICAgICAgICAgICAgICAgICAgICAgICAgICAgICAgICAgICAgICAgICAgICAgICAgICAgICAgICAgICAgICAmI3hhOyAgICAgICAgICAgICAgICAgICAgICAgICAgICAgICAgICAgICAgICAgICAgICAgICAgICAgICAgICAgICAgICAgICAgICAgICAgICAgICAgICAgICAgICAgICAgICAgICAgICAmI3hhOyAgICAgICAgICAgICAgICAgICAgICAgICAgICAgICAgICAgICAgICAgICAgICAgICAgICAgICAgICAgICAgICAgICAgICAgICAgICAgICAgICAgICAgICAgICAgICAgICAgICAmI3hhOyAgICAgICAgICAgICAgICAgICAgICAgICAgICAgICAgICAgICAgICAgICAgICAgICAgICAgICAgICAgICAgICAgICAgICAgICAgICAgICAgICAgICAgICAgICAgICAgICAgICAmI3hhOyAgICAgICAgICAgICAgICAgICAgICAgICAgICAgICAgICAgICAgICAgICAgICAgICAgICAgICAgICAgICAgICAgICAgICAgICAgICAgICAgICAgICAgICAgICAgICAgICAgICAmI3hhOyAgICAgICAgICAgICAgICAgICAgICAgICAgICAgICAgICAgICAgICAgICAgICAgICAgICAgICAgICAgICAgICAgICAgICAgICAgICAgICAgICAgICAgICAgICAgICAgICAgICAmI3hhOyAgICAgICAgICAgICAgICAgICAgICAgICAgICAgICAgICAgICAgICAgICAgICAgICAgICAgICAgICAgICAgICAgICAgICAgICAgICAgICAgICAgICAgICAgICAgICAgICAgICAmI3hhOyAgICAgICAgICAgICAgICAgICAgICAgICAgICAgICAgICAgICAgICAgICAgICAgICAgICAgICAgICAgICAgICAgICAgICAgICAgICAgICAgICAgICAgICAgICAgICAgICAgICAmI3hhOyAgICAgICAgICAgICAgICAgICAgICAgICAgICAgICAgICAgICAgICAgICAgICAgICAgICAgICAgICAgICAgICAgICAgICAgICAgICAgICAgICAgICAgICAgICAgICAgICAgICAmI3hhOyAgICAgICAgICAgICAgICAgICAgICAgICAgICAgICAgICAgICAgICAgICAgICAgICAgICAgICAgICAgICAgICAgICAgICAgICAgICAgICAgICAgICAgICAgICAgICAgICAgICAmI3hhOyAgICAgICAgICAgICAgICAgICAgICAgICAgICAgICAgICAgICAgICAgICAgICAgICAgICAgICAgICAgICAgICAgICAgICAgICAgICAgICAgICAgICAgICAgICAgICAgICAgICAmI3hhOyAgICAgICAgICAgICAgICAgICAgICAgICAgICAgICAgICAgICAgICAgICAgICAgICAgICAgICAgICAgICAgICAgICAgICAgICAgICAgICAgICAgICAgICAgICAgICAgICAgICAmI3hhOyAgICAgICAgICAgICAgICAgICAgICAgICAgICAgICAgICAgICAgICAgICAgICAgICAgICAgICAgICAgICAgICAgICAgICAgICAgICAgICAgICAgICAgICAgICAgICAgICAgICAmI3hhOyAgICAgICAgICAgICAgICAgICAgICAgICAgICAgICAgICAgICAgICAgICAgICAgICAgICAgICAgICAgICAgICAgICAgICAgICAgICAgICAgICAgICAgICAgICAgICAgICAgICAmI3hhOyAgICAgICAgICAgICAgICAgICAgICAgICAgICAgICAgICAgICAgICAgICAgICAgICAgICAgICAgICAgICAgICAgICAgICAgICAgICAgICAgICAgICAgICAgICAgICAgICAgICAmI3hhOyAgICAgICAgICAgICAgICAgICAgICAgICAgICYjeGE7PC9tZXRhZGF0YT4mI3hhOzxzdHlsZSB0eXBlPSJ0ZXh0L2NzcyI+JiN4YTsJLnN0MHtmaWxsOiNGRkZGRkY7fSYjeGE7CS5zdDF7ZmlsbDojMkM1OTY3O30mI3hhOzwvc3R5bGU+JiN4YTs8Zz4mI3hhOwk8Zz4mI3hhOwkJPHBhdGggZD0iTTIyLjUsNDEuNTJjLTMuMTIsMC02LjA3LTAuMjktOC4yOS0wLjgzYy0yLjk1LTAuNzEtNC4zOS0xLjc4LTQuMzktMy4yOVYyMi45SDAuNTRsMC4xMS0xLjUyJiMxMDsmIzk7JiM5OyYjOTtjMC4yNy0zLjY3LDIuMzktNi44OSw1LjY1LTguNjFjMC43MS0wLjM4LDEuMjEtMS4wNCwxLjM2LTEuODFjMC41MS0yLjYsMi4yNi00Ljc4LDQuNjgtNS44NWMxLjAyLTAuNDUsMi4xNS0wLjY4LDMuMjYtMC42OCYjMTA7JiM5OyYjOTsmIzk7YzAuMjUsMCwwLjUsMC4wMSwwLjc1LDAuMDNjMC4wOSwwLjAxLDAuMTcsMC4wMSwwLjI2LDAuMDFjMC43MSwwLDEuMzYtMC4yOCwxLjgyLTAuNzhjMS43Mi0xLjg1LDQuMDEtMi45Niw2LjUxLTMuMTVWMC41NGwxLTAuMDImIzEwOyYjOTsmIzk7JiM5O2wwLDAuMDFjMy42OSwwLjA4LDYuOTksMi4xNyw4LjY1LDUuNDljMC4xMiwwLjI0LDAuMjksMC40NywwLjQ4LDAuNjdjMC4yNCwwLjM1LDAuNTYsMC44LDAuODQsMS4yYzMsMC4xLDUuNzMsMS42Nyw3LjMzLDQuMjQmIzEwOyYjOTsmIzk7JiM5O2wwLjA0LDAuMDdsMC4zNSwxLjUzbDQuMTIsNC4xMmwtMi4wMSwyLjAxbC0xLjMtMS4zYy0wLjc5LDQuMTktNC40OSw3LjM0LTguODUsNy4zNGMtMC4xNCwwLTAuMjgsMC0wLjQyLTAuMDF2MTEuNTMmIzEwOyYjOTsmIzk7JiM5O2MwLDEuNS0xLjQ0LDIuNTgtNC4zOSwzLjI5QzI4LjU3LDQxLjIzLDI1LjYyLDQxLjUyLDIyLjUsNDEuNTJ6IiBjbGFzcz0ic3QwIi8+JiN4YTsJCTxwYXRoIGQ9Ik0yNS43MiwxLjAyYzMuNTksMCw2LjgzLDIsOC40Myw1LjIyYzAuMTUsMC4zLDAuMzUsMC41NywwLjU4LDAuOGMwLjIyLDAuMzQsMC42MiwwLjksMC45MywxLjM0JiMxMDsmIzk7JiM5OyYjOTtjMi45OCwwLjAyLDUuNjYsMS41OSw3LjE2LDQuMDFsMC4zNywxLjU4bDMuODcsMy44N2wtMS4zLDEuM2wtMS42Ny0xLjY3Yy0wLjMsNC40Mi0zLjk5LDcuOTItOC40OCw3LjkyJiMxMDsmIzk7JiM5OyYjOTtjLTAuMzEsMC0wLjYyLTAuMDMtMC45Mi0wLjA2djEyLjA4YzAsMS4yNC0xLjMxLDIuMTYtNCwyLjhjLTIuMiwwLjUzLTUuMSwwLjgxLTguMTgsMC44MXMtNS45OC0wLjI5LTguMTgtMC44MSYjMTA7JiM5OyYjOTsmIzk7Yy0yLjY5LTAuNjQtNC0xLjU2LTQtMi44VjIyLjRIMS4wOGwwLjA3LTAuOTljMC4yNi0zLjUsMi4yNy02LjU2LDUuMzktOC4yYzAuODUtMC40NSwxLjQ0LTEuMjMsMS42Mi0yLjE2JiMxMDsmIzk7JiM5OyYjOTtjMC40OC0yLjQ0LDIuMTItNC40OSw0LjM5LTUuNDljMC45Ny0wLjQyLDIuMDEtMC42NCwzLjA2LTAuNjRjMC4yNCwwLDAuNDcsMC4wMSwwLjcsMC4wM2MwLjEsMC4wMSwwLjIsMC4wMSwwLjMxLDAuMDEmIzEwOyYjOTsmIzk7JiM5O2MwLjg0LDAsMS42My0wLjMzLDIuMTktMC45NGMxLjc0LTEuODcsNC4xLTIuOTQsNi42NS0zLjAxbDAuMDIsMC45MmwtMC4wMi0wLjkyQzI1LjU1LDEuMDIsMjUuNjMsMS4wMiwyNS43MiwxLjAyIE0yNi40NCwwJiMxMDsmIzk7JiM5OyYjOTtsLTEsMC4wM2MtMC4wMSwwLTAuMDEsMC0wLjAyLDBsLTAuOTgsMC4wM2wwLDAuMDVDMjIsMC40LDE5Ljc3LDEuNTMsMTguMDgsMy4zNmMtMC4zNywwLjQtMC44OSwwLjYyLTEuNDYsMC42MiYjMTA7JiM5OyYjOTsmIzk7Yy0wLjA3LDAtMC4xNCwwLTAuMjEtMC4wMWMtMC4yNy0wLjAyLTAuNTMtMC4wNC0wLjgtMC4wNGMtMS4xOCwwLTIuMzgsMC4yNS0zLjQ2LDAuNzNjLTIuNTcsMS4xMy00LjQzLDMuNDUtNC45Nyw2LjIxJiMxMDsmIzk7JiM5OyYjOTtjLTAuMTIsMC42My0wLjUzLDEuMTYtMS4xMSwxLjQ2Yy0zLjQyLDEuOC01LjYzLDUuMTctNS45Miw5LjAxbC0wLjA3LDAuOTlMMCwyMy40aDEuMDhoOC4yNHYxNC4wMWMwLDIuNjMsMy41OSwzLjQ5LDQuNzcsMy43NyYjMTA7JiM5OyYjOTsmIzk7YzIuMjcsMC41NCw1LjI2LDAuODQsOC40MSwwLjg0YzMuMTYsMCw2LjE0LTAuMyw4LjQxLTAuODRjMS4xOC0wLjI4LDQuNzctMS4xNCw0Ljc3LTMuNzdWMjYuMzljNC4yNS0wLjA0LDcuOS0yLjkxLDkuMDUtNi44NiYjMTA7JiM5OyYjOTsmIzk7bDAuMzIsMC4zMmwwLjcxLDAuNzFsMC43MS0wLjcxbDEuMy0xLjNsMC43MS0wLjcxbC0wLjcxLTAuNzFsLTMuNjctMy42N2wtMC4zLTEuMzFMNDMuNzYsMTJsLTAuMDktMC4xNCYjMTA7JiM5OyYjOTsmIzk7Yy0xLjY0LTIuNjMtNC40MS00LjI3LTcuNDgtNC40NmMtMC4yMy0wLjMzLTAuNDctMC42OC0wLjYzLTAuOTFsLTAuMDUtMC4wOGwtMC4wNy0wLjA3Yy0wLjE2LTAuMTctMC4zLTAuMzUtMC4zOS0wLjU1JiMxMDsmIzk7JiM5OyYjOTtjLTEuNjctMy4zNC00LjkyLTUuNS04LjYxLTUuNzVMMjYuNDQsMEwyNi40NCwweiIgY2xhc3M9InN0MCIvPiYjeGE7CTwvZz4mI3hhOwk8cGF0aCBkPSJNMy4xMiwyMC41Nmg1LjgydjEuODRIMS4wOGwwLjA3LTAuOTljMC4yNi0zLjUsMi4yNy02LjU2LDUuMzktOC4yYzAuODUtMC40NSwxLjQ0LTEuMjMsMS42Mi0yLjE2JiMxMDsmIzk7JiM5O2MwLjQ4LTIuNDQsMi4xMi00LjQ5LDQuMzktNS40OWMxLjE4LTAuNTIsMi40OC0wLjczLDMuNzYtMC42MWMwLjk2LDAuMDksMS44Ny0wLjI1LDIuNS0wLjkzYzEuNzQtMS44Nyw0LjEtMi45NCw2LjY1LTMuMDFoMCYjMTA7JiM5OyYjOTtjMC4wOCwwLDAuMTcsMCwwLjI1LDBjMy41OSwwLDYuODMsMiw4LjQzLDUuMjJjMC4xNSwwLjMsMC4zNSwwLjU3LDAuNTgsMC44Yy0wLjY5LDAuMDYtMS4zNywwLjE5LTIuMDEsMC4zOSYjMTA7JiM5OyYjOTtjLTAuMDctMC4xMi0wLjE0LTAuMjQtMC4yMS0wLjM3Yy0xLjI5LTIuNTktMy45LTQuMi02Ljc5LTQuMmMtMC4wNywwLTAuMTQsMC0wLjIxLDBjLTIuMDUsMC4wNS0zLjk2LDAuOTItNS4zNiwyLjQyJiMxMDsmIzk7JiM5O2MtMS4wMiwxLjEtMi40OSwxLjY1LTQuMDIsMS41MWMtMC45Ny0wLjA5LTEuOTUsMC4wNy0yLjg1LDAuNDZjLTEuNzIsMC43Ni0yLjk2LDIuMzEtMy4zMyw0LjE2Yy0wLjI5LDEuNDctMS4yMywyLjcyLTIuNTcsMy40MyYjMTA7JiM5OyYjOTtDNS4xNCwxNi4wMiwzLjU5LDE4LjEyLDMuMTIsMjAuNTYgTTM0LjY5LDEyaDEuODJsMi41NSw4Ljg2aC0xLjk2TDM2LjY2LDE5aC0yLjIxbC0wLjQzLDEuODZoLTEuOUwzNC42OSwxMnogTTM0LjgsMTcuNDloMS41MiYjMTA7JiM5OyYjOTtsLTAuNzYtMy4zMUwzNC44LDE3LjQ5eiBNMjcuMTIsMTYuM2wtMS42Ny0xLjY3bC0xLjMsMS4zbDMuODcsMy44N2wzLjg3LTMuODdsLTEuMy0xLjNsLTEuNjIsMS42MmMwLjMyLTMuMzgsMy4xOC02LjAyLDYuNjMtNi4wMiYjMTA7JiM5OyYjOTtjMi41LDAsNC43NCwxLjQsNS44OCwzLjUybDEuMzQtMS4zNGMtMS41Mi0yLjQzLTQuMjItNC4wMS03LjIyLTQuMDFDMzEuMTEsOC4zOCwyNy40MiwxMS44OCwyNy4xMiwxNi4zIE00Ny4wNiwxNy44NGwtMy44Ny0zLjg3JiMxMDsmIzk7JiM5O2wtMy44NywzLjg3bDEuMywxLjNsMS42Mi0xLjYyYy0wLjMyLDMuMzgtMy4xOCw2LjAyLTYuNjMsNi4wMmMtMi41LDAtNC43NC0xLjQtNS44OC0zLjUybC0xLjM0LDEuMzQmIzEwOyYjOTsmIzk7YzEuNTIsMi40Myw0LjIyLDQuMDEsNy4yMiw0LjAxYzQuNDksMCw4LjE4LTMuNSw4LjQ4LTcuOTJsMS42NywxLjY3TDQ3LjA2LDE3Ljg0eiBNMzIuODUsMjYuNThjMC41OSwwLjE4LDEuMjEsMC4zLDEuODQsMC4zNiYjMTA7JiM5OyYjOTt2MTAuNDZjMCwxLjI0LTEuMzEsMi4xNi00LDIuOGMtMi4yLDAuNTMtNS4xLDAuODEtOC4xOCwwLjgxcy01Ljk4LTAuMjktOC4xOC0wLjgxYy0yLjY5LTAuNjQtNC0xLjU2LTQtMi44VjE3LjgmIzEwOyYjOTsmIzk7YzAtMS4yNSwxLjMyLTIuMTQsNC4wMi0yLjczYzIuMTMtMC40Niw1LjAzLTAuNzIsOC4xNi0wLjcyYzAuMTUsMCwwLjMxLDAsMC40NiwwdjEuODRjLTAuMTUsMC0wLjMsMC0wLjQ2LDAmIzEwOyYjOTsmIzk7Yy02LjU1LDAtOS45MywxLjA3LTEwLjM0LDEuNjd2MC4xMWMwLjQ0LDAuNjcsNC4xOSwxLjg0LDEwLjM0LDEuODRjMS4yNywwLDIuNDQtMC4wNSwzLjUtMC4xM2MwLjE4LDAuNjIsMC40MSwxLjIyLDAuNywxLjc4JiMxMDsmIzk7JiM5O2MtMS4zMiwwLjEyLTIuNzQsMC4xOS00LjIsMC4xOWMtMy4wOCwwLTUuOTgtMC4yOS04LjE4LTAuODFjLTAuODYtMC4yMS0xLjU4LTAuNDQtMi4xNy0wLjcxdjQuMjhjMC40NCwwLjY3LDQuMTksMS44NCwxMC4zNCwxLjg0JiMxMDsmIzk7JiM5O2MzLjQxLDAsNi4wNy0wLjM2LDcuODUtMC43OWMwLjc2LDAuNDgsMS41OSwwLjg2LDIuNDcsMS4xMmMtMC41OCwwLjI2LTEuMjksMC40OS0yLjE0LDAuNjljLTIuMiwwLjUzLTUuMSwwLjgxLTguMTgsMC44MSYjMTA7JiM5OyYjOTtzLTUuOTgtMC4yOS04LjE4LTAuODFjLTAuODYtMC4yMS0xLjU4LTAuNDQtMi4xNy0wLjcxdjQuMzNjMC40NCwwLjY3LDQuMTksMS44NCwxMC4zNCwxLjg0czkuOTEtMS4xNywxMC4zNC0xLjg0VjI2LjU4eiYjMTA7JiM5OyYjOTsgTTMyLjg1LDMzLjA2Yy0wLjU4LDAuMjYtMS4zLDAuNS0yLjE3LDAuNzFjLTIuMiwwLjUzLTUuMSwwLjgxLTguMTgsMC44MXMtNS45OC0wLjI5LTguMTgtMC44MWMtMC44Ni0wLjIxLTEuNTgtMC40NC0yLjE3LTAuNzEmIzEwOyYjOTsmIzk7djQuMjljMC4zOSwwLjU2LDMuNzksMS44NCwxMC4zNCwxLjg0czkuOTYtMS4yNywxMC4zNC0xLjg0VjMzLjA2eiIgY2xhc3M9InN0MSIvPiYjeGE7PC9nPiYjeGE7PC9zdmc+;" parent="1" vertex="1">
          <mxGeometry x="520" y="371.5" width="48" height="42" as="geometry" />
        </mxCell>
        <mxCell id="AX1sSN8mTPLwoX_LTjLj-46" value="HTTPS&lt;div&gt;TCP/443&lt;/div&gt;" style="text;html=1;align=center;verticalAlign=middle;whiteSpace=wrap;rounded=0;fillColor=none;opacity=60;fontSize=12;fontFamily=Oracle Sans Tab;" parent="1" vertex="1">
          <mxGeometry x="669.75" y="430" width="65.5" height="30" as="geometry" />
        </mxCell>
        <mxCell id="AX1sSN8mTPLwoX_LTjLj-32" style="edgeStyle=orthogonalEdgeStyle;rounded=0;orthogonalLoop=1;jettySize=auto;html=1;exitX=1;exitY=0.5;exitDx=0;exitDy=0;entryX=0;entryY=0.5;entryDx=0;entryDy=0;strokeColor=#4D4D4D;align=center;verticalAlign=middle;fontFamily=Helvetica;fontSize=11;fontColor=default;labelBackgroundColor=default;startArrow=oval;startFill=1;endArrow=oval;endFill=1;" parent="1" source="AX1sSN8mTPLwoX_LTjLj-28" target="AX1sSN8mTPLwoX_LTjLj-33" edge="1">
          <mxGeometry relative="1" as="geometry" />
        </mxCell>
        <mxCell id="AX1sSN8mTPLwoX_LTjLj-45" style="edgeStyle=orthogonalEdgeStyle;rounded=0;orthogonalLoop=1;jettySize=auto;html=1;exitX=1;exitY=0.5;exitDx=0;exitDy=0;entryX=0;entryY=0.5;entryDx=0;entryDy=0;endArrow=oval;endFill=1;startArrow=oval;startFill=1;strokeColor=#4D4D4D;" parent="1" source="AX1sSN8mTPLwoX_LTjLj-33" target="AX1sSN8mTPLwoX_LTjLj-37" edge="1">
          <mxGeometry relative="1" as="geometry">
            <mxPoint x="505.5" y="307.5000000000002" as="targetPoint" />
          </mxGeometry>
        </mxCell>
        <mxCell id="AX1sSN8mTPLwoX_LTjLj-52" style="edgeStyle=orthogonalEdgeStyle;rounded=0;orthogonalLoop=1;jettySize=auto;html=1;exitX=0.25;exitY=0;exitDx=0;exitDy=0;entryX=1;entryY=0.75;entryDx=0;entryDy=0;strokeColor=#4D4D4D;align=center;verticalAlign=middle;fontFamily=Helvetica;fontSize=11;fontColor=default;labelBackgroundColor=default;startArrow=oval;startFill=1;endArrow=oval;endFill=1;" parent="1" source="AX1sSN8mTPLwoX_LTjLj-47" target="AX1sSN8mTPLwoX_LTjLj-33" edge="1">
          <mxGeometry relative="1" as="geometry">
            <Array as="points">
              <mxPoint x="378" y="550" />
              <mxPoint x="453" y="550" />
              <mxPoint x="453" y="325" />
            </Array>
          </mxGeometry>
        </mxCell>
        <mxCell id="AX1sSN8mTPLwoX_LTjLj-47" value="" style="shape=image;verticalLabelPosition=bottom;labelBackgroundColor=default;verticalAlign=top;aspect=fixed;imageAspect=0;image=data:image/svg+xml,PHN2ZyB4bWxucz0iaHR0cDovL3d3dy53My5vcmcvMjAwMC9zdmciIHZpZXdCb3g9IjAgMCA1Ni45MyA0MiIgZGF0YS1uYW1lPSJMYXllciAxIiBpZD0iTGF5ZXJfMSI+PHRpdGxlPkdyb3VwczwvdGl0bGU+PG1ldGFkYXRhPiYjeGE7JiN4YTsgICAmI3hhOyAgICAgICYjeGE7ICAgICAgICAgJiN4YTsgICAgICAgICAgICAmI3hhOyAgICAgICAgICAgICAgIEdyb3VwcyYjeGE7ICAgICAgICAgICAgJiN4YTsgICAgICAgICAmI3hhOyAgICAgICAgICYjeGE7ICAgICAgICAgICAgJiN4YTsgICAgICAgICAgICAgICBVc2VyJiN4YTsgICAgICAgICAgICAgICBQZXJzb24mI3hhOyAgICAgICAgICAgICAgIFBlb3BsZSYjeGE7ICAgICAgICAgICAgICAgUGVyc29uYSYjeGE7ICAgICAgICAgICAgICAgaWNvbiYjeGE7ICAgICAgICAgICAgJiN4YTsgICAgICAgICAmI3hhOyAgICAgICAgIDIwMjItMTAtMjFUMTM6NDU6MjktMDU6MDAmI3hhOyAgICAgICAgIHhtcC5paWQ6NjgzMjIyOTktOWUxMi00Mzc3LWE1NDUtMzZhYzcxMGU1M2U5JiN4YTsgICAgICAgICB4bXAuZGlkOjMzYzhhYjkxLWM3N2MtNDhjYS1iN2QzLWMxNTQ0YTE2MzY3MCYjeGE7ICAgICAgICAgeG1wLmRpZDozM2M4YWI5MS1jNzdjLTQ4Y2EtYjdkMy1jMTU0NGExNjM2NzAmI3hhOyAgICAgICAgICYjeGE7ICAgICAgICAgICAgJiN4YTsgICAgICAgICAgICAgICAmI3hhOyAgICAgICAgICAgICAgICAgICYjeGE7ICAgICAgICAgICAgICAgICAgICAgc2F2ZWQmI3hhOyAgICAgICAgICAgICAgICAgICAgIHhtcC5paWQ6MzNjOGFiOTEtYzc3Yy00OGNhLWI3ZDMtYzE1NDRhMTYzNjcwJiN4YTsgICAgICAgICAgICAgICAgICAgICAyMDIxLTA4LTMxVDE1OjQ0OjE5LTA1OjAwJiN4YTsgICAgICAgICAgICAgICAgICAgICBBZG9iZSBCcmlkZ2UgMjAyMSAoTWFjaW50b3NoKSYjeGE7ICAgICAgICAgICAgICAgICAgICAgL21ldGFkYXRhJiN4YTsgICAgICAgICAgICAgICAgICAmI3hhOyAgICAgICAgICAgICAgICYjeGE7ICAgICAgICAgICAgICAgJiN4YTsgICAgICAgICAgICAgICAgICAmI3hhOyAgICAgICAgICAgICAgICAgICAgIHNhdmVkJiN4YTsgICAgICAgICAgICAgICAgICAgICB4bXAuaWlkOjY4MzIyMjk5LTllMTItNDM3Ny1hNTQ1LTM2YWM3MTBlNTNlOSYjeGE7ICAgICAgICAgICAgICAgICAgICAgMjAyMi0xMC0yMVQxMzo0NToyOS0wNTowMCYjeGE7ICAgICAgICAgICAgICAgICAgICAgQWRvYmUgQnJpZGdlIDIwMjEgKE1hY2ludG9zaCkmI3hhOyAgICAgICAgICAgICAgICAgICAgIC9tZXRhZGF0YSYjeGE7ICAgICAgICAgICAgICAgICAgJiN4YTsgICAgICAgICAgICAgICAmI3hhOyAgICAgICAgICAgICYjeGE7ICAgICAgICAgJiN4YTsgICAgICAmI3hhOyAgICYjeGE7JiN4YTsgICAgICAgICAgICAgICAgICAgICAgICAgICAgICAgICAgICAgICAgICAgICAgICAgICAgICAgICAgICAgICAgICAgICAgICAgICAgICAgICAgICAgICAgICAgICAgICAgICAgJiN4YTsgICAgICAgICAgICAgICAgICAgICAgICAgICAgICAgICAgICAgICAgICAgICAgICAgICAgICAgICAgICAgICAgICAgICAgICAgICAgICAgICAgICAgICAgICAgICAgICAgICAgJiN4YTsgICAgICAgICAgICAgICAgICAgICAgICAgICAgICAgICAgICAgICAgICAgICAgICAgICAgICAgICAgICAgICAgICAgICAgICAgICAgICAgICAgICAgICAgICAgICAgICAgICAgJiN4YTsgICAgICAgICAgICAgICAgICAgICAgICAgICAgICAgICAgICAgICAgICAgICAgICAgICAgICAgICAgICAgICAgICAgICAgICAgICAgICAgICAgICAgICAgICAgICAgICAgICAgJiN4YTsgICAgICAgICAgICAgICAgICAgICAgICAgICAgICAgICAgICAgICAgICAgICAgICAgICAgICAgICAgICAgICAgICAgICAgICAgICAgICAgICAgICAgICAgICAgICAgICAgICAgJiN4YTsgICAgICAgICAgICAgICAgICAgICAgICAgICAgICAgICAgICAgICAgICAgICAgICAgICAgICAgICAgICAgICAgICAgICAgICAgICAgICAgICAgICAgICAgICAgICAgICAgICAgJiN4YTsgICAgICAgICAgICAgICAgICAgICAgICAgICAgICAgICAgICAgICAgICAgICAgICAgICAgICAgICAgICAgICAgICAgICAgICAgICAgICAgICAgICAgICAgICAgICAgICAgICAgJiN4YTsgICAgICAgICAgICAgICAgICAgICAgICAgICAgICAgICAgICAgICAgICAgICAgICAgICAgICAgICAgICAgICAgICAgICAgICAgICAgICAgICAgICAgICAgICAgICAgICAgICAgJiN4YTsgICAgICAgICAgICAgICAgICAgICAgICAgICAgICAgICAgICAgICAgICAgICAgICAgICAgICAgICAgICAgICAgICAgICAgICAgICAgICAgICAgICAgICAgICAgICAgICAgICAgJiN4YTsgICAgICAgICAgICAgICAgICAgICAgICAgICAgICAgICAgICAgICAgICAgICAgICAgICAgICAgICAgICAgICAgICAgICAgICAgICAgICAgICAgICAgICAgICAgICAgICAgICAgJiN4YTsgICAgICAgICAgICAgICAgICAgICAgICAgICAgICAgICAgICAgICAgICAgICAgICAgICAgICAgICAgICAgICAgICAgICAgICAgICAgICAgICAgICAgICAgICAgICAgICAgICAgJiN4YTsgICAgICAgICAgICAgICAgICAgICAgICAgICAgICAgICAgICAgICAgICAgICAgICAgICAgICAgICAgICAgICAgICAgICAgICAgICAgICAgICAgICAgICAgICAgICAgICAgICAgJiN4YTsgICAgICAgICAgICAgICAgICAgICAgICAgICAgICAgICAgICAgICAgICAgICAgICAgICAgICAgICAgICAgICAgICAgICAgICAgICAgICAgICAgICAgICAgICAgICAgICAgICAgJiN4YTsgICAgICAgICAgICAgICAgICAgICAgICAgICAgICAgICAgICAgICAgICAgICAgICAgICAgICAgICAgICAgICAgICAgICAgICAgICAgICAgICAgICAgICAgICAgICAgICYjeGE7PC9tZXRhZGF0YT4mI3hhOzxwYXRoIGZpbGw9IiNmZmYiIGQ9Ik0uNSw0MS41VjI2LjMxQTUuMzYsNS4zNiwwLDAsMSw1Ljg1LDIxSDh2LS4zMWE3LjQ0LDcuNDQsMCwxLDEsNy43My0uMTVoLjVhNi4zLDYuMywwLDAsMSw1LTIuNDVoMi42VjE3QTguODksOC44OSwwLDEsMSwzMywxN3YxaDIuNjZhNi40NCw2LjQ0LDAsMCwxLDUsMi40NWguNWE3LjQ0LDcuNDQsMCwxLDEsNy44LjExVjIxaDJhNS4zNiw1LjM2LDAsMCwxLDUuMzUsNS4zNVY0MS41WiIvPjxwYXRoIGZpbGw9IiNmZmYiIGQ9Ik0yOC40MiwxYTguMzksOC4zOSwwLDAsMSw0LjEsMTUuNzJ2MS44M2gzLjE2QTYsNiwwLDAsMSw0MC40OCwyMWgzLjIzYTYuOTQsNi45NCwwLDEsMSwzLDBoMS44di40NmgyLjU1YTQuODYsNC44NiwwLDAsMSw0Ljg1LDQuODVWNDFIMVYyNi4zMWE0Ljg2LDQuODYsMCwwLDEsNC44NS00Ljg1SDguNDdWMjFIMTAuMmE2Ljk0LDYuOTQsMCwxLDEsMywwaDMuMjNhNS43OCw1Ljc4LDAsMCwxLDQuNzItMi40NWgzLjFWMTYuNjhBOC4zOSw4LjM5LDAsMCwxLDI4LjQyLDFtMC0xYTkuMzksOS4zOSwwLDAsMC01LjE1LDE3LjI0di4zMWgtMi4xYTYuNjMsNi42MywwLDAsMC0yLjUuNDksNy45NCw3Ljk0LDAsMSwwLTE0LjktMy44MSw4LDgsMCwwLDAsMyw2LjIzaC0xQTUuODYsNS44NiwwLDAsMCwwLDI2LjMxVjQySDU2LjkzVjI2LjMxYTUuODYsNS44NiwwLDAsMC01Ljg1LTUuODVoLTFhNy45NCw3Ljk0LDAsMSwwLTEyLjg0LTYuMjMsNy44Nyw3Ljg3LDAsMCwwLDEsMy44Myw3LDcsMCwwLDAtMi42LS41MUgzMy41MnYtLjI2QTkuNCw5LjQsMCwwLDAsMjguNDIsMFoiLz48cGF0aCBmaWxsPSIjMmM1OTY3IiBkPSJNNDUuMjIsMjEuMTdhNi45NSw2Ljk1LDAsMSwwLTYuOTQtNi45NEE3LDcsMCwwLDAsNDUuMjIsMjEuMTdaTTQ1LjIyLDlBNS4yNyw1LjI3LDAsMSwxLDQwLDE0LjIzLDUuMjgsNS4yOCwwLDAsMSw0NS4yMiw5WiIvPjxwYXRoIGZpbGw9IiMyYzU5NjciIGQ9Ik01MS4wOCwyMS40Nkg0OS42NWwtLjI1LjMzYTUuMjcsNS4yNywwLDAsMS04LjM2LDBsLS4yNS0uMzNoLS4wOGE1LjgyLDUuODIsMCwwLDAtNS0yLjkxSDM0bC0uMjUuMzNhNi43Miw2LjcyLDAsMCwxLTEwLjY2LDBsLS4yNS0uMzNIMjEuMTdhNS44MSw1LjgxLDAsMCwwLTUsMi45MWgwbC0uMjUuMzNhNS4yNyw1LjI3LDAsMCwxLTguMzYsMGwtLjI1LS4zM0g1Ljg1QTQuODYsNC44NiwwLDAsMCwxLDI2LjMxVjQxSDIuNjhWMjYuMzFhMy4xOCwzLjE4LDAsMCwxLDMuMTctMy4xOGguNjJhNyw3LDAsMCwwLDguODksMS4zNlY0MUgxN1YyNC4zNmE0LjEzLDQuMTMsMCwwLDEsNC4xMy00LjEzSDIyYTguNDEsOC40MSwwLDAsMCwxMi43OSwwaC44NmE0LjEzLDQuMTMsMCwwLDEsNC4xMyw0LjEzVjQxaDEuNjhWMjQuNDNhNi45Myw2LjkzLDAsMCwwLDktMS4zaC42MmEzLjE5LDMuMTksMCwwLDEsMy4xOCwzLjE4VjQxaDEuNjdWMjYuMzFBNC44Niw0Ljg2LDAsMCwwLDUxLjA4LDIxLjQ2WiIvPjxwYXRoIGZpbGw9IiMyYzU5NjciIGQ9Ik0xMS43MSwyMS4xN2E2Ljk1LDYuOTUsMCwxLDAtNi45NC02Ljk0QTcsNywwLDAsMCwxMS43MSwyMS4xN1pNMTEuNzEsOWE1LjI3LDUuMjcsMCwxLDEtNS4yNyw1LjI3QTUuMjcsNS4yNywwLDAsMSwxMS43MSw5WiIvPjxwYXRoIGZpbGw9IiMyYzU5NjciIGQ9Ik0yOC40MiwxNy43OUE4LjQsOC40LDAsMSwwLDIwLDkuNCw4LjQsOC40LDAsMCwwLDI4LjQyLDE3Ljc5Wm0wLTE1LjExQTYuNzIsNi43MiwwLDEsMSwyMS43LDkuNCw2LjczLDYuNzMsMCwwLDEsMjguNDIsMi42OFoiLz48cG9seWdvbiBmaWxsPSIjMmM1OTY3IiBwb2ludHM9IjIxLjE3IDMwLjY0IDIwLjMzIDMwLjY0IDIwLjMzIDQxIDIwLjc1IDQxIDIyLjAxIDQxIDIyLjAxIDMyLjMyIDIxLjE3IDMwLjY0Ii8+PHBvbHlnb24gZmlsbD0iIzJjNTk2NyIgcG9pbnRzPSIzNS42MiAzMC42NCAzNS42MiAzMC42NCAzNC43OCAzMi4zMiAzNC43OCA0MSAzNi4xOCA0MSAzNi40NiA0MSAzNi40NiAzMC42NCAzNS42MiAzMC42NCIvPjxwb2x5Z29uIGZpbGw9IiMyYzU5NjciIHBvaW50cz0iNTAuMDcgMzMuOTkgNTAuMDcgNDEgNTEuNzUgNDEgNTEuNzUgMzIuMzIgNTAuOTEgMzIuMzIgNTAuMDcgMzMuOTkiLz48cG9seWdvbiBmaWxsPSIjMmM1OTY3IiBwb2ludHM9IjUuMTggMzIuMzIgNS4xOCA0MSA2Ljg1IDQxIDYuODUgMzMuOTkgNi4wMSAzMi4zMiA1LjE4IDMyLjMyIi8+PC9zdmc+;" parent="1" vertex="1">
          <mxGeometry x="364" y="610" width="57" height="42" as="geometry" />
        </mxCell>
        <mxCell id="AX1sSN8mTPLwoX_LTjLj-48" value="Developers" style="text;html=1;align=center;verticalAlign=middle;whiteSpace=wrap;rounded=0;fillColor=none;opacity=60;fontSize=12;fontFamily=Oracle Sans Tab;" parent="1" vertex="1">
          <mxGeometry x="362.5" y="660" width="60" height="20" as="geometry" />
        </mxCell>
        <mxCell id="AX1sSN8mTPLwoX_LTjLj-49" value="" style="shape=image;verticalLabelPosition=bottom;labelBackgroundColor=default;verticalAlign=top;aspect=fixed;imageAspect=0;image=data:image/svg+xml,PHN2ZyB4bWxucz0iaHR0cDovL3d3dy53My5vcmcvMjAwMC9zdmciIHZpZXdCb3g9IjAgMCA1Ni45MyA0MiIgZGF0YS1uYW1lPSJMYXllciAxIiBpZD0iTGF5ZXJfMSI+PHRpdGxlPkdyb3VwczwvdGl0bGU+PG1ldGFkYXRhPiYjeGE7JiN4YTsgICAmI3hhOyAgICAgICYjeGE7ICAgICAgICAgJiN4YTsgICAgICAgICAgICAmI3hhOyAgICAgICAgICAgICAgIEdyb3VwcyYjeGE7ICAgICAgICAgICAgJiN4YTsgICAgICAgICAmI3hhOyAgICAgICAgICYjeGE7ICAgICAgICAgICAgJiN4YTsgICAgICAgICAgICAgICBVc2VyJiN4YTsgICAgICAgICAgICAgICBQZXJzb24mI3hhOyAgICAgICAgICAgICAgIFBlb3BsZSYjeGE7ICAgICAgICAgICAgICAgUGVyc29uYSYjeGE7ICAgICAgICAgICAgICAgaWNvbiYjeGE7ICAgICAgICAgICAgJiN4YTsgICAgICAgICAmI3hhOyAgICAgICAgIDIwMjItMTAtMjFUMTM6NDU6MjktMDU6MDAmI3hhOyAgICAgICAgIHhtcC5paWQ6NjgzMjIyOTktOWUxMi00Mzc3LWE1NDUtMzZhYzcxMGU1M2U5JiN4YTsgICAgICAgICB4bXAuZGlkOjMzYzhhYjkxLWM3N2MtNDhjYS1iN2QzLWMxNTQ0YTE2MzY3MCYjeGE7ICAgICAgICAgeG1wLmRpZDozM2M4YWI5MS1jNzdjLTQ4Y2EtYjdkMy1jMTU0NGExNjM2NzAmI3hhOyAgICAgICAgICYjeGE7ICAgICAgICAgICAgJiN4YTsgICAgICAgICAgICAgICAmI3hhOyAgICAgICAgICAgICAgICAgICYjeGE7ICAgICAgICAgICAgICAgICAgICAgc2F2ZWQmI3hhOyAgICAgICAgICAgICAgICAgICAgIHhtcC5paWQ6MzNjOGFiOTEtYzc3Yy00OGNhLWI3ZDMtYzE1NDRhMTYzNjcwJiN4YTsgICAgICAgICAgICAgICAgICAgICAyMDIxLTA4LTMxVDE1OjQ0OjE5LTA1OjAwJiN4YTsgICAgICAgICAgICAgICAgICAgICBBZG9iZSBCcmlkZ2UgMjAyMSAoTWFjaW50b3NoKSYjeGE7ICAgICAgICAgICAgICAgICAgICAgL21ldGFkYXRhJiN4YTsgICAgICAgICAgICAgICAgICAmI3hhOyAgICAgICAgICAgICAgICYjeGE7ICAgICAgICAgICAgICAgJiN4YTsgICAgICAgICAgICAgICAgICAmI3hhOyAgICAgICAgICAgICAgICAgICAgIHNhdmVkJiN4YTsgICAgICAgICAgICAgICAgICAgICB4bXAuaWlkOjY4MzIyMjk5LTllMTItNDM3Ny1hNTQ1LTM2YWM3MTBlNTNlOSYjeGE7ICAgICAgICAgICAgICAgICAgICAgMjAyMi0xMC0yMVQxMzo0NToyOS0wNTowMCYjeGE7ICAgICAgICAgICAgICAgICAgICAgQWRvYmUgQnJpZGdlIDIwMjEgKE1hY2ludG9zaCkmI3hhOyAgICAgICAgICAgICAgICAgICAgIC9tZXRhZGF0YSYjeGE7ICAgICAgICAgICAgICAgICAgJiN4YTsgICAgICAgICAgICAgICAmI3hhOyAgICAgICAgICAgICYjeGE7ICAgICAgICAgJiN4YTsgICAgICAmI3hhOyAgICYjeGE7JiN4YTsgICAgICAgICAgICAgICAgICAgICAgICAgICAgICAgICAgICAgICAgICAgICAgICAgICAgICAgICAgICAgICAgICAgICAgICAgICAgICAgICAgICAgICAgICAgICAgICAgICAgJiN4YTsgICAgICAgICAgICAgICAgICAgICAgICAgICAgICAgICAgICAgICAgICAgICAgICAgICAgICAgICAgICAgICAgICAgICAgICAgICAgICAgICAgICAgICAgICAgICAgICAgICAgJiN4YTsgICAgICAgICAgICAgICAgICAgICAgICAgICAgICAgICAgICAgICAgICAgICAgICAgICAgICAgICAgICAgICAgICAgICAgICAgICAgICAgICAgICAgICAgICAgICAgICAgICAgJiN4YTsgICAgICAgICAgICAgICAgICAgICAgICAgICAgICAgICAgICAgICAgICAgICAgICAgICAgICAgICAgICAgICAgICAgICAgICAgICAgICAgICAgICAgICAgICAgICAgICAgICAgJiN4YTsgICAgICAgICAgICAgICAgICAgICAgICAgICAgICAgICAgICAgICAgICAgICAgICAgICAgICAgICAgICAgICAgICAgICAgICAgICAgICAgICAgICAgICAgICAgICAgICAgICAgJiN4YTsgICAgICAgICAgICAgICAgICAgICAgICAgICAgICAgICAgICAgICAgICAgICAgICAgICAgICAgICAgICAgICAgICAgICAgICAgICAgICAgICAgICAgICAgICAgICAgICAgICAgJiN4YTsgICAgICAgICAgICAgICAgICAgICAgICAgICAgICAgICAgICAgICAgICAgICAgICAgICAgICAgICAgICAgICAgICAgICAgICAgICAgICAgICAgICAgICAgICAgICAgICAgICAgJiN4YTsgICAgICAgICAgICAgICAgICAgICAgICAgICAgICAgICAgICAgICAgICAgICAgICAgICAgICAgICAgICAgICAgICAgICAgICAgICAgICAgICAgICAgICAgICAgICAgICAgICAgJiN4YTsgICAgICAgICAgICAgICAgICAgICAgICAgICAgICAgICAgICAgICAgICAgICAgICAgICAgICAgICAgICAgICAgICAgICAgICAgICAgICAgICAgICAgICAgICAgICAgICAgICAgJiN4YTsgICAgICAgICAgICAgICAgICAgICAgICAgICAgICAgICAgICAgICAgICAgICAgICAgICAgICAgICAgICAgICAgICAgICAgICAgICAgICAgICAgICAgICAgICAgICAgICAgICAgJiN4YTsgICAgICAgICAgICAgICAgICAgICAgICAgICAgICAgICAgICAgICAgICAgICAgICAgICAgICAgICAgICAgICAgICAgICAgICAgICAgICAgICAgICAgICAgICAgICAgICAgICAgJiN4YTsgICAgICAgICAgICAgICAgICAgICAgICAgICAgICAgICAgICAgICAgICAgICAgICAgICAgICAgICAgICAgICAgICAgICAgICAgICAgICAgICAgICAgICAgICAgICAgICAgICAgJiN4YTsgICAgICAgICAgICAgICAgICAgICAgICAgICAgICAgICAgICAgICAgICAgICAgICAgICAgICAgICAgICAgICAgICAgICAgICAgICAgICAgICAgICAgICAgICAgICAgICAgICAgJiN4YTsgICAgICAgICAgICAgICAgICAgICAgICAgICAgICAgICAgICAgICAgICAgICAgICAgICAgICAgICAgICAgICAgICAgICAgICAgICAgICAgICAgICAgICAgICAgICAgICYjeGE7PC9tZXRhZGF0YT4mI3hhOzxwYXRoIGZpbGw9IiNmZmYiIGQ9Ik0uNSw0MS41VjI2LjMxQTUuMzYsNS4zNiwwLDAsMSw1Ljg1LDIxSDh2LS4zMWE3LjQ0LDcuNDQsMCwxLDEsNy43My0uMTVoLjVhNi4zLDYuMywwLDAsMSw1LTIuNDVoMi42VjE3QTguODksOC44OSwwLDEsMSwzMywxN3YxaDIuNjZhNi40NCw2LjQ0LDAsMCwxLDUsMi40NWguNWE3LjQ0LDcuNDQsMCwxLDEsNy44LjExVjIxaDJhNS4zNiw1LjM2LDAsMCwxLDUuMzUsNS4zNVY0MS41WiIvPjxwYXRoIGZpbGw9IiNmZmYiIGQ9Ik0yOC40MiwxYTguMzksOC4zOSwwLDAsMSw0LjEsMTUuNzJ2MS44M2gzLjE2QTYsNiwwLDAsMSw0MC40OCwyMWgzLjIzYTYuOTQsNi45NCwwLDEsMSwzLDBoMS44di40NmgyLjU1YTQuODYsNC44NiwwLDAsMSw0Ljg1LDQuODVWNDFIMVYyNi4zMWE0Ljg2LDQuODYsMCwwLDEsNC44NS00Ljg1SDguNDdWMjFIMTAuMmE2Ljk0LDYuOTQsMCwxLDEsMywwaDMuMjNhNS43OCw1Ljc4LDAsMCwxLDQuNzItMi40NWgzLjFWMTYuNjhBOC4zOSw4LjM5LDAsMCwxLDI4LjQyLDFtMC0xYTkuMzksOS4zOSwwLDAsMC01LjE1LDE3LjI0di4zMWgtMi4xYTYuNjMsNi42MywwLDAsMC0yLjUuNDksNy45NCw3Ljk0LDAsMSwwLTE0LjktMy44MSw4LDgsMCwwLDAsMyw2LjIzaC0xQTUuODYsNS44NiwwLDAsMCwwLDI2LjMxVjQySDU2LjkzVjI2LjMxYTUuODYsNS44NiwwLDAsMC01Ljg1LTUuODVoLTFhNy45NCw3Ljk0LDAsMSwwLTEyLjg0LTYuMjMsNy44Nyw3Ljg3LDAsMCwwLDEsMy44Myw3LDcsMCwwLDAtMi42LS41MUgzMy41MnYtLjI2QTkuNCw5LjQsMCwwLDAsMjguNDIsMFoiLz48cGF0aCBmaWxsPSIjMmM1OTY3IiBkPSJNNDUuMjIsMjEuMTdhNi45NSw2Ljk1LDAsMSwwLTYuOTQtNi45NEE3LDcsMCwwLDAsNDUuMjIsMjEuMTdaTTQ1LjIyLDlBNS4yNyw1LjI3LDAsMSwxLDQwLDE0LjIzLDUuMjgsNS4yOCwwLDAsMSw0NS4yMiw5WiIvPjxwYXRoIGZpbGw9IiMyYzU5NjciIGQ9Ik01MS4wOCwyMS40Nkg0OS42NWwtLjI1LjMzYTUuMjcsNS4yNywwLDAsMS04LjM2LDBsLS4yNS0uMzNoLS4wOGE1LjgyLDUuODIsMCwwLDAtNS0yLjkxSDM0bC0uMjUuMzNhNi43Miw2LjcyLDAsMCwxLTEwLjY2LDBsLS4yNS0uMzNIMjEuMTdhNS44MSw1LjgxLDAsMCwwLTUsMi45MWgwbC0uMjUuMzNhNS4yNyw1LjI3LDAsMCwxLTguMzYsMGwtLjI1LS4zM0g1Ljg1QTQuODYsNC44NiwwLDAsMCwxLDI2LjMxVjQxSDIuNjhWMjYuMzFhMy4xOCwzLjE4LDAsMCwxLDMuMTctMy4xOGguNjJhNyw3LDAsMCwwLDguODksMS4zNlY0MUgxN1YyNC4zNmE0LjEzLDQuMTMsMCwwLDEsNC4xMy00LjEzSDIyYTguNDEsOC40MSwwLDAsMCwxMi43OSwwaC44NmE0LjEzLDQuMTMsMCwwLDEsNC4xMyw0LjEzVjQxaDEuNjhWMjQuNDNhNi45Myw2LjkzLDAsMCwwLDktMS4zaC42MmEzLjE5LDMuMTksMCwwLDEsMy4xOCwzLjE4VjQxaDEuNjdWMjYuMzFBNC44Niw0Ljg2LDAsMCwwLDUxLjA4LDIxLjQ2WiIvPjxwYXRoIGZpbGw9IiMyYzU5NjciIGQ9Ik0xMS43MSwyMS4xN2E2Ljk1LDYuOTUsMCwxLDAtNi45NC02Ljk0QTcsNywwLDAsMCwxMS43MSwyMS4xN1pNMTEuNzEsOWE1LjI3LDUuMjcsMCwxLDEtNS4yNyw1LjI3QTUuMjcsNS4yNywwLDAsMSwxMS43MSw5WiIvPjxwYXRoIGZpbGw9IiMyYzU5NjciIGQ9Ik0yOC40MiwxNy43OUE4LjQsOC40LDAsMSwwLDIwLDkuNCw4LjQsOC40LDAsMCwwLDI4LjQyLDE3Ljc5Wm0wLTE1LjExQTYuNzIsNi43MiwwLDEsMSwyMS43LDkuNCw2LjczLDYuNzMsMCwwLDEsMjguNDIsMi42OFoiLz48cG9seWdvbiBmaWxsPSIjMmM1OTY3IiBwb2ludHM9IjIxLjE3IDMwLjY0IDIwLjMzIDMwLjY0IDIwLjMzIDQxIDIwLjc1IDQxIDIyLjAxIDQxIDIyLjAxIDMyLjMyIDIxLjE3IDMwLjY0Ii8+PHBvbHlnb24gZmlsbD0iIzJjNTk2NyIgcG9pbnRzPSIzNS42MiAzMC42NCAzNS42MiAzMC42NCAzNC43OCAzMi4zMiAzNC43OCA0MSAzNi4xOCA0MSAzNi40NiA0MSAzNi40NiAzMC42NCAzNS42MiAzMC42NCIvPjxwb2x5Z29uIGZpbGw9IiMyYzU5NjciIHBvaW50cz0iNTAuMDcgMzMuOTkgNTAuMDcgNDEgNTEuNzUgNDEgNTEuNzUgMzIuMzIgNTAuOTEgMzIuMzIgNTAuMDcgMzMuOTkiLz48cG9seWdvbiBmaWxsPSIjMmM1OTY3IiBwb2ludHM9IjUuMTggMzIuMzIgNS4xOCA0MSA2Ljg1IDQxIDYuODUgMzMuOTkgNi4wMSAzMi4zMiA1LjE4IDMyLjMyIi8+PC9zdmc+;" parent="1" vertex="1">
          <mxGeometry x="474" y="610" width="57" height="42" as="geometry" />
        </mxCell>
        <mxCell id="AX1sSN8mTPLwoX_LTjLj-50" value="Users" style="text;html=1;align=center;verticalAlign=middle;whiteSpace=wrap;rounded=0;fillColor=none;opacity=60;fontSize=12;fontFamily=Oracle Sans Tab;" parent="1" vertex="1">
          <mxGeometry x="472.5" y="660" width="60" height="20" as="geometry" />
        </mxCell>
        <mxCell id="AX1sSN8mTPLwoX_LTjLj-53" style="edgeStyle=orthogonalEdgeStyle;rounded=0;orthogonalLoop=1;jettySize=auto;html=1;exitX=0.75;exitY=0;exitDx=0;exitDy=0;entryX=0.25;entryY=1;entryDx=0;entryDy=0;strokeColor=#4D4D4D;align=center;verticalAlign=middle;fontFamily=Helvetica;fontSize=11;fontColor=default;labelBackgroundColor=default;startArrow=oval;startFill=1;endArrow=oval;endFill=1;" parent="1" source="AX1sSN8mTPLwoX_LTjLj-47" target="AX1sSN8mTPLwoX_LTjLj-37" edge="1">
          <mxGeometry relative="1" as="geometry">
            <Array as="points">
              <mxPoint x="407" y="560" />
              <mxPoint x="563" y="560" />
            </Array>
            <mxPoint x="577.75" y="412.5000000000002" as="targetPoint" />
          </mxGeometry>
        </mxCell>
        <mxCell id="AX1sSN8mTPLwoX_LTjLj-58" value="SQL Net&lt;div&gt;TCP/1521-2&lt;/div&gt;" style="text;html=1;align=center;verticalAlign=middle;whiteSpace=wrap;rounded=0;fillColor=none;opacity=60;fontSize=12;fontFamily=Oracle Sans Tab;" parent="1" vertex="1">
          <mxGeometry x="570" y="430" width="75.5" height="30" as="geometry" />
        </mxCell>
        <mxCell id="AX1sSN8mTPLwoX_LTjLj-61" value="SSH&lt;div&gt;TCP/22&lt;/div&gt;" style="text;html=1;align=center;verticalAlign=middle;whiteSpace=wrap;rounded=0;fillColor=none;opacity=60;fontSize=12;fontFamily=Oracle Sans Tab;" parent="1" vertex="1">
          <mxGeometry x="400" y="430" width="60" height="30" as="geometry" />
        </mxCell>
        <mxCell id="O2jZbUnv4i48iWwTY9WI-1" style="edgeStyle=orthogonalEdgeStyle;rounded=0;orthogonalLoop=1;jettySize=auto;html=1;exitX=0.5;exitY=0;exitDx=0;exitDy=0;entryX=0.75;entryY=1;entryDx=0;entryDy=0;strokeColor=#4D4D4D;align=center;verticalAlign=middle;fontFamily=Helvetica;fontSize=11;fontColor=default;labelBackgroundColor=default;startArrow=oval;startFill=1;endArrow=oval;endFill=1;" edge="1" parent="1" source="AX1sSN8mTPLwoX_LTjLj-49" target="AX1sSN8mTPLwoX_LTjLj-37">
          <mxGeometry relative="1" as="geometry">
            <Array as="points">
              <mxPoint x="503" y="570" />
              <mxPoint x="667" y="570" />
            </Array>
          </mxGeometry>
        </mxCell>
        <mxCell id="O2jZbUnv4i48iWwTY9WI-2" value="SQL Net&lt;div&gt;TCP/1521-2&lt;/div&gt;" style="text;html=1;align=center;verticalAlign=middle;whiteSpace=wrap;rounded=0;fillColor=none;opacity=60;fontSize=12;fontFamily=Oracle Sans Tab;" vertex="1" parent="1">
          <mxGeometry x="400" y="250" width="75.5" height="30" as="geometry" />
        </mxCell>
      </root>
    </mxGraphModel>
  </diagram>
</mxfile>
